<svg xmlns="http://www.w3.org/2000/svg" width="375" viewBox="0 0 375 375" height="375" version="1.0"><defs><clipPath id="a"><path d="M 1.265625 105.746094 L 374.765625 105.746094 L 374.765625 269 L 1.265625 269 Z M 1.265625 105.746094"/></clipPath></defs><g clip-path="url(#a)"><path fill="#ADCCDD" d="M 117.328125 264.628906 C 117.742188 264.679688 118.195312 264.925781 118.5 265.21875 C 119.199219 265.902344 120.042969 265.980469 120.703125 265.476562 C 121.566406 264.816406 122.445312 264.785156 123.414062 264.890625 C 123.636719 264.914062 123.867188 264.921875 124.089844 264.886719 C 125.632812 264.640625 127.0625 265.121094 128.535156 265.476562 C 130.695312 266 132.898438 266.417969 135.027344 265.28125 C 135.425781 265.066406 135.738281 265.152344 136.046875 265.503906 C 136.339844 265.835938 136.6875 266.152344 137.070312 266.367188 C 138.859375 267.367188 140.761719 267.851562 142.828125 267.527344 C 143.046875 267.488281 143.277344 267.484375 143.5 267.5 C 144.746094 267.589844 145.992188 267.722656 147.246094 267.785156 C 148.898438 267.871094 150.222656 266.695312 150.347656 265.046875 C 150.386719 264.546875 150.609375 264.222656 151.011719 263.945312 C 151.40625 263.675781 151.75 263.335938 152.105469 263.011719 C 152.84375 262.34375 153.527344 261.617188 154.558594 261.355469 C 154.875 261.277344 155.1875 261.035156 155.429688 260.792969 C 155.996094 260.222656 156.183594 259.53125 155.898438 258.746094 C 155.769531 258.398438 155.699219 258.082031 156.074219 257.800781 C 156.53125 257.460938 156.960938 257.078125 157.390625 256.707031 C 157.777344 256.371094 158.09375 256.433594 158.285156 256.917969 C 158.328125 257.035156 158.34375 257.167969 158.371094 257.292969 C 158.457031 257.753906 158.59375 258.195312 159.113281 258.328125 C 159.695312 258.476562 160.085938 258.140625 160.429688 257.722656 C 160.757812 257.324219 161.140625 256.960938 161.417969 256.53125 C 161.6875 256.113281 161.859375 255.628906 162.097656 255.132812 C 162.875 255.628906 163.648438 256.125 164.421875 256.625 C 164.558594 256.710938 164.679688 256.820312 164.800781 256.921875 C 165.148438 257.21875 165.15625 257.523438 164.96875 257.949219 C 164.640625 258.703125 164.886719 259.082031 165.683594 259.277344 C 166.339844 259.433594 166.988281 259.621094 167.644531 259.785156 C 167.894531 259.847656 168.148438 259.902344 168.398438 259.933594 C 169.367188 260.050781 169.566406 259.90625 169.738281 258.914062 C 169.792969 258.597656 169.894531 258.339844 170.222656 258.277344 C 171.417969 258.0625 171.757812 257.203125 171.789062 256.160156 C 171.808594 255.601562 171.984375 255.121094 172.375 254.769531 C 173.113281 254.101562 173.550781 253.339844 173.410156 252.3125 C 173.40625 252.269531 173.484375 252.210938 173.523438 252.164062 C 174.007812 252.296875 174.480469 252.496094 174.972656 252.554688 C 175.660156 252.632812 176.144531 252.820312 176.203125 253.621094 C 176.21875 253.816406 176.472656 254.117188 176.648438 254.140625 C 176.8125 254.164062 177.113281 253.917969 177.183594 253.726562 C 177.402344 253.113281 177.828125 253.078125 178.347656 253.191406 C 178.507812 253.230469 178.664062 253.261719 178.820312 253.289062 C 179.457031 253.402344 180.003906 253.292969 180.503906 252.808594 C 181.007812 252.316406 181.597656 251.910156 182.164062 251.480469 C 182.769531 251.023438 183.457031 251.175781 183.566406 251.925781 C 183.734375 253.011719 184.496094 253.582031 185.183594 254.242188 C 185.804688 254.835938 186.246094 254.738281 186.765625 254.035156 C 187.023438 253.683594 187.320312 253.292969 187.691406 253.105469 C 188.640625 252.636719 189.664062 252.3125 190.460938 251.5625 C 190.609375 251.421875 190.863281 251.347656 191.078125 251.328125 C 192.050781 251.246094 192.59375 250.765625 192.742188 249.773438 C 192.820312 249.238281 193.058594 249.1875 193.578125 249.324219 C 194.226562 249.488281 194.882812 249.625 195.546875 249.707031 C 196.007812 249.765625 196.441406 249.832031 196.757812 250.207031 C 197.316406 250.871094 197.90625 251.492188 198.261719 252.320312 C 198.664062 253.253906 199.398438 253.949219 200.488281 253.882812 C 201.277344 253.835938 201.800781 254.113281 202.1875 254.734375 C 202.484375 255.203125 202.90625 255.355469 203.429688 255.316406 C 203.6875 255.296875 203.945312 255.242188 204.199219 255.265625 C 204.855469 255.324219 205.160156 255.890625 204.878906 256.621094 C 203.738281 255.742188 202.6875 256.320312 201.660156 256.867188 C 201.121094 257.152344 200.933594 257.714844 201.105469 258.269531 C 201.261719 258.78125 201.542969 258.925781 202.253906 258.890625 C 203.15625 258.851562 203.851562 258.441406 204.386719 257.730469 C 204.605469 257.433594 204.851562 257.132812 205.257812 257.394531 C 205.765625 257.710938 206.285156 257.695312 206.84375 257.617188 C 207.113281 257.578125 207.445312 257.625 207.683594 257.757812 C 208.503906 258.199219 209.257812 258.019531 209.953125 257.53125 C 210.660156 257.03125 211.425781 256.75 212.28125 256.667969 C 213.015625 256.59375 213.410156 256.160156 213.5625 255.433594 C 213.824219 254.207031 214.253906 253.949219 215.476562 254.25 C 216.117188 254.410156 216.671875 254.351562 217.195312 253.90625 C 217.398438 253.730469 217.71875 253.59375 217.980469 253.605469 C 218.75 253.628906 219.363281 253.355469 219.878906 252.8125 C 220.125 252.554688 220.378906 252.472656 220.734375 252.675781 C 222.105469 253.46875 223.421875 253.015625 224.65625 252.347656 C 225.113281 252.097656 225.414062 252.03125 225.882812 252.269531 C 226.851562 252.757812 227.96875 252.425781 228.605469 251.53125 C 229.347656 250.496094 230.183594 250.496094 230.964844 251.523438 C 231.515625 252.253906 232.375 252.203125 232.855469 251.40625 C 233.003906 251.15625 233.109375 250.878906 233.269531 250.640625 C 233.800781 249.855469 234.550781 249.617188 235.4375 249.890625 C 235.804688 250.003906 236.1875 250.066406 236.566406 250.121094 C 236.929688 250.171875 237.460938 249.949219 237.566406 250.433594 C 237.628906 250.742188 237.363281 251.136719 237.195312 251.46875 C 237.113281 251.632812 236.949219 251.78125 236.785156 251.867188 C 235.625 252.46875 235.035156 253.4375 234.878906 254.710938 C 234.855469 254.925781 234.71875 255.128906 234.636719 255.339844 C 234.308594 256.167969 234.394531 256.5625 235.113281 257.085938 C 235.429688 257.316406 235.613281 257.574219 235.617188 257.960938 C 235.625 258.65625 235.960938 259.207031 236.445312 259.648438 C 237.164062 260.300781 237.585938 261.09375 237.914062 261.992188 C 238.164062 262.679688 238.539062 263.375 239.351562 263.582031 C 240.191406 263.792969 241.039062 263.984375 241.898438 264.101562 C 242.394531 264.171875 242.777344 264.34375 242.996094 264.773438 C 243.425781 265.617188 244.140625 265.851562 245.007812 265.820312 C 245.332031 265.804688 245.652344 265.804688 245.972656 265.773438 C 246.652344 265.710938 247.214844 265.910156 247.765625 266.324219 C 248.378906 266.785156 249.042969 267.257812 249.757812 267.488281 C 250.53125 267.734375 251.265625 268.027344 251.972656 268.417969 C 252.730469 268.828125 253.496094 268.875 254.289062 268.480469 C 254.664062 268.292969 255.0625 268.15625 255.46875 268.066406 C 256.21875 267.894531 256.796875 267.519531 257.367188 267 C 258.6875 265.800781 260.175781 264.949219 262.085938 265.320312 C 262.445312 265.390625 262.929688 265.402344 263.203125 265.214844 C 263.917969 264.730469 264.707031 264.515625 265.511719 264.261719 C 266.464844 263.964844 266.761719 263.359375 266.53125 262.386719 C 266.460938 262.074219 266.359375 261.765625 266.269531 261.457031 C 266.144531 261.054688 266.246094 260.75 266.652344 260.59375 C 267.226562 260.371094 267.597656 259.984375 267.835938 259.402344 C 268.101562 258.757812 268.207031 258.765625 268.84375 259.09375 C 269.023438 259.1875 269.371094 259.289062 269.425781 259.21875 C 269.5625 259.039062 269.613281 258.769531 269.632812 258.535156 C 269.675781 258.03125 269.632812 257.511719 269.71875 257.019531 C 269.773438 256.714844 270.03125 256.457031 270.148438 256.160156 C 270.351562 255.65625 270.117188 255.132812 269.628906 255.140625 C 268.847656 255.152344 268.007812 255.054688 267.445312 255.863281 C 267.238281 256.164062 266.894531 256.421875 266.554688 256.570312 C 265.773438 256.90625 265.238281 256.492188 265.238281 255.644531 C 265.238281 255.0625 265.4375 254.582031 265.828125 254.15625 C 266.1875 253.765625 266.292969 253.324219 266.019531 252.824219 C 265.769531 252.367188 265.410156 252.183594 264.898438 252.300781 C 264.789062 252.328125 264.65625 252.265625 264.472656 252.234375 C 264.429688 251.488281 264.441406 250.785156 264.777344 249.984375 C 265.117188 250.191406 265.339844 250.375 265.597656 250.472656 C 266.628906 250.878906 267.65625 251.492188 268.742188 250.535156 C 269.144531 250.183594 269.433594 250.21875 269.777344 250.765625 C 270.417969 251.78125 271.316406 252.035156 272.429688 251.953125 C 273.332031 251.882812 273.480469 251.710938 273.214844 250.820312 C 273.042969 250.242188 273.101562 250.078125 273.671875 250.046875 C 274.308594 250.015625 274.667969 249.703125 274.949219 249.183594 C 275.070312 248.953125 275.300781 248.785156 275.464844 248.613281 C 275.914062 249.128906 276.210938 249.660156 276.660156 249.945312 C 277.257812 250.320312 277.792969 249.738281 278.453125 249.46875 C 278.53125 249.828125 278.597656 250.128906 278.667969 250.429688 C 278.917969 251.503906 279.964844 251.957031 280.914062 251.394531 C 281.046875 251.3125 281.1875 251.214844 281.292969 251.097656 C 281.703125 250.621094 282.214844 250.316406 282.804688 250.097656 C 283.054688 250 283.242188 249.738281 283.464844 249.558594 C 283.683594 249.382812 283.914062 249.058594 284.132812 249.0625 C 284.894531 249.070312 285.714844 249.046875 286.40625 249.3125 C 287.324219 249.664062 288.152344 250.257812 289.003906 250.773438 C 289.710938 251.203125 290.117188 251.183594 290.726562 250.605469 C 290.925781 250.410156 291.109375 250.199219 291.410156 249.875 C 292.097656 250.808594 292.9375 250.5625 293.808594 250.332031 C 294.191406 250.230469 294.628906 250.351562 295.039062 250.371094 C 295.476562 250.394531 295.914062 250.425781 296.355469 250.445312 C 296.667969 250.457031 297.066406 250.332031 297.277344 250.480469 C 298.265625 251.183594 299.277344 250.824219 300.257812 250.585938 C 300.902344 250.421875 301.554688 250.167969 301.960938 249.554688 C 302.214844 249.167969 302.585938 249.019531 303.035156 249.023438 C 303.605469 249.027344 304.117188 248.898438 304.53125 248.476562 C 304.792969 248.207031 305.074219 248.234375 305.40625 248.429688 C 305.753906 248.636719 306.148438 248.882812 306.535156 248.90625 C 308.015625 248.980469 309.5 249.011719 310.980469 248.976562 C 311.398438 248.96875 311.816406 248.699219 312.226562 248.539062 C 312.734375 248.339844 313.214844 248.023438 313.734375 247.949219 C 314.589844 247.820312 315.46875 247.800781 316.332031 247.824219 C 317.015625 247.839844 317.613281 247.765625 318.085938 247.214844 C 318.179688 247.109375 318.339844 247.058594 318.507812 246.964844 C 318.640625 247.117188 318.753906 247.226562 318.847656 247.347656 C 319.375 248.03125 320.078125 248.277344 320.882812 248.011719 C 321.210938 247.898438 321.546875 247.738281 321.820312 247.523438 C 322.433594 247.03125 323.050781 247.074219 323.71875 247.378906 C 324.15625 247.582031 324.601562 247.777344 325.066406 247.898438 C 325.761719 248.082031 325.949219 247.984375 326.351562 247.382812 C 326.792969 246.734375 327.136719 246.601562 327.894531 246.792969 C 328.683594 246.984375 329.273438 247.425781 329.730469 248.109375 C 330.152344 248.746094 330.394531 248.71875 330.9375 248.167969 C 331.132812 247.96875 331.359375 247.753906 331.613281 247.667969 C 332.707031 247.289062 333.824219 246.984375 334.910156 246.597656 C 335.253906 246.472656 335.570312 246.210938 335.835938 245.949219 C 336.347656 245.449219 336.480469 245.382812 337.058594 245.792969 C 338.914062 247.109375 341.070312 245.902344 341.867188 244.085938 C 341.929688 243.945312 341.984375 243.761719 341.949219 243.621094 C 341.789062 242.9375 342.140625 242.679688 342.710938 242.398438 C 343.5 242.007812 344.449219 241.792969 344.898438 240.90625 C 345.128906 240.457031 345.464844 240.390625 345.9375 240.40625 C 346.371094 240.421875 346.84375 240.339844 347.242188 240.160156 C 347.710938 239.953125 348.125 239.902344 348.632812 240.019531 C 349.832031 240.300781 351.421875 239.644531 352.066406 238.621094 C 352.292969 238.257812 352.566406 238.027344 352.980469 238 C 354.109375 237.933594 354.839844 237.296875 355.546875 236.472656 C 356.050781 235.882812 356.542969 235.1875 357.382812 234.96875 C 358.289062 234.738281 359.1875 234.480469 360.101562 234.28125 C 360.859375 234.121094 361.289062 233.738281 361.367188 232.929688 C 361.410156 232.527344 361.578125 232.125 361.738281 231.742188 C 362.054688 230.964844 362.421875 230.210938 362.738281 229.4375 C 363.085938 228.578125 362.941406 228.054688 362.210938 227.488281 C 361.613281 227.023438 360.929688 226.757812 360.179688 226.652344 C 359.878906 226.609375 359.589844 226.527344 359.210938 226.441406 C 359.75 225.527344 360.421875 225.027344 361.238281 224.664062 C 362.363281 224.164062 362.851562 223.28125 362.558594 222.085938 C 362.40625 221.480469 362.070312 220.898438 361.71875 220.375 C 361.175781 219.574219 361.117188 219.3125 361.792969 218.625 C 362.152344 218.257812 362.300781 217.886719 362.136719 217.410156 C 361.917969 216.773438 361.960938 216.160156 362.140625 215.511719 C 362.441406 214.40625 361.964844 213.527344 360.921875 213.097656 C 360.714844 213.011719 360.5 212.9375 360.28125 212.875 C 359.882812 212.757812 359.617188 212.519531 359.46875 212.121094 C 359.09375 211.117188 358.351562 210.503906 357.367188 210.117188 C 356.597656 209.8125 356.4375 209.363281 356.742188 208.589844 C 356.894531 208.207031 357.15625 208.066406 357.488281 208.316406 C 357.953125 208.664062 358.382812 209.050781 358.800781 209.457031 C 359.609375 210.242188 360.039062 210.136719 360.363281 209.027344 C 360.425781 208.808594 360.460938 208.582031 360.453125 208.359375 C 360.429688 207.464844 360.496094 206.542969 359.5625 205.863281 C 360.035156 205.292969 360.421875 204.742188 360.894531 204.277344 C 361.300781 203.882812 361.429688 203.460938 361.203125 202.980469 C 360.894531 202.335938 360.914062 201.671875 360.9375 200.992188 C 360.96875 199.839844 361.214844 199.46875 362.265625 199.015625 C 362.644531 198.851562 363.015625 198.65625 363.351562 198.414062 C 364.417969 197.644531 365.121094 196.449219 366.339844 195.847656 C 366.445312 195.800781 366.515625 195.664062 366.578125 195.550781 C 366.902344 194.96875 367.410156 194.679688 368.054688 194.578125 C 368.277344 194.539062 368.496094 194.480469 368.707031 194.394531 C 369.425781 194.097656 369.621094 193.46875 369.207031 192.832031 C 369.136719 192.726562 369.042969 192.632812 368.953125 192.539062 C 368.605469 192.171875 368.59375 191.804688 368.96875 191.441406 C 369.484375 190.945312 369.65625 190.296875 369.769531 189.617188 C 369.855469 189.109375 369.929688 188.59375 370.0625 188.097656 C 370.136719 187.839844 370.28125 187.519531 370.492188 187.398438 C 371.019531 187.101562 371.15625 186.65625 371.207031 186.113281 C 371.238281 185.796875 371.34375 185.488281 371.40625 185.171875 C 371.542969 184.496094 371.835938 184.128906 372.640625 184.132812 C 373.632812 184.140625 373.976562 183.726562 374.152344 182.734375 C 374.210938 182.414062 374.289062 182.097656 374.3125 181.777344 C 374.371094 180.96875 373.996094 180.566406 373.191406 180.554688 C 372.515625 180.542969 371.929688 180.765625 371.453125 181.261719 C 371.214844 181.515625 370.976562 181.769531 370.75 182.007812 C 369.5 181.566406 369.132812 180.660156 369.726562 179.613281 C 369.789062 179.503906 369.910156 179.382812 369.902344 179.277344 C 369.878906 179.082031 369.828125 178.839844 369.695312 178.714844 C 369.625 178.644531 369.316406 178.726562 369.199219 178.832031 C 369.039062 178.972656 368.96875 179.210938 368.839844 179.394531 C 368.441406 179.976562 368.082031 179.972656 367.65625 179.390625 C 366.878906 178.328125 366.726562 178.292969 365.527344 178.902344 C 364.796875 179.269531 364.300781 179.132812 363.808594 178.441406 C 363.71875 178.316406 363.601562 178.210938 363.484375 178.078125 C 363.335938 178.144531 363.195312 178.167969 363.113281 178.253906 C 362.664062 178.75 362.195312 178.613281 361.726562 178.316406 C 361.273438 178.027344 361.054688 177.628906 361.222656 177.082031 C 361.453125 176.332031 361.25 175.746094 360.566406 175.34375 C 359.910156 174.957031 360.148438 174.382812 360.707031 174.078125 C 360.894531 173.980469 361.140625 173.988281 361.359375 173.96875 C 361.867188 173.921875 362.371094 173.859375 362.878906 173.859375 C 363.179688 173.859375 363.585938 173.859375 363.753906 174.039062 C 364.171875 174.472656 364.421875 175.03125 364.234375 175.820312 C 363.890625 175.535156 363.632812 175.308594 363.367188 175.097656 C 363.027344 174.828125 362.664062 174.792969 362.304688 175.058594 C 361.957031 175.3125 361.863281 175.761719 362.050781 176.191406 C 362.316406 176.804688 362.917969 177.089844 363.660156 176.949219 C 364.136719 176.859375 364.601562 176.699219 365.078125 176.664062 C 365.664062 176.621094 366.15625 176.464844 366.492188 175.96875 C 366.785156 175.53125 367.203125 175.457031 367.679688 175.527344 C 367.96875 175.570312 368.261719 175.65625 368.542969 175.628906 C 368.851562 175.597656 369.28125 175.558594 369.417969 175.359375 C 369.894531 174.632812 370.460938 174.09375 371.335938 173.929688 C 371.445312 173.90625 371.535156 173.765625 371.636719 173.695312 C 371.960938 173.484375 372.273438 173.261719 372.609375 173.085938 C 372.992188 172.886719 373.378906 172.703125 373.367188 172.195312 C 373.359375 171.839844 372.953125 171.617188 372.296875 171.5625 C 372.261719 171.5625 372.230469 171.550781 372.199219 171.558594 C 371.199219 171.804688 370.226562 171.652344 369.265625 171.351562 C 369.207031 171.335938 369.136719 171.351562 369.074219 171.34375 C 368.507812 171.25 367.945312 171.125 367.378906 171.074219 C 367.015625 171.039062 366.472656 170.972656 366.300781 171.171875 C 365.726562 171.84375 365.0625 171.871094 364.300781 171.753906 C 364.117188 171.726562 363.917969 171.789062 363.726562 171.8125 C 363.152344 171.890625 362.539062 171.855469 362.023438 172.066406 C 360.992188 172.496094 360.003906 172.257812 358.964844 172.191406 C 357.523438 172.101562 356.070312 172.269531 354.625 172.304688 C 354.050781 172.316406 353.636719 172.554688 353.328125 173.015625 C 353.183594 173.230469 353.082031 173.480469 352.910156 173.664062 C 352.679688 173.910156 352.410156 174.257812 352.128906 174.292969 C 351.503906 174.363281 350.855469 174.304688 350.226562 174.207031 C 350.089844 174.1875 349.980469 173.796875 349.910156 173.5625 C 349.796875 173.160156 349.808594 172.699219 349.613281 172.347656 C 349.164062 171.558594 349.039062 170.722656 349.007812 169.84375 C 348.996094 169.492188 348.980469 169.109375 348.839844 168.796875 C 348.644531 168.371094 348.390625 167.9375 348.054688 167.621094 C 347.671875 167.265625 347.148438 167.316406 346.867188 167.734375 C 346.519531 168.238281 346.082031 168.421875 345.511719 168.523438 C 344.914062 168.632812 344.605469 169.128906 344.464844 169.679688 C 344.339844 170.167969 344.714844 170.453125 345.039062 170.714844 C 345.335938 170.960938 345.691406 171.136719 345.988281 171.378906 C 346.140625 171.503906 346.222656 171.710938 346.367188 171.933594 C 346.140625 172.046875 346.007812 172.152344 345.859375 172.179688 C 344.601562 172.433594 343.347656 172.710938 342.046875 172.703125 C 341.167969 172.695312 340.746094 173.117188 340.660156 173.980469 C 340.636719 174.238281 340.707031 174.515625 340.625 174.746094 C 340.539062 174.992188 340.355469 175.230469 340.144531 175.390625 C 340.058594 175.453125 339.773438 175.339844 339.636719 175.230469 C 339.375 175.019531 339.378906 174.726562 339.550781 174.445312 C 340.011719 173.691406 339.820312 172.980469 339.480469 172.242188 C 339.285156 171.808594 339.160156 171.324219 339.089844 170.851562 C 339.015625 170.375 339.5 170.082031 339.925781 170.328125 C 340.082031 170.417969 340.230469 170.578125 340.3125 170.742188 C 340.691406 171.542969 341.304688 171.785156 342.140625 171.589844 C 342.324219 171.546875 342.527344 171.554688 342.71875 171.570312 C 343.527344 171.644531 343.742188 171.03125 343.863281 170.082031 C 343.941406 169.472656 343.484375 169.144531 342.730469 169.058594 C 342.164062 168.992188 341.601562 168.855469 341.046875 168.710938 C 340.214844 168.484375 339.421875 168.101562 338.507812 168.371094 C 338.003906 168.519531 337.75 168.269531 337.824219 167.761719 C 337.980469 166.707031 338.234375 165.660156 338.828125 164.765625 C 339.070312 164.390625 339.539062 164.132812 339.945312 163.910156 C 340.621094 163.546875 341.347656 163.28125 342.027344 162.921875 C 342.601562 162.613281 342.785156 162.210938 342.652344 161.75 C 342.503906 161.246094 342.125 161.058594 341.628906 161.015625 C 341.378906 160.992188 341.105469 160.96875 340.886719 160.855469 C 340.753906 160.789062 340.617188 160.542969 340.636719 160.398438 C 340.652344 160.265625 340.859375 160.097656 341.011719 160.054688 C 341.257812 159.984375 341.527344 160.019531 341.78125 159.984375 C 342.183594 159.929688 342.554688 159.804688 342.589844 159.3125 C 342.621094 158.917969 342.289062 158.675781 341.707031 158.625 C 341.609375 158.617188 341.511719 158.632812 341.414062 158.621094 C 340.882812 158.546875 340.351562 158.4375 339.8125 158.386719 C 338.957031 158.304688 338.09375 158.238281 337.230469 158.214844 C 337.035156 158.207031 336.789062 158.347656 336.632812 158.492188 C 336.160156 158.929688 335.699219 158.871094 335.242188 158.507812 C 334.671875 158.0625 334.015625 157.960938 333.328125 157.972656 C 332.429688 157.980469 331.527344 157.996094 330.816406 158.53125 C 330.398438 158.324219 330.046875 158.167969 329.714844 157.976562 C 329.28125 157.726562 329.265625 157.339844 329.6875 157.078125 C 329.988281 156.894531 330.34375 156.792969 330.636719 156.605469 C 331.09375 156.308594 331.199219 155.84375 330.957031 155.433594 C 330.605469 154.839844 329.089844 154.261719 328.402344 154.414062 C 327.96875 154.507812 327.515625 154.550781 327.074219 154.5625 C 326.367188 154.578125 325.65625 154.527344 324.949219 154.539062 C 324.4375 154.546875 324.066406 154.34375 323.863281 153.890625 C 323.65625 153.417969 324.042969 153.175781 324.320312 152.929688 C 324.628906 152.660156 324.824219 152.410156 324.765625 151.941406 C 324.65625 151.085938 325.359375 150.53125 326.140625 150.867188 C 326.757812 151.132812 327.328125 151.515625 327.644531 152.167969 C 328.042969 152.976562 328.191406 153.054688 329.058594 152.96875 C 329.539062 152.917969 330.019531 152.820312 330.5 152.828125 C 331.71875 152.855469 332.9375 152.976562 334.15625 152.96875 C 335.296875 152.960938 336.300781 152.253906 337.464844 152.234375 C 337.648438 152.230469 337.984375 151.84375 337.964844 151.667969 C 337.941406 151.453125 337.628906 151.121094 337.417969 151.105469 C 336.894531 151.0625 336.316406 151.070312 335.828125 151.246094 C 335.277344 151.4375 334.789062 151.488281 334.238281 151.308594 C 333.53125 151.078125 332.816406 150.890625 332.097656 150.71875 C 331.28125 150.523438 331.140625 150.375 331.179688 149.535156 C 331.195312 149.25 331.304688 148.972656 331.34375 148.6875 C 331.382812 148.410156 331.476562 148.085938 331.382812 147.847656 C 331.023438 146.96875 330.515625 146.179688 329.582031 145.800781 C 328.777344 145.476562 327.972656 145.148438 327.152344 144.886719 C 326.914062 144.808594 326.570312 144.878906 326.34375 145 C 325.945312 145.21875 325.605469 145.160156 325.25 144.957031 C 324.941406 144.777344 324.636719 144.597656 324.324219 144.433594 C 323.847656 144.183594 323.359375 144.148438 322.820312 144.265625 C 322.101562 144.417969 321.363281 144.5 320.636719 144.617188 C 320.261719 144.675781 319.988281 144.5625 319.902344 144.175781 C 319.769531 143.5625 319.660156 142.9375 319.511719 142.167969 C 320.484375 142.265625 321.347656 141.921875 322.078125 142.4375 C 322.644531 142.832031 323.148438 142.824219 323.703125 142.5625 C 324.078125 142.382812 324.429688 142.164062 324.792969 141.960938 C 325.484375 142.511719 325.484375 142.496094 326.421875 142.511719 C 326.703125 142.515625 326.992188 142.609375 327.257812 142.699219 C 328.761719 143.214844 329.355469 143.027344 330.289062 141.765625 C 330.425781 141.582031 330.707031 141.359375 330.886719 141.386719 C 331.484375 141.480469 332.089844 141.613281 332.644531 141.847656 C 333.378906 142.160156 333.359375 142.207031 333.929688 141.589844 C 334.328125 141.164062 334.613281 141.09375 335.113281 141.367188 C 335.335938 141.488281 335.523438 141.675781 335.726562 141.828125 C 336.132812 142.121094 336.503906 142.070312 336.859375 141.734375 C 337.324219 141.304688 337.46875 140.878906 337.285156 140.457031 C 336.835938 139.449219 335.683594 138.976562 334.640625 139.304688 C 334.300781 139.414062 333.871094 139.4375 333.53125 139.335938 C 332.640625 139.078125 331.773438 138.746094 330.902344 138.40625 C 330.675781 138.320312 330.464844 138.144531 330.289062 137.96875 C 329.882812 137.554688 329.429688 137.507812 328.980469 137.824219 C 328.394531 138.234375 327.789062 138.253906 327.132812 138.097656 C 326.886719 138.039062 326.601562 137.964844 326.371094 138.023438 C 325.511719 138.234375 325.039062 137.800781 324.65625 137.125 C 324.261719 136.433594 323.78125 135.859375 322.890625 135.789062 C 322.617188 135.769531 322.367188 135.546875 322.09375 135.453125 C 321.792969 135.34375 321.433594 135.128906 321.179688 135.214844 C 320.359375 135.492188 319.679688 135.1875 318.988281 134.855469 C 318.671875 134.710938 318.375 134.519531 318.066406 134.359375 C 317.734375 134.183594 317.402344 133.921875 317.046875 133.878906 C 316.53125 133.808594 316.152344 133.625 315.785156 133.269531 C 315.125 132.636719 314.660156 132.652344 313.921875 133.210938 C 313.429688 133.59375 313.25 133.5625 312.945312 133.042969 C 312.894531 132.960938 312.847656 132.871094 312.820312 132.78125 C 312.539062 131.90625 311.871094 131.539062 311.027344 131.617188 C 310.011719 131.710938 309.03125 131.585938 308.066406 131.339844 C 306.980469 131.054688 305.898438 130.75 304.839844 130.378906 C 304.4375 130.234375 304.09375 129.886719 303.726562 129.632812 C 303.332031 129.363281 302.945312 129.066406 302.53125 128.832031 C 301.351562 128.167969 300.007812 128.066406 298.71875 127.839844 C 297.839844 127.6875 297.023438 127.511719 296.300781 126.972656 C 295.777344 126.578125 295.164062 126.421875 294.5625 126.640625 C 293.78125 126.917969 292.980469 126.875 292.1875 126.984375 C 291.253906 127.109375 290.652344 126.773438 290.167969 126 C 289.960938 125.660156 289.625 125.371094 289.28125 125.152344 C 288.804688 124.839844 288.257812 124.636719 287.761719 124.351562 C 286.824219 123.816406 286.3125 123.835938 285.488281 124.488281 C 285.367188 124.589844 285.234375 124.71875 285.089844 124.746094 C 284.441406 124.851562 284.03125 125.25 283.597656 125.710938 C 283.175781 126.152344 282.652344 126.683594 281.917969 126.433594 C 281.277344 126.214844 280.695312 125.910156 280.285156 125.296875 C 279.746094 124.496094 279.128906 123.75 278.515625 123 C 278.316406 122.757812 278.054688 122.5 277.769531 122.410156 C 276.984375 122.15625 276.171875 121.859375 275.359375 121.816406 C 274.640625 121.777344 274.140625 121.5625 273.675781 121.058594 C 273.144531 120.484375 272.476562 120.210938 271.675781 120.285156 C 270.761719 120.367188 269.902344 120.175781 269.027344 119.875 C 268.308594 119.625 267.515625 119.492188 266.757812 119.496094 C 265.472656 119.511719 264.191406 119.664062 262.910156 119.785156 C 262.527344 119.820312 262.25 119.757812 261.960938 119.472656 C 261.003906 118.550781 260.015625 118.53125 259.070312 119.429688 C 258.625 119.855469 258.199219 120.003906 257.597656 119.808594 C 256.003906 119.300781 255.738281 119.421875 254.875 120.886719 C 254.859375 120.914062 254.847656 120.945312 254.832031 120.972656 C 254.503906 121.5 254.386719 121.527344 253.824219 121.21875 C 253.402344 120.988281 252.976562 120.753906 252.546875 120.535156 C 251.460938 119.980469 250.921875 120.207031 250.507812 121.390625 C 250.390625 121.71875 250.335938 122.089844 249.816406 122.148438 C 249.757812 121.933594 249.722656 121.71875 249.644531 121.523438 C 249.5 121.175781 249.359375 120.824219 249.164062 120.503906 C 248.917969 120.097656 248.582031 119.742188 248.347656 119.324219 C 247.9375 118.605469 247.417969 118.230469 246.535156 118.394531 C 246.109375 118.472656 245.558594 118.492188 245.226562 118.28125 C 244.546875 117.847656 243.960938 117.972656 243.308594 118.25 C 242.492188 118.597656 242.363281 118.820312 242.480469 119.738281 C 242.519531 120.050781 242.617188 120.40625 242.519531 120.683594 C 242.105469 121.847656 241.320312 122.753906 240.226562 123.285156 C 239.589844 123.589844 238.941406 123.84375 238.378906 124.289062 C 238.027344 124.566406 237.617188 124.777344 237.210938 124.972656 C 236.75 125.199219 236.320312 125.027344 235.957031 124.734375 C 235.652344 124.488281 235.765625 124.167969 235.867188 123.84375 C 236.238281 122.703125 235.71875 121.914062 234.511719 121.914062 C 233.753906 121.914062 233.441406 121.628906 233.238281 120.914062 C 232.929688 119.832031 231.984375 119.496094 230.9375 119.925781 C 230.535156 120.09375 230.082031 120.164062 229.648438 120.214844 C 228.3125 120.371094 227.300781 119.644531 226.300781 118.929688 C 225.566406 118.402344 225.484375 118.371094 225.066406 119.113281 C 224.804688 119.585938 224.46875 119.730469 223.960938 119.667969 C 222.421875 119.480469 221.421875 118.546875 220.613281 117.324219 C 220.425781 117.042969 220.207031 116.660156 219.933594 116.589844 C 219.113281 116.375 218.667969 115.71875 218.089844 115.222656 C 217.914062 115.070312 217.785156 114.6875 217.847656 114.476562 C 217.914062 114.257812 218.226562 114.0625 218.46875 113.972656 C 218.695312 113.894531 218.976562 113.953125 219.234375 113.96875 C 219.746094 114.003906 220.261719 114.058594 220.777344 114.082031 C 221.15625 114.097656 221.476562 113.953125 221.65625 113.601562 C 221.851562 113.222656 221.800781 112.871094 221.5625 112.511719 C 221.316406 112.144531 221.105469 111.75 220.914062 111.347656 C 220.4375 110.335938 219.613281 110.160156 218.738281 110.878906 C 218.5 111.070312 218.199219 111.210938 217.90625 111.292969 C 217.195312 111.484375 217.078125 111.582031 216.945312 112.304688 C 216.894531 112.585938 216.890625 112.914062 216.742188 113.136719 C 216.3125 113.78125 216.429688 114.316406 216.863281 114.90625 C 217.214844 115.382812 217.121094 115.695312 216.683594 116.078125 C 215.71875 116.917969 214.628906 116.9375 213.5 116.53125 C 212.839844 116.292969 212.226562 115.914062 211.554688 115.703125 C 211.082031 115.554688 210.539062 115.488281 210.046875 115.546875 C 209.238281 115.648438 208.886719 116.375 209.339844 117.054688 C 210.09375 118.191406 211.199219 118.917969 212.515625 119.242188 C 213.417969 119.464844 214.355469 119.542969 215.265625 119.730469 C 216.125 119.902344 216.117188 119.929688 216.488281 119.125 C 216.714844 118.628906 216.96875 118.519531 217.363281 118.902344 C 217.84375 119.367188 218.269531 119.90625 218.628906 120.46875 C 218.957031 120.976562 218.863281 121.3125 218.308594 121.566406 C 217.824219 121.789062 217.269531 121.949219 216.742188 121.957031 C 216.210938 121.96875 215.652344 121.820312 215.144531 121.636719 C 214.363281 121.355469 213.707031 121.464844 213.066406 121.976562 C 212.566406 122.375 212.023438 122.722656 211.5 123.09375 C 211.140625 123.34375 210.773438 123.296875 210.394531 123.128906 C 209.519531 122.738281 208.644531 122.34375 207.761719 121.976562 C 207.035156 121.675781 206.578125 121.757812 206.140625 122.367188 C 205.820312 122.8125 205.429688 123.0625 204.9375 123.273438 C 203.914062 123.707031 203.261719 125.027344 203.488281 126.125 C 203.535156 126.371094 203.660156 126.613281 203.808594 126.816406 C 203.878906 126.921875 204.101562 127.003906 204.214844 126.96875 C 204.332031 126.933594 204.46875 126.75 204.480469 126.617188 C 204.507812 126.332031 204.464844 126.039062 204.445312 125.753906 C 204.417969 125.40625 204.265625 124.96875 204.695312 124.820312 C 205.164062 124.652344 205.363281 125.097656 205.558594 125.417969 C 205.710938 125.664062 205.890625 125.925781 205.929688 126.199219 C 206.066406 127.089844 206.160156 127.980469 206.222656 128.875 C 206.234375 129.070312 206.078125 129.304688 205.9375 129.472656 C 205.5625 129.917969 205.417969 130.417969 205.460938 130.996094 C 205.476562 131.203125 205.390625 131.417969 205.359375 131.601562 C 204.917969 131.707031 204.546875 131.828125 204.167969 131.875 C 203.535156 131.957031 202.875 132.125 202.269531 132.019531 C 201.449219 131.882812 200.675781 131.835938 199.886719 132.078125 C 199.550781 132.179688 199.199219 132.171875 199.035156 131.828125 C 198.59375 130.898438 198.167969 129.960938 197.804688 129.003906 C 197.671875 128.652344 198.015625 128.359375 198.375 128.480469 C 198.597656 128.554688 198.8125 128.738281 198.96875 128.925781 C 199.230469 129.25 199.425781 129.628906 199.683594 129.960938 C 200.058594 130.441406 200.476562 130.5625 200.84375 130.335938 C 201.203125 130.117188 201.335938 129.644531 201.078125 129.125 C 200.550781 128.0625 200.242188 126.984375 200.449219 125.777344 C 200.546875 125.207031 200.164062 124.761719 199.636719 124.617188 C 199.105469 124.46875 198.804688 124.613281 198.457031 125.175781 C 198.074219 125.792969 198.054688 125.839844 197.417969 125.523438 C 196.433594 125.035156 195.519531 124.972656 194.625 125.695312 C 194.476562 125.8125 194.285156 125.878906 194.113281 125.964844 C 193.234375 126.386719 192.40625 126.574219 191.476562 125.949219 C 190.652344 125.394531 189.796875 125.667969 189.183594 126.46875 C 189.007812 126.695312 188.867188 126.957031 188.679688 127.175781 C 188.015625 127.933594 187.667969 127.894531 187.203125 127.027344 C 186.792969 126.257812 186.425781 126.144531 185.636719 126.542969 C 185.464844 126.632812 185.300781 126.734375 185.140625 126.84375 C 184.722656 127.117188 184.304688 127.058594 183.996094 126.726562 C 183.753906 126.457031 183.5625 126.097656 183.476562 125.746094 C 183.25 124.84375 182.640625 124.316406 181.808594 124.203125 C 180.925781 124.089844 180.015625 124.1875 179.117188 124.21875 C 178.574219 124.234375 178.035156 124.347656 177.496094 124.324219 C 176.082031 124.261719 175.273438 125.199219 175.609375 126.578125 C 175.722656 127.039062 175.835938 127.503906 175.457031 128.074219 C 175.242188 127.824219 175.042969 127.671875 174.949219 127.46875 C 174.8125 127.183594 174.75 126.859375 174.652344 126.550781 C 174.382812 125.671875 173.976562 125.457031 173.140625 125.839844 C 172.703125 126.039062 172.300781 126.105469 171.835938 125.964844 C 171.5 125.863281 171.140625 125.792969 170.789062 125.789062 C 170.554688 125.785156 170.234375 125.855469 170.097656 126.015625 C 169.417969 126.792969 168.789062 127.617188 168.066406 128.519531 C 167.714844 128.246094 167.277344 127.90625 166.855469 127.578125 C 166.863281 127.417969 166.855469 127.320312 166.878906 127.230469 C 167.222656 125.84375 166.9375 125.449219 165.550781 125.378906 C 165.273438 125.363281 165 125.308594 164.683594 125.269531 C 164.707031 124.863281 164.757812 124.542969 164.71875 124.234375 C 164.699219 124.078125 164.539062 123.890625 164.398438 123.820312 C 164.304688 123.773438 164.082031 123.871094 163.984375 123.972656 C 163.789062 124.164062 163.640625 124.402344 163.46875 124.632812 C 162.960938 124.414062 162.941406 124.054688 163.15625 123.746094 C 163.390625 123.417969 163.738281 123.167969 164.039062 122.894531 C 164.242188 122.707031 164.511719 122.566406 164.652344 122.339844 C 164.855469 122.019531 165.027344 121.652344 165.109375 121.285156 C 165.199219 120.886719 165.214844 120.460938 165.175781 120.054688 C 165.140625 119.679688 164.859375 119.492188 164.480469 119.578125 C 164.136719 119.652344 163.808594 119.796875 163.464844 119.882812 C 163.125 119.96875 162.78125 120.070312 162.433594 120.085938 C 161.394531 120.117188 161.351562 120.140625 161.296875 121.164062 C 161.257812 121.910156 160.839844 122.335938 160.0625 122.304688 C 159.6875 122.292969 159.304688 122.160156 158.949219 122.023438 C 158.292969 121.773438 157.6875 121.796875 157.125 122.238281 C 156.5 122.734375 155.859375 122.742188 155.136719 122.417969 C 154.300781 122.039062 153.984375 122.183594 153.375 122.871094 C 152.695312 123.644531 152.34375 124.578125 152.019531 125.523438 C 151.734375 126.355469 152.140625 126.9375 153.03125 126.945312 C 153.855469 126.957031 154.433594 127.363281 154.960938 127.898438 C 155.089844 128.03125 155.105469 128.269531 155.207031 128.554688 C 154.386719 128.605469 153.660156 128.785156 152.988281 128.667969 C 150.816406 128.285156 148.683594 128.511719 146.539062 128.824219 C 145.84375 128.925781 145.214844 129.148438 144.765625 129.707031 C 144.390625 130.179688 143.898438 130.441406 143.371094 130.707031 C 142.636719 131.078125 141.757812 131.210938 141.253906 131.996094 C 141.167969 132.132812 140.859375 132.175781 140.648438 132.191406 C 139.203125 132.300781 138.566406 133.371094 139.175781 134.679688 C 139.304688 134.96875 139.445312 135.277344 139.460938 135.585938 C 139.496094 136.101562 139.476562 136.648438 138.90625 136.921875 C 138.429688 137.152344 137.757812 136.996094 137.320312 136.558594 C 137.027344 136.261719 136.789062 135.902344 136.464844 135.636719 C 136.152344 135.382812 135.789062 135.125 135.40625 135.027344 C 134.507812 134.796875 133.585938 134.648438 132.671875 134.488281 C 131.867188 134.347656 131.015625 134.21875 130.375 134.855469 C 129.734375 135.492188 129.066406 135.574219 128.257812 135.320312 C 127.644531 135.125 127.070312 135.226562 126.515625 135.613281 C 126.183594 135.847656 125.773438 135.988281 125.378906 136.121094 C 124.535156 136.410156 124.527344 136.40625 124.046875 135.59375 C 123.871094 135.300781 123.664062 135 123.304688 135.101562 C 123.066406 135.164062 122.800781 135.390625 122.691406 135.617188 C 122.527344 135.957031 122.644531 136.320312 122.949219 136.570312 C 123.09375 136.691406 123.277344 136.769531 123.453125 136.847656 C 123.816406 137.003906 123.949219 137.316406 123.8125 137.632812 C 123.714844 137.851562 123.429688 138 123.207031 138.140625 C 123.109375 138.199219 122.953125 138.15625 122.824219 138.164062 C 121.671875 138.21875 121.671875 138.21875 121.503906 139.34375 C 121.417969 139.917969 120.867188 140.378906 120.351562 140.199219 C 120.015625 140.082031 119.664062 139.808594 119.472656 139.511719 C 119.175781 139.058594 118.820312 138.734375 118.355469 138.480469 C 118.078125 138.328125 117.851562 138.089844 117.589844 137.902344 C 117.230469 137.640625 116.878906 137.363281 116.492188 137.140625 C 115.921875 136.804688 115.835938 136.40625 116.433594 136.066406 C 117.277344 135.585938 117.457031 134.984375 117.09375 134.136719 C 117.046875 134.019531 117.023438 133.882812 117.015625 133.757812 C 116.941406 132.542969 116.382812 131.839844 115.117188 131.574219 C 113.59375 131.257812 113.632812 131.1875 112.808594 132.484375 C 112.378906 133.160156 111.953125 133.949219 111.089844 134.09375 C 110.085938 134.257812 109.867188 134.972656 109.585938 135.730469 C 110.394531 136.015625 111.144531 136.269531 111.886719 136.546875 C 112.125 136.636719 112.371094 136.75 112.5625 136.910156 C 112.921875 137.207031 112.832031 137.597656 112.378906 137.679688 C 111.96875 137.757812 111.539062 137.710938 111.125 137.761719 C 109.917969 137.914062 108.710938 138.070312 107.621094 138.679688 C 106.96875 139.042969 106.757812 138.976562 106.410156 138.296875 C 106.324219 138.125 106.246094 137.949219 106.167969 137.769531 C 105.859375 137.039062 105.867188 137.015625 106.519531 136.507812 C 107.101562 136.046875 107.203125 135.429688 106.660156 134.945312 C 106.113281 134.460938 105.511719 133.953125 104.839844 133.710938 C 104.09375 133.445312 103.421875 133.175781 102.855469 132.601562 C 102.429688 132.175781 101.910156 132.121094 101.535156 132.429688 C 100.925781 132.9375 100.210938 133.367188 99.984375 134.226562 C 99.835938 134.78125 99.460938 135.175781 98.957031 135.460938 C 98.761719 135.566406 98.5625 135.6875 98.402344 135.84375 C 97.921875 136.308594 97.972656 137.105469 98.5 137.664062 C 98.988281 138.175781 99.535156 138.148438 100.085938 137.578125 C 100.199219 137.464844 100.285156 137.324219 100.398438 137.207031 C 100.996094 136.597656 101.925781 136.664062 102.375 137.398438 C 102.5625 137.703125 102.625 138.085938 102.753906 138.453125 C 101.660156 138.851562 100.675781 139.207031 99.699219 139.578125 C 99.460938 139.671875 99.179688 139.78125 99.042969 139.96875 C 98.273438 141.042969 97.339844 141.058594 96.210938 140.585938 C 95.496094 140.285156 95.328125 140.238281 95.367188 139.421875 C 95.410156 138.59375 95.023438 138.082031 94.324219 137.742188 C 93.742188 137.453125 93.125 137.394531 92.484375 137.296875 C 91.332031 137.128906 90.171875 136.789062 89.128906 136.28125 C 88.632812 136.039062 88.25 135.871094 87.722656 135.964844 C 87.246094 136.046875 86.761719 136.066406 86.285156 136.140625 C 85.6875 136.234375 85.148438 136.132812 84.597656 135.878906 C 84.167969 135.683594 83.683594 135.59375 83.214844 135.519531 C 81.976562 135.328125 80.714844 135.378906 79.511719 134.898438 C 78.679688 134.566406 77.773438 134.414062 76.929688 135.074219 C 76.75 135.21875 76.320312 135.128906 76.039062 135.039062 C 75.8125 134.964844 75.601562 134.757812 75.433594 134.570312 C 75.054688 134.140625 74.632812 133.996094 74.054688 134.132812 C 73.773438 134.199219 73.417969 134.132812 73.136719 134.019531 C 71.722656 133.453125 70.28125 133.132812 68.746094 133.109375 C 67.453125 133.089844 66.3125 133.679688 65.066406 133.8125 C 64.644531 133.859375 64.261719 133.972656 63.855469 133.765625 C 63.378906 133.523438 62.96875 133.601562 62.753906 134.144531 C 62.59375 134.550781 62.304688 134.667969 61.90625 134.578125 C 61.394531 134.457031 60.96875 134.636719 60.546875 134.914062 C 60.0625 135.238281 59.53125 135.488281 59.0625 135.820312 C 58.304688 136.355469 57.464844 136.835938 56.871094 137.519531 C 56.269531 138.214844 55.644531 138.691406 54.757812 138.921875 C 54.351562 139.03125 53.871094 139.273438 53.648438 139.605469 C 52.945312 140.632812 52.351562 141.734375 51.71875 142.808594 C 51.6875 142.863281 51.679688 142.933594 51.667969 142.996094 C 51.609375 143.367188 51.394531 143.554688 51.019531 143.59375 C 50.453125 143.652344 50.09375 144.011719 49.808594 144.46875 C 49.609375 144.796875 49.433594 145.144531 49.21875 145.46875 C 48.828125 146.054688 48.722656 146.675781 49.050781 147.300781 C 49.371094 147.90625 49.089844 148.347656 48.757812 148.800781 C 48.554688 149.078125 48.253906 149.183594 48.003906 148.96875 C 47.820312 148.8125 47.738281 148.511719 47.65625 148.261719 C 47.625 148.160156 47.730469 148.023438 47.769531 147.898438 C 48.085938 146.808594 47.980469 145.859375 46.917969 145.191406 C 46.414062 144.875 46.0625 144.417969 45.933594 143.808594 C 45.90625 143.671875 45.769531 143.558594 45.6875 143.441406 C 44.757812 143.800781 44.316406 144.449219 44.351562 145.359375 C 44.382812 146.128906 44.40625 146.902344 44.445312 147.675781 C 44.460938 147.964844 44.46875 148.269531 44.558594 148.539062 C 44.855469 149.394531 45.097656 150.242188 44.992188 151.179688 C 44.929688 151.753906 45.464844 152.046875 45.984375 151.789062 C 46.207031 151.679688 46.371094 151.460938 46.570312 151.304688 C 46.75 151.164062 46.941406 151.039062 47.28125 150.800781 C 47.230469 151.597656 46.796875 151.890625 46.433594 152.230469 C 46.128906 152.515625 45.8125 152.789062 45.515625 153.078125 C 45.125 153.464844 45.039062 153.863281 45.351562 154.378906 C 45.578125 154.757812 45.707031 155.207031 45.808594 155.640625 C 45.953125 156.265625 45.738281 156.621094 45.132812 156.839844 C 44.410156 157.097656 43.734375 157.167969 43.035156 156.648438 C 42.226562 156.046875 41.539062 156.128906 40.738281 156.722656 C 40.539062 156.871094 40.308594 156.996094 40.078125 157.101562 C 39.21875 157.496094 39.035156 157.789062 39.285156 158.683594 C 39.46875 159.351562 39.378906 159.9375 39.085938 160.550781 C 38.714844 161.332031 38.355469 162.121094 38.402344 163.042969 C 38.417969 163.324219 38.210938 163.640625 38.039062 163.898438 C 37.648438 164.488281 37.441406 165.109375 37.535156 165.816406 C 37.640625 166.613281 37.722656 167.417969 37.871094 168.207031 C 37.929688 168.507812 38.09375 168.824219 38.296875 169.050781 C 38.691406 169.484375 38.789062 169.964844 38.640625 170.484375 C 38.421875 171.257812 38.195312 172.035156 37.894531 172.777344 C 37.347656 174.132812 37.53125 174.773438 38.789062 175.5 C 38.984375 175.613281 39.195312 175.703125 39.40625 175.777344 C 39.980469 175.984375 40.570312 176.15625 41.136719 176.386719 C 41.3125 176.460938 41.550781 176.675781 41.550781 176.828125 C 41.554688 176.980469 41.308594 177.152344 41.15625 177.292969 C 41.089844 177.355469 40.976562 177.355469 40.886719 177.394531 C 39.890625 177.824219 39.628906 178.457031 39.957031 179.492188 C 40.121094 180.011719 40.253906 180.546875 40.339844 181.082031 C 40.492188 182.050781 40.210938 182.867188 39.359375 183.429688 C 38.417969 184.046875 38.015625 184.882812 38.328125 186 C 38.425781 186.355469 38.328125 186.621094 38.050781 186.859375 C 37.613281 187.234375 37.175781 187.621094 36.757812 188.019531 C 36.496094 188.273438 36.214844 188.359375 35.882812 188.207031 C 35.386719 187.984375 34.898438 187.964844 34.375 188.132812 C 34.207031 188.1875 33.964844 188.199219 33.816406 188.121094 C 33.085938 187.710938 32.398438 187.894531 31.683594 188.179688 C 30.617188 188.605469 29.527344 188.8125 28.410156 188.3125 C 27.734375 188.011719 27.035156 187.765625 26.359375 187.460938 C 25.582031 187.105469 24.910156 187.125 24.585938 187.566406 C 24.261719 188.011719 24.386719 188.546875 24.972656 189.199219 C 25.296875 189.558594 25.625 189.917969 25.941406 190.28125 C 26.414062 190.828125 26.972656 191.222656 27.664062 191.480469 C 28.167969 191.667969 28.636719 191.980469 29.085938 192.289062 C 29.234375 192.398438 29.40625 192.71875 29.351562 192.839844 C 29 193.589844 28.785156 194.445312 28.042969 194.941406 C 27.242188 195.472656 26.445312 196.019531 25.601562 196.464844 C 24.96875 196.800781 24.632812 197.195312 24.824219 197.921875 C 24.945312 198.390625 24.679688 198.628906 24.328125 198.851562 C 23.949219 199.089844 23.570312 199.28125 23.175781 198.953125 C 22.78125 198.632812 22.40625 198.277344 22.054688 197.90625 C 21.539062 197.371094 21.15625 197.226562 20.507812 197.542969 C 19.875 197.851562 19.253906 198.203125 18.6875 198.621094 C 18.332031 198.882812 18.078125 198.914062 17.757812 198.628906 C 17.589844 198.480469 17.410156 198.339844 17.210938 198.234375 C 16.382812 197.804688 15.558594 197.984375 15.160156 198.824219 C 14.746094 199.695312 14.117188 199.960938 13.214844 200.136719 C 11.507812 200.464844 10.183594 201.441406 9.621094 203.152344 C 9.371094 203.914062 9.09375 204.582031 8.429688 205.066406 C 8.074219 205.320312 7.832031 205.703125 7.921875 206.152344 C 8.058594 206.804688 8.019531 207.425781 7.820312 208.054688 C 7.761719 208.25 7.785156 208.515625 7.863281 208.714844 C 8.382812 210.015625 7.757812 211.09375 7.257812 212.214844 C 7.015625 212.765625 6.792969 213.335938 6.636719 213.917969 C 6.542969 214.289062 6.394531 214.539062 6.066406 214.75 C 4.695312 215.640625 3.34375 216.558594 1.992188 217.476562 C 1.617188 217.730469 1.4375 218.105469 1.53125 218.566406 C 1.632812 219.054688 1.976562 219.265625 2.441406 219.269531 C 2.925781 219.269531 3.277344 219.515625 3.667969 219.757812 C 4.351562 220.183594 4.847656 220.714844 5.171875 221.460938 C 5.316406 221.804688 5.605469 222.101562 5.878906 222.371094 C 6.277344 222.761719 6.382812 223.105469 6.0625 223.636719 C 5.625 224.347656 5.738281 224.78125 6.328125 225.351562 C 6.492188 225.507812 6.683594 225.636719 6.847656 225.789062 C 7.835938 226.710938 8.605469 227.738281 8.71875 229.171875 C 8.75 229.613281 9.0625 230.042969 9.292969 230.457031 C 9.449219 230.734375 9.699219 230.957031 9.886719 231.214844 C 10.871094 232.5625 11.417969 234.121094 11.976562 235.664062 C 12.074219 235.933594 11.988281 236.289062 11.929688 236.597656 C 11.855469 237.003906 11.671875 237.398438 11.632812 237.808594 C 11.589844 238.292969 11.546875 238.742188 11.273438 239.183594 C 10.984375 239.648438 11.132812 240.046875 11.613281 240.320312 C 11.863281 240.457031 12.167969 240.496094 12.417969 240.628906 C 12.664062 240.761719 12.992188 240.917969 13.066406 241.136719 C 13.320312 241.851562 13.84375 242.316406 14.355469 242.800781 C 14.894531 243.3125 15.253906 243.875 15.117188 244.679688 C 15.019531 245.238281 15.152344 245.753906 15.578125 246.195312 C 15.730469 246.351562 15.808594 246.644531 15.808594 246.875 C 15.8125 247.769531 16.183594 248.164062 17.066406 248.117188 C 17.34375 248.101562 17.617188 248.0625 17.960938 248.023438 C 18.03125 248.558594 18.007812 249.027344 18.167969 249.433594 C 18.449219 250.152344 18.253906 250.671875 17.71875 251.15625 C 17.1875 251.636719 17.160156 252.246094 17.460938 252.835938 C 17.660156 253.230469 17.972656 253.566406 18.273438 253.898438 C 18.5 254.152344 18.730469 254.382812 18.515625 254.738281 C 18.066406 255.476562 18.222656 256.308594 18.144531 257.101562 C 18.09375 257.589844 18.285156 258.007812 18.796875 258.160156 C 19.261719 258.300781 19.382812 258.644531 19.546875 259.058594 C 20.003906 260.214844 20.59375 261.34375 21.875 261.746094 C 22.992188 262.089844 23.835938 262.816406 24.75 263.464844 C 24.90625 263.574219 25.050781 263.710938 25.214844 263.8125 C 26.066406 264.363281 26.582031 264.238281 27.09375 263.355469 C 27.445312 262.75 27.609375 262.671875 28.265625 262.828125 C 28.546875 262.898438 28.824219 262.996094 29.09375 263.09375 C 29.546875 263.261719 29.972656 263.253906 30.378906 262.949219 C 30.527344 262.839844 30.699219 262.765625 30.847656 262.679688 C 31.214844 263.09375 31.214844 263.09375 31.191406 263.796875 C 31.171875 264.316406 31.339844 264.503906 31.761719 264.449219 C 32.199219 264.394531 32.640625 264.34375 33.078125 264.316406 C 33.445312 264.296875 33.738281 264.144531 33.792969 263.785156 C 33.882812 263.210938 34.257812 262.9375 34.699219 262.628906 C 35.726562 261.910156 35.878906 261.359375 35.554688 260.144531 C 35.5 259.925781 35.433594 259.707031 35.398438 259.484375 C 35.308594 258.863281 35.03125 258.398438 34.402344 258.183594 C 33.832031 257.984375 33.617188 257.539062 33.648438 256.964844 C 33.6875 256.164062 33.753906 255.359375 33.800781 254.554688 C 33.84375 253.863281 34.246094 253.375 34.816406 253.128906 C 35.5625 252.804688 36.148438 252.433594 36.453125 251.617188 C 36.65625 251.078125 37.121094 251.050781 37.527344 251.507812 C 37.847656 251.863281 38.0625 252.308594 38.34375 252.699219 C 38.609375 253.0625 38.855469 253.453125 39.183594 253.75 C 39.84375 254.351562 40.527344 254.347656 41.296875 253.875 C 41.59375 253.695312 41.933594 253.589844 42.261719 253.460938 C 42.554688 253.339844 42.90625 253.289062 43.144531 253.105469 C 43.574219 252.773438 43.96875 252.742188 44.492188 252.878906 C 45.253906 253.082031 45.914062 252.691406 46.117188 252.046875 C 46.371094 251.242188 46.671875 251.03125 47.417969 251.375 C 48.183594 251.734375 48.902344 251.9375 49.726562 251.609375 C 50.050781 251.484375 50.269531 251.675781 50.335938 252.035156 C 50.457031 252.738281 50.285156 253.066406 49.5625 253.441406 C 49.507812 253.472656 49.425781 253.488281 49.394531 253.535156 C 49.320312 253.660156 49.183594 253.820312 49.21875 253.929688 C 49.246094 254.035156 49.476562 254.183594 49.574219 254.15625 C 49.871094 254.070312 50.164062 253.933594 50.429688 253.773438 C 50.945312 253.460938 51.355469 253.546875 51.597656 254.09375 C 51.710938 254.355469 51.746094 254.652344 51.839844 254.925781 C 52.171875 255.921875 52.839844 256.328125 53.851562 256.109375 C 54.351562 256.003906 54.855469 255.867188 55.332031 255.667969 C 55.609375 255.550781 55.847656 255.3125 56.0625 255.082031 C 56.234375 254.898438 56.300781 254.609375 56.480469 254.4375 C 57.105469 253.859375 57.292969 253.226562 56.859375 252.453125 C 56.6875 252.148438 56.765625 251.828125 57.085938 251.726562 C 57.804688 251.5 58.042969 250.96875 58.058594 250.300781 C 58.894531 250.34375 59.003906 250.402344 58.898438 251.011719 C 58.734375 251.945312 59.140625 252.589844 59.835938 253.082031 C 60.25 253.375 60.726562 253.585938 61.199219 253.78125 C 61.816406 254.035156 62.394531 253.90625 62.921875 253.496094 C 63.125 253.339844 63.347656 253.136719 63.574219 253.109375 C 64.550781 252.992188 65.320312 252.519531 66.054688 251.90625 C 66.636719 251.417969 66.988281 251.476562 67.589844 251.996094 C 67.933594 252.285156 68.25 252.628906 68.636719 252.84375 C 69.140625 253.125 69.355469 253.542969 69.519531 254.050781 C 69.683594 254.570312 69.820312 255.136719 70.128906 255.558594 C 70.515625 256.085938 70.617188 256.558594 70.449219 257.175781 C 70.210938 258.058594 70.085938 258.9375 70.78125 259.738281 C 71.035156 260.035156 70.746094 260.449219 70.363281 260.3125 C 69.441406 259.984375 68.363281 260.152344 67.585938 259.347656 C 67.128906 258.875 66.738281 258.894531 66.191406 259.25 C 65.976562 259.390625 65.761719 259.554688 65.621094 259.761719 C 65.09375 260.539062 64.25 260.609375 63.484375 260.855469 C 63.382812 260.726562 63.308594 260.660156 63.273438 260.574219 C 62.734375 259.285156 62.421875 259.15625 61.167969 259.648438 C 60.914062 259.75 60.578125 259.835938 60.335938 259.757812 C 59.46875 259.460938 58.5 259.433594 57.773438 258.71875 C 57.332031 258.285156 56.742188 258.214844 56.160156 258.546875 C 55.40625 258.984375 54.949219 260.050781 55.167969 260.890625 C 55.269531 261.28125 55.453125 261.722656 55.871094 261.71875 C 56.734375 261.714844 57.289062 262.277344 57.949219 262.652344 C 59.144531 263.339844 59.148438 263.351562 60.078125 262.292969 C 60.347656 261.988281 60.613281 261.890625 61.007812 262.050781 C 61.539062 262.269531 62.085938 262.449219 62.636719 262.609375 C 63.3125 262.808594 63.695312 263.265625 63.691406 263.929688 C 63.6875 264.4375 63.476562 264.660156 62.976562 264.589844 C 62.628906 264.546875 62.296875 264.386719 61.953125 264.3125 C 61.40625 264.191406 60.949219 264.386719 60.804688 264.773438 C 60.652344 265.164062 60.835938 265.71875 61.296875 265.917969 C 62.097656 266.261719 62.941406 266.570312 63.792969 266.0625 C 64.207031 265.816406 64.621094 265.789062 65.089844 265.804688 C 65.988281 265.839844 66.894531 265.863281 67.78125 265.761719 C 68.25 265.707031 68.546875 265.773438 68.898438 266.085938 C 69.523438 266.636719 70.273438 266.890625 71.132812 266.742188 C 72.011719 266.589844 72.109375 266.65625 72.460938 267.445312 C 72.847656 268.335938 73.117188 268.453125 74.035156 268.0625 C 75.03125 267.632812 76.074219 267.433594 77.144531 267.457031 C 77.96875 267.472656 78.59375 267.242188 79.003906 266.511719 C 79.363281 265.875 79.988281 265.585938 80.628906 265.363281 C 81.523438 265.050781 82.101562 265.332031 82.511719 266.191406 C 82.660156 266.507812 82.789062 266.875 83.039062 267.09375 C 83.691406 267.667969 84.371094 268.222656 85.097656 268.695312 C 85.878906 269.195312 86.675781 268.949219 87.167969 268.148438 C 87.269531 267.984375 87.332031 267.796875 87.414062 267.621094 C 87.757812 266.875 87.859375 266.085938 87.898438 265.269531 C 87.929688 264.558594 88.25 264.347656 88.824219 264.679688 C 89.542969 265.09375 90.046875 264.925781 90.632812 264.402344 C 91.382812 263.738281 92.304688 263.832031 93.082031 264.480469 C 93.527344 264.851562 93.984375 265.21875 94.476562 265.519531 C 95.246094 265.988281 95.773438 265.867188 96.324219 265.160156 C 96.464844 264.984375 96.542969 264.734375 96.71875 264.617188 C 96.964844 264.449219 97.289062 264.242188 97.554688 264.273438 C 98.507812 264.398438 99.507812 264.472656 100.382812 264.828125 C 101.878906 265.441406 103.351562 265.277344 104.84375 265.007812 C 105.398438 264.90625 105.914062 264.863281 106.453125 265.050781 C 107.046875 265.257812 107.640625 265.25 108.25 265.015625 C 109.484375 264.539062 109.789062 264.621094 110.644531 265.691406 C 111.058594 266.210938 111.539062 266.511719 112.222656 266.4375 C 112.441406 266.410156 112.671875 266.453125 112.894531 266.453125 C 113.703125 266.453125 114.0625 266.167969 114.261719 265.375 C 114.335938 265.070312 114.402344 264.765625 114.464844 264.484375 C 115.484375 264.53125 116.414062 264.511719 117.328125 264.628906 Z M 23.65625 247.414062 C 23.582031 247.628906 23.480469 247.835938 23.449219 248.054688 C 23.335938 248.910156 23.898438 249.464844 24.722656 249.207031 C 25.480469 248.96875 26.101562 249.140625 26.742188 249.507812 C 27.519531 249.957031 27.636719 250.445312 27.109375 251.15625 C 26.917969 251.410156 26.695312 251.652344 26.535156 251.929688 C 26.1875 252.535156 26.347656 252.914062 27 253.085938 C 27.921875 253.335938 27.929688 253.335938 27.972656 254.285156 C 27.992188 254.734375 28 255.1875 27.976562 255.636719 C 27.945312 256.183594 27.808594 256.296875 27.253906 256.300781 C 26.964844 256.300781 26.671875 256.246094 26.386719 256.261719 C 25.773438 256.292969 25.542969 256.484375 25.585938 257.09375 C 25.632812 257.722656 25.453125 258.113281 24.902344 258.4375 C 24.558594 258.636719 24.34375 259.046875 24.050781 259.34375 C 23.480469 259.921875 21.980469 259.691406 21.609375 258.972656 C 21.429688 258.628906 21.597656 258.113281 21.992188 257.894531 C 22.15625 257.800781 22.355469 257.773438 22.542969 257.730469 C 23.367188 257.53125 23.46875 257.191406 22.867188 256.554688 C 22.578125 256.25 22.253906 255.984375 21.976562 255.667969 C 21.589844 255.21875 21.125 255.027344 20.527344 255.054688 C 20.1875 255.070312 19.8125 255.039062 19.503906 254.902344 C 19.089844 254.71875 19.105469 254.269531 19.53125 254.117188 C 19.847656 254.003906 20.214844 254.003906 20.5625 254.007812 C 21.4375 254.023438 21.742188 253.730469 21.675781 252.859375 C 21.648438 252.503906 21.542969 252.160156 21.53125 251.804688 C 21.515625 251.425781 21.488281 251.015625 21.609375 250.667969 C 21.871094 249.914062 21.921875 249.152344 21.820312 248.378906 C 21.742188 247.796875 21.824219 247.339844 22.34375 246.941406 C 22.675781 246.683594 22.859375 246.238281 23.109375 245.875 C 23.84375 246.464844 23.914062 246.65625 23.65625 247.414062 Z M 204.78125 139.839844 C 203.667969 139.691406 203.6875 139.648438 203.53125 140.722656 C 203.484375 141.046875 203.324219 141.355469 203.207031 141.699219 C 202.640625 141.503906 202.601562 141.097656 202.550781 140.730469 C 202.40625 139.640625 202.292969 138.554688 201.636719 137.609375 C 201.390625 137.253906 201.636719 137.019531 202 136.886719 C 203.179688 136.453125 203.179688 136.449219 203.1875 135.199219 C 203.1875 134.703125 203.183594 134.199219 203.703125 133.941406 C 204.1875 133.699219 204.652344 133.867188 205.074219 134.132812 C 205.484375 134.386719 205.917969 134.625 206.269531 134.945312 C 207.199219 135.789062 208.34375 135.96875 209.503906 135.964844 C 210.539062 135.960938 211.414062 136.292969 212.105469 136.980469 C 212.929688 137.804688 213.851562 137.867188 214.863281 137.585938 C 215.328125 137.457031 215.765625 137.242188 216.207031 137.039062 C 216.542969 136.882812 216.832031 136.917969 217.070312 137.207031 C 217.472656 137.699219 218.03125 138.125 217.933594 138.863281 C 217.898438 139.121094 217.757812 139.363281 217.628906 139.707031 C 217.300781 139.496094 217.089844 139.363281 216.878906 139.230469 C 216.117188 138.757812 215.441406 138.972656 215.089844 139.8125 C 214.972656 140.097656 214.960938 140.566406 214.554688 140.484375 C 214.21875 140.417969 213.753906 140.15625 213.660156 139.878906 C 213.160156 138.367188 211.9375 138.28125 210.6875 138.300781 C 210.058594 138.308594 209.546875 138.191406 209.125 137.726562 C 209.058594 137.65625 208.980469 137.597656 208.902344 137.542969 C 208.5 137.234375 208.121094 136.785156 207.542969 137.101562 C 207.140625 137.324219 206.945312 138.355469 207.1875 138.890625 C 207.332031 139.207031 207.535156 139.492188 207.859375 140.039062 C 206.679688 139.96875 205.722656 139.960938 204.78125 139.839844 Z M 312.148438 155.519531 C 312.378906 155.363281 312.609375 155.214844 312.832031 155.058594 C 313.5625 154.542969 313.566406 154.039062 312.851562 153.554688 C 312.078125 153.027344 312.089844 153.03125 312.433594 152.085938 C 312.640625 151.511719 312.800781 150.953125 313.324219 150.53125 C 313.988281 149.996094 314.722656 150.148438 315.449219 150.144531 C 315.578125 150.144531 315.785156 150.359375 315.824219 150.503906 C 315.863281 150.65625 315.769531 150.878906 315.664062 151.015625 C 315.578125 151.128906 315.390625 151.179688 315.242188 151.230469 C 314.75 151.40625 314.640625 151.734375 314.757812 152.226562 C 314.820312 152.480469 314.851562 152.832031 314.722656 153.03125 C 314.046875 154.078125 314.28125 155.054688 314.855469 156.027344 C 314.964844 156.214844 315.085938 156.398438 315.242188 156.652344 C 314.273438 156.992188 312.863281 156.457031 312.148438 155.519531 Z M 183.410156 130.699219 C 184.421875 130.652344 185.253906 131.179688 186.074219 131.671875 C 186.253906 131.78125 186.378906 132.101562 186.398438 132.328125 C 186.4375 132.859375 186.574219 133.3125 186.894531 133.75 C 187.175781 134.132812 186.964844 134.445312 186.492188 134.425781 C 185.855469 134.394531 185.214844 134.355469 184.582031 134.265625 C 183.980469 134.175781 183.46875 133.839844 183.257812 133.261719 C 182.867188 132.183594 182.269531 131.335938 181.148438 130.929688 C 181.902344 130.851562 182.652344 130.738281 183.410156 130.699219 Z M 321.046875 154.804688 C 320.761719 154.085938 320.332031 153.542969 319.5625 153.257812 C 318.851562 152.996094 318.835938 152.8125 319.226562 152.191406 C 319.363281 151.972656 319.480469 151.742188 319.632812 151.535156 C 319.925781 151.144531 320.261719 151.136719 320.589844 151.511719 C 320.675781 151.609375 320.742188 151.722656 320.789062 151.839844 C 321.027344 152.371094 321.425781 152.6875 321.96875 152.914062 C 322.644531 153.195312 322.734375 153.472656 322.433594 154.121094 C 322.210938 154.605469 322.046875 155.152344 321.386719 155.46875 C 321.242188 155.195312 321.125 155.007812 321.046875 154.804688 Z M 307.949219 152.335938 C 308.039062 152.363281 308.140625 152.417969 308.1875 152.488281 C 308.828125 153.476562 309.464844 154.46875 310.097656 155.457031 C 309.523438 155.859375 309.277344 155.902344 308.832031 155.457031 C 308.261719 154.894531 307.734375 154.28125 307.257812 153.636719 C 306.957031 153.230469 306.660156 152.902344 306.148438 152.789062 C 305.441406 152.632812 305.171875 152.039062 304.757812 151.382812 C 305.949219 151.742188 306.953125 152.035156 307.949219 152.335938 Z M 218.957031 129.824219 C 218.660156 130.09375 218.285156 130.34375 218.042969 130.683594 C 217.816406 130.996094 217.730469 131.402344 217.574219 131.804688 C 217.066406 131.578125 217.121094 131.164062 216.976562 130.867188 C 216.863281 130.640625 216.753906 130.40625 216.65625 130.171875 C 216.070312 128.753906 216.070312 128.753906 217.308594 127.707031 C 217.863281 128.421875 218.382812 129.085938 218.957031 129.824219 Z M 262.113281 259.503906 C 262 259.320312 261.90625 259.101562 261.875 258.886719 C 261.816406 258.480469 262.0625 258.21875 262.433594 258.355469 C 263.207031 258.640625 263.964844 258.980469 264.710938 259.332031 C 264.902344 259.421875 265.070312 259.609375 265.191406 259.792969 C 265.445312 260.171875 265.289062 260.464844 264.8125 260.5 C 264.589844 260.511719 264.363281 260.480469 264.007812 260.464844 C 263.234375 260.636719 262.578125 260.261719 262.113281 259.503906 Z M 45.132812 173.683594 C 44.929688 173.78125 44.703125 173.835938 44.511719 173.945312 C 43.855469 174.316406 43.726562 174.726562 43.964844 175.449219 C 44.023438 175.632812 44 175.875 43.933594 176.054688 C 43.910156 176.125 43.597656 176.183594 43.511719 176.117188 C 43.355469 176 43.140625 175.753906 43.175781 175.617188 C 43.300781 175.089844 43.019531 174.785156 42.742188 174.414062 C 42.324219 173.851562 42.535156 173.15625 43.183594 173.046875 C 43.925781 172.925781 44.695312 172.941406 45.414062 172.902344 C 45.617188 173.351562 45.410156 173.542969 45.132812 173.683594 Z M 336.882812 162.464844 C 336.828125 162.578125 336.757812 162.695312 336.671875 162.785156 C 336.386719 163.097656 336.058594 163.457031 335.605469 163.21875 C 335.136719 162.972656 335.386719 162.523438 335.503906 162.183594 C 335.660156 161.730469 335.886719 161.296875 336.101562 160.867188 C 336.460938 160.148438 336.644531 160.085938 337.367188 160.417969 C 337.484375 160.46875 337.585938 160.554688 337.683594 160.636719 C 337.722656 160.671875 337.734375 160.75 337.707031 160.6875 C 337.40625 161.335938 337.148438 161.902344 336.882812 162.464844 Z M 322.421875 157.21875 C 322.875 157.382812 323.335938 157.554688 323.730469 157.820312 C 324.359375 158.253906 325.003906 158.535156 325.789062 158.46875 C 326.074219 158.445312 326.375 158.570312 326.273438 159.109375 C 326.035156 159.054688 325.773438 159.0625 325.589844 158.941406 C 325.191406 158.675781 324.835938 158.671875 324.429688 158.917969 C 323.789062 159.304688 323.203125 159.195312 322.683594 158.667969 C 322.273438 158.246094 321.746094 157.910156 321.492188 157.355469 C 321.535156 157.269531 321.578125 157.183594 321.617188 157.097656 C 321.890625 157.140625 322.175781 157.128906 322.421875 157.21875 Z M 315.949219 154.386719 C 315.773438 153.945312 315.648438 153.484375 315.558594 153.019531 C 315.519531 152.835938 315.578125 152.53125 315.699219 152.449219 C 315.835938 152.355469 316.175781 152.363281 316.296875 152.472656 C 316.675781 152.816406 317.046875 153.195312 317.320312 153.621094 C 317.648438 154.132812 317.105469 154.960938 316.347656 154.941406 C 316.25 154.8125 316.035156 154.625 315.949219 154.386719 Z M 200.460938 153.257812 C 200.929688 153.25 201.316406 153.574219 201.320312 153.976562 C 201.324219 154.402344 200.617188 155.09375 200.160156 155.113281 C 199.730469 155.128906 199.425781 154.734375 199.433594 154.167969 C 199.4375 153.640625 199.859375 153.265625 200.460938 153.257812 Z M 310.59375 151.167969 C 310.078125 152.164062 309.984375 152.214844 309.101562 151.855469 C 309.28125 151.519531 309.484375 151.210938 309.625 150.871094 C 309.773438 150.527344 309.859375 150.160156 310.003906 149.710938 C 310.863281 150.265625 310.9375 150.5 310.59375 151.167969 Z M 315.535156 143.839844 C 316.269531 143.21875 317.113281 143.347656 317.855469 143.179688 C 318.015625 143.144531 318.238281 143.394531 318.433594 143.511719 C 318.398438 143.613281 318.367188 143.71875 318.332031 143.820312 C 317.453125 144.035156 316.582031 144.464844 315.535156 143.839844 Z M 343.007812 175.128906 C 342.808594 174.441406 342.894531 174.089844 343.257812 173.898438 C 343.679688 173.683594 344.125 173.917969 344.628906 174.746094 C 344.011719 174.890625 343.511719 175.011719 343.007812 175.128906 Z M 191.675781 139.675781 C 191.320312 139.789062 191.03125 139.738281 190.972656 139.304688 C 190.925781 138.960938 191.226562 138.59375 191.589844 138.597656 C 192.039062 138.597656 192.457031 138.71875 192.757812 139.335938 C 192.328125 139.472656 192.003906 139.574219 191.675781 139.675781 Z M 175.15625 129.640625 C 175.320312 129.773438 175.445312 130.078125 175.417969 130.277344 C 175.367188 130.617188 175.042969 130.75 174.742188 130.613281 C 174.382812 130.449219 174.066406 130.191406 173.699219 129.949219 C 174.289062 129.457031 174.796875 129.34375 175.15625 129.640625 Z M 295.917969 248.078125 C 295.925781 248.425781 295.558594 248.910156 295.261719 248.914062 C 294.898438 248.917969 294.78125 248.65625 294.746094 248.351562 C 294.699219 247.902344 294.996094 247.367188 295.289062 247.351562 C 295.570312 247.339844 295.910156 247.730469 295.917969 248.078125 Z M 166.027344 127.589844 C 165.863281 127.746094 165.742188 127.960938 165.617188 127.964844 C 165.09375 127.96875 164.574219 127.90625 164.054688 127.871094 C 164.058594 127.769531 164.0625 127.671875 164.066406 127.574219 C 164.683594 127.25 165.296875 127.054688 166.027344 127.589844 Z M 313.398438 144.476562 C 313.382812 144.207031 313.300781 143.972656 313.378906 143.890625 C 313.777344 143.484375 314.265625 143.554688 314.765625 143.855469 C 314.34375 144.046875 313.921875 144.242188 313.398438 144.476562 Z M 358.878906 206.320312 C 358.421875 206.871094 358.058594 206.578125 357.722656 206.582031 C 357.71875 206.492188 357.710938 206.40625 357.707031 206.320312 C 358.042969 206.320312 358.382812 206.320312 358.878906 206.320312 Z M 326.332031 169.839844 C 326.320312 169.835938 326.34375 169.679688 326.359375 169.679688 C 326.539062 169.667969 326.71875 169.671875 326.898438 169.671875 C 326.878906 169.789062 326.859375 169.902344 326.839844 170.019531 C 326.667969 169.960938 326.496094 169.90625 326.332031 169.839844 Z M 192.609375 133.585938 C 192.605469 133.535156 192.734375 133.472656 192.804688 133.414062 C 192.890625 133.53125 193.011719 133.636719 193.050781 133.765625 C 193.066406 133.820312 192.917969 133.929688 192.761719 134.101562 C 192.683594 133.859375 192.617188 133.722656 192.609375 133.585938 Z M 208.726562 140.84375 C 208.730469 140.871094 208.535156 140.988281 208.527344 140.976562 C 208.433594 140.871094 208.351562 140.75 208.289062 140.621094 C 208.28125 140.601562 208.410156 140.519531 208.53125 140.417969 C 208.613281 140.585938 208.691406 140.710938 208.726562 140.84375 Z M 150.933594 111.921875 C 151.128906 111.921875 151.320312 111.914062 151.515625 111.921875 C 152.628906 111.972656 152.871094 112.289062 152.765625 113.425781 C 152.734375 113.722656 152.773438 114.109375 152.945312 114.332031 C 153.445312 114.980469 154.101562 115.480469 154.953125 115.550781 C 156.144531 115.652344 157.285156 115.847656 158.390625 116.375 C 159.023438 116.675781 159.480469 117.011719 159.746094 117.640625 C 159.835938 117.84375 159.925781 118.058594 160.054688 118.238281 C 160.511719 118.875 161.738281 118.933594 162.179688 118.300781 C 162.503906 117.835938 162.792969 117.3125 162.957031 116.769531 C 163.105469 116.273438 163.339844 116.054688 163.835938 116.085938 C 164.539062 116.128906 165.246094 116.195312 165.953125 116.21875 C 166.910156 116.246094 167.222656 115.898438 166.96875 114.988281 C 166.832031 114.496094 166.949219 114.152344 167.152344 113.71875 C 167.347656 113.308594 167.421875 112.789062 167.386719 112.328125 C 167.335938 111.582031 166.867188 111.414062 166.265625 111.851562 C 165.574219 112.347656 165.589844 112.324219 164.847656 111.851562 C 164.507812 111.636719 164.09375 111.410156 163.714844 111.414062 C 162.808594 111.433594 162 111.113281 161.199219 110.800781 C 159.980469 110.332031 159.195312 110.738281 158.796875 112 C 158.589844 112.660156 158.238281 113.300781 157.820312 113.851562 C 157.292969 114.554688 156.757812 114.449219 156.363281 113.664062 C 156.25 113.433594 156.117188 113.199219 156.058594 112.953125 C 155.882812 112.230469 155.4375 111.714844 154.945312 111.179688 C 153.917969 110.0625 152.984375 108.871094 152.605469 107.339844 C 152.53125 107.035156 152.390625 106.722656 152.207031 106.472656 C 151.648438 105.71875 150.785156 105.734375 150.300781 106.53125 C 149.839844 107.28125 149.53125 108.109375 149.582031 109.003906 C 149.617188 109.578125 149.542969 110.058594 149.210938 110.550781 C 148.816406 111.132812 149.011719 111.597656 149.695312 111.8125 C 150.085938 111.9375 150.511719 111.941406 150.921875 112.003906 C 150.929688 111.976562 150.929688 111.949219 150.933594 111.921875 Z M 39.207031 265.074219 C 39.738281 265.339844 40.144531 265.054688 40.453125 264.640625 C 40.8125 264.160156 41.269531 264.183594 41.757812 264.335938 C 42.554688 264.585938 43.320312 264.699219 44.0625 264.148438 C 44.4375 263.871094 44.6875 264.136719 44.957031 264.414062 C 45.683594 265.171875 46.082031 265.15625 46.800781 264.410156 C 46.890625 264.320312 46.96875 264.214844 47.066406 264.125 C 47.558594 263.667969 47.828125 263.648438 48.117188 264.226562 C 48.625 265.230469 49.539062 265.785156 50.351562 266.453125 C 50.742188 266.773438 51.195312 266.820312 51.609375 266.527344 C 52.136719 266.15625 52.640625 265.761719 53.128906 265.339844 C 53.75 264.804688 53.796875 264.105469 53.519531 263.394531 C 53.378906 263.039062 53.109375 262.738281 52.921875 262.402344 C 52.644531 261.902344 52.320312 261.417969 52.136719 260.886719 C 51.945312 260.335938 51.640625 260.007812 51.082031 259.878906 C 50.707031 259.796875 50.332031 259.699219 49.964844 259.578125 C 48.847656 259.203125 48.445312 259.328125 47.714844 260.253906 C 47.566406 260.449219 47.351562 260.722656 47.152344 260.730469 C 46.269531 260.777344 45.359375 260.941406 44.613281 260.179688 C 44 259.554688 43.765625 259.605469 42.996094 260.019531 C 41.882812 260.625 40.953125 261.449219 40.046875 262.324219 C 39.882812 262.480469 39.613281 262.554688 39.378906 262.601562 C 38.703125 262.734375 38.453125 263.011719 38.449219 263.710938 C 38.453125 264.304688 38.664062 264.804688 39.207031 265.074219 Z M 70.035156 126.199219 C 70.640625 126.601562 70.824219 126.566406 71.203125 125.996094 C 71.398438 125.707031 71.570312 125.375 71.828125 125.152344 C 72.394531 124.660156 72.164062 123.8125 71.410156 123.542969 C 71.167969 123.457031 70.90625 123.441406 70.65625 123.382812 C 69.945312 123.210938 69.484375 122.796875 69.300781 122.058594 C 69.558594 121.855469 69.8125 121.707031 70 121.496094 C 70.21875 121.25 70.234375 120.910156 69.941406 120.738281 C 69.773438 120.640625 69.476562 120.714844 69.25 120.769531 C 69.148438 120.789062 69.0625 120.9375 68.996094 121.046875 C 68.761719 121.460938 68.414062 121.519531 68.003906 121.378906 C 66.96875 121.027344 66.210938 121.238281 65.703125 122.304688 C 65.394531 122.949219 65.191406 122.929688 64.570312 122.527344 C 63.96875 122.132812 63.640625 122.171875 63.140625 122.683594 C 62.351562 123.496094 62.328125 124.601562 63.167969 125.332031 C 63.734375 125.824219 64.097656 126.363281 64.234375 127.101562 C 64.378906 127.851562 64.859375 128.28125 65.632812 128.347656 C 65.890625 128.371094 66.144531 128.417969 66.402344 128.414062 C 67.679688 128.402344 68.644531 127.703125 69.078125 126.519531 C 69.160156 126.296875 69.320312 126.105469 69.46875 125.863281 C 69.714844 126.007812 69.878906 126.097656 70.035156 126.199219 Z M 194.425781 123.960938 C 195.300781 123.785156 196.183594 123.628906 197.050781 123.414062 C 197.535156 123.292969 197.628906 122.796875 197.261719 122.433594 C 197.105469 122.28125 196.902344 122.160156 196.695312 122.078125 C 195.949219 121.78125 195.195312 121.507812 194.449219 121.21875 C 193.976562 121.039062 193.507812 121.023438 193.042969 121.234375 C 192.488281 121.488281 191.917969 121.476562 191.347656 121.304688 C 190.882812 121.167969 190.429688 120.988281 189.960938 120.902344 C 189.335938 120.792969 188.6875 120.648438 188.0625 120.703125 C 186.878906 120.800781 186.730469 121.128906 187.183594 122.238281 C 187.199219 122.265625 187.210938 122.292969 187.222656 122.324219 C 187.75 123.984375 188.433594 124.097656 190.007812 124.039062 C 191.476562 123.988281 192.941406 123.859375 194.40625 123.769531 C 194.414062 123.832031 194.417969 123.898438 194.425781 123.960938 Z M 126.820312 121.761719 C 125.996094 122.292969 125.382812 123.039062 124.957031 123.917969 C 124.785156 124.273438 124.921875 124.636719 125.265625 124.835938 C 125.5625 125.011719 125.917969 125.230469 126.234375 125.210938 C 127.011719 125.167969 127.667969 125.421875 128.335938 125.773438 C 128.851562 126.046875 129.261719 125.898438 129.566406 125.410156 C 129.683594 125.222656 129.761719 125.003906 129.8125 124.785156 C 129.933594 124.238281 130.234375 123.898438 130.78125 123.699219 C 131.195312 123.554688 131.570312 123.28125 131.929688 123.019531 C 132.535156 122.582031 132.5 122.148438 131.847656 121.785156 C 131.234375 121.441406 130.652344 121.59375 130.144531 122 C 129.734375 122.324219 129.394531 122.355469 128.929688 122.09375 C 128.492188 121.847656 127.976562 121.734375 127.53125 121.578125 C 127.25 121.648438 127 121.648438 126.820312 121.761719 Z M 342.183594 142.601562 C 342.503906 142.582031 342.832031 142.601562 343.140625 142.53125 C 344.058594 142.3125 344.605469 141.257812 344.359375 140.226562 C 344.179688 139.480469 343.617188 139.179688 342.585938 139.453125 C 341.261719 139.8125 339.960938 140.269531 338.65625 140.699219 C 338.296875 140.8125 338.289062 141.089844 338.40625 141.402344 C 338.804688 142.488281 339.714844 142.964844 340.863281 142.707031 C 341.296875 142.609375 341.738281 142.558594 342.175781 142.484375 C 342.175781 142.527344 342.183594 142.5625 342.183594 142.601562 Z M 167.628906 116.878906 C 167.644531 117.617188 167.683594 118.339844 167.429688 119.070312 C 167.25 119.59375 167.542969 120.128906 167.941406 120.296875 C 168.402344 120.492188 168.96875 120.3125 169.269531 119.796875 C 169.476562 119.4375 169.609375 119.035156 169.742188 118.636719 C 169.886719 118.203125 169.988281 117.742188 170.53125 117.644531 C 171.082031 117.542969 171.339844 117.9375 171.578125 118.332031 C 171.613281 118.386719 171.640625 118.445312 171.679688 118.496094 C 171.886719 118.785156 172.082031 119.128906 172.523438 118.933594 C 172.804688 118.8125 172.902344 118.261719 172.703125 117.886719 C 172.597656 117.695312 172.425781 117.53125 172.265625 117.382812 C 172.007812 117.144531 171.695312 116.953125 171.460938 116.695312 C 170.78125 115.953125 169.929688 115.652344 169.371094 115.644531 C 168.039062 115.59375 167.613281 115.964844 167.628906 116.878906 Z M 271.695312 262.296875 C 272.058594 262.464844 272.386719 262.339844 272.675781 262.09375 C 272.828125 261.972656 272.96875 261.839844 273.097656 261.695312 C 273.617188 261.105469 274.175781 260.609375 275.007812 260.480469 C 275.453125 260.410156 275.722656 260.066406 275.785156 259.601562 C 275.867188 259.007812 275.585938 258.515625 274.976562 258.191406 C 274.179688 257.769531 273.714844 257.78125 273.21875 258.269531 C 272.847656 258.628906 272.484375 258.996094 272.132812 259.375 C 271.617188 259.929688 271.320312 260.601562 271.164062 261.246094 C 271.160156 261.757812 271.296875 262.109375 271.695312 262.296875 Z M 192.054688 114.414062 C 192.417969 115.339844 192.773438 116.265625 193.117188 117.195312 C 193.359375 117.851562 193.867188 118.246094 194.472656 118.484375 C 195.234375 118.78125 195.769531 118.304688 195.609375 117.511719 C 195.554688 117.230469 195.425781 116.960938 195.308594 116.699219 C 194.992188 115.988281 194.691406 115.296875 194.917969 114.472656 C 195.054688 113.984375 194.722656 113.671875 194.277344 113.550781 C 193.84375 113.433594 193.390625 113.390625 193.082031 113.335938 C 192.0625 113.296875 191.761719 113.664062 192.054688 114.414062 Z M 162.484375 107.726562 C 161.96875 107.933594 161.878906 108.363281 162.160156 108.839844 C 162.457031 109.328125 162.929688 109.46875 163.464844 109.550781 C 164.097656 109.652344 164.734375 109.773438 165.339844 109.964844 C 166.128906 110.214844 166.460938 110.121094 166.8125 109.386719 C 167.148438 108.6875 167.09375 108.015625 166.625 107.386719 C 166.195312 106.8125 165.792969 106.691406 165.234375 107.113281 C 164.789062 107.449219 164.34375 107.613281 163.652344 107.46875 C 163.351562 107.53125 162.890625 107.5625 162.484375 107.726562 Z M 171.015625 123.4375 C 171.28125 124.421875 171.96875 124.652344 172.773438 124.027344 C 172.898438 123.929688 173.023438 123.828125 173.164062 123.75 C 174.527344 122.988281 174.527344 122.992188 174.179688 121.433594 C 174.132812 121.214844 174.109375 120.984375 174.019531 120.785156 C 173.828125 120.355469 173.390625 120.167969 172.984375 120.382812 C 172.738281 120.507812 172.539062 120.734375 172.351562 120.945312 C 171.996094 121.351562 171.652344 121.769531 171.335938 122.207031 C 171.152344 122.453125 171.035156 122.746094 170.925781 122.949219 C 170.972656 123.183594 170.980469 123.3125 171.015625 123.4375 Z M 336.476562 157.1875 C 336.878906 157.09375 337.300781 157.042969 337.675781 156.882812 C 338.078125 156.714844 338.441406 156.640625 338.882812 156.753906 C 339.535156 156.921875 339.917969 156.695312 340.015625 156.207031 C 340.121094 155.699219 339.789062 155.300781 339.136719 155.164062 C 338.480469 155.023438 337.847656 155.117188 337.25 155.390625 C 336.722656 155.632812 336.203125 155.667969 335.65625 155.480469 C 335.472656 155.414062 335.285156 155.359375 335.09375 155.335938 C 334.527344 155.265625 334.058594 155.550781 333.972656 156.011719 C 333.886719 156.476562 334.222656 156.886719 334.824219 156.972656 C 335.363281 157.050781 335.914062 157.070312 336.457031 157.113281 C 336.464844 157.136719 336.472656 157.164062 336.476562 157.1875 Z M 348.289062 159.824219 C 348.59375 159.875 348.949219 159.828125 349.238281 159.710938 C 350.261719 159.292969 351.289062 158.988281 352.421875 159.046875 C 352.972656 159.078125 353.296875 158.796875 353.277344 158.472656 C 353.257812 158.109375 352.902344 158.003906 352.238281 158.136719 C 351.894531 158.207031 351.5 158.359375 351.207031 158.257812 C 350.132812 157.886719 349.027344 158.105469 347.945312 157.984375 C 347.019531 157.882812 346.335938 158.273438 345.9375 159.308594 C 346.792969 159.503906 347.535156 159.703125 348.289062 159.824219 Z M 194.21875 110.027344 C 195.003906 110.050781 195.683594 109.332031 195.710938 108.441406 C 195.742188 107.417969 195.234375 106.8125 194.277344 106.746094 C 193.367188 106.679688 192.871094 107.113281 192.828125 108.019531 C 192.773438 109.101562 193.394531 110 194.21875 110.027344 Z M 347.214844 164.574219 C 347.796875 164.160156 347.679688 163.492188 347.019531 163.214844 C 346.769531 163.109375 346.449219 163.085938 346.183594 163.140625 C 345.683594 163.246094 345.191406 163.410156 344.714844 163.601562 C 344.4375 163.714844 344.203125 163.929688 343.949219 164.097656 C 344.15625 164.402344 344.3125 164.765625 344.582031 165 C 344.808594 165.195312 345.15625 165.246094 345.589844 165.410156 C 346.101562 165.15625 346.714844 164.941406 347.214844 164.574219 Z M 348.527344 142.121094 C 348.640625 141.992188 348.660156 141.597656 348.558594 141.511719 C 348.027344 141.058594 347.484375 140.597656 346.871094 140.28125 C 346.453125 140.066406 345.90625 140.464844 345.730469 140.9375 C 345.554688 141.402344 345.714844 141.773438 346.257812 142.015625 C 346.726562 142.226562 347.222656 142.375 347.8125 142.589844 C 348.027344 142.453125 348.335938 142.339844 348.527344 142.121094 Z M 336.441406 148.007812 C 336.308594 148.035156 336.164062 148.242188 336.117188 148.394531 C 336.097656 148.46875 336.316406 148.710938 336.398438 148.699219 C 337.164062 148.589844 337.558594 149.105469 338.003906 149.566406 C 338.296875 149.867188 338.660156 149.960938 339.042969 149.6875 C 339.429688 149.410156 339.65625 148.824219 339.539062 148.410156 C 339.402344 147.949219 338.984375 147.679688 338.421875 147.726562 C 337.757812 147.816406 337.097656 147.886719 336.441406 148.007812 Z M 241.453125 115.738281 C 240.617188 115.898438 240.398438 116.480469 240.953125 117.136719 C 241.199219 117.429688 241.484375 117.707031 241.800781 117.914062 C 242.289062 118.234375 242.746094 118.101562 243.023438 117.59375 C 243.253906 117.183594 243.367188 116.738281 243.089844 116.308594 C 242.800781 115.867188 242.351562 115.703125 241.769531 115.703125 C 241.710938 115.714844 241.578125 115.714844 241.453125 115.738281 Z M 346.605469 149.0625 C 345.964844 148.921875 345.328125 148.746094 344.683594 148.660156 C 344.421875 148.625 344.109375 148.734375 343.863281 148.863281 C 343.222656 149.195312 343.152344 149.878906 343.683594 150.363281 C 344.054688 150.699219 344.503906 150.769531 344.925781 150.507812 C 345.503906 150.148438 346.042969 149.71875 346.605469 149.316406 C 346.601562 149.230469 346.605469 149.148438 346.605469 149.0625 Z M 202.042969 125.757812 C 202.5 125.851562 202.75 125.511719 202.988281 125.222656 C 203.144531 125.03125 203.21875 124.765625 203.304688 124.527344 C 203.425781 124.195312 203.390625 123.882812 203.082031 123.667969 C 202.746094 123.433594 202.375 123.328125 202 123.558594 C 201.585938 123.804688 201.359375 124.175781 201.363281 124.570312 C 201.378906 125.128906 201.707031 125.6875 202.042969 125.757812 Z M 195.433594 259.097656 C 195.148438 259.125 194.839844 259.097656 194.582031 259.199219 C 194.417969 259.261719 194.230469 259.527344 194.242188 259.691406 C 194.25 259.835938 194.535156 260.101562 194.664062 260.085938 C 195.554688 259.96875 196.441406 259.816406 197.3125 259.605469 C 197.476562 259.566406 197.574219 259.234375 197.703125 259.039062 C 197.480469 258.972656 197.25 258.832031 197.042969 258.859375 C 196.507812 258.9375 195.984375 259.089844 195.460938 259.210938 C 195.449219 259.171875 195.441406 259.132812 195.433594 259.097656 Z M 186.808594 112.226562 C 186.863281 111.804688 186.570312 111.582031 186.265625 111.390625 C 186.128906 111.304688 185.980469 111.230469 185.832031 111.183594 C 185.289062 111.015625 184.804688 111.183594 184.679688 111.574219 C 184.546875 112 184.867188 112.503906 185.398438 112.671875 C 185.550781 112.71875 185.710938 112.726562 185.792969 112.742188 C 186.386719 112.742188 186.769531 112.542969 186.808594 112.226562 Z M 15.414062 252.578125 C 14.953125 252.546875 14.613281 252.855469 14.585938 253.320312 C 14.554688 253.894531 15.027344 254.441406 15.550781 254.433594 C 15.976562 254.425781 16.324219 254.066406 16.339844 253.621094 C 16.359375 253.09375 15.929688 252.609375 15.414062 252.578125 Z M 44.640625 127.472656 C 44.640625 126.992188 44.253906 126.601562 43.808594 126.625 C 43.367188 126.648438 43.023438 127.035156 43 127.53125 C 42.976562 128.050781 43.300781 128.425781 43.769531 128.429688 C 44.226562 128.429688 44.640625 127.972656 44.640625 127.472656 Z M 55.949219 125.480469 C 55.613281 125.464844 55.398438 125.714844 55.480469 126.042969 C 55.523438 126.207031 55.792969 126.445312 55.917969 126.425781 C 56.140625 126.386719 56.335938 126.171875 56.722656 125.910156 C 56.335938 125.6875 56.148438 125.496094 55.949219 125.480469 Z M 189.703125 113.40625 C 189.667969 113.488281 189.730469 113.703125 189.796875 113.730469 C 190.226562 113.898438 190.433594 113.625 190.589844 113.28125 C 190.601562 113.253906 190.585938 113.21875 190.578125 113.074219 C 190.164062 112.929688 189.867188 113.019531 189.703125 113.40625 Z M 117.316406 124.460938 C 117.164062 124.5 116.96875 124.761719 116.980469 124.914062 C 116.992188 125.050781 117.253906 125.269531 117.402344 125.265625 C 117.546875 125.257812 117.683594 125.019531 117.925781 124.792969 C 117.644531 124.628906 117.449219 124.425781 117.316406 124.460938 Z M 11.378906 241.78125 C 11.242188 241.773438 11.089844 241.960938 10.945312 242.058594 C 11.066406 242.183594 11.175781 242.394531 11.308594 242.414062 C 11.488281 242.441406 11.683594 242.3125 12.085938 242.183594 C 11.722656 241.964844 11.554688 241.796875 11.378906 241.78125 Z M 192.09375 259.796875 C 191.804688 259.773438 191.597656 259.964844 191.664062 260.261719 C 191.691406 260.382812 191.933594 260.5625 192.046875 260.539062 C 192.21875 260.507812 192.367188 260.324219 192.605469 260.140625 C 192.371094 259.972656 192.238281 259.808594 192.09375 259.796875 Z M 43.152344 134.101562 C 43.179688 134.246094 43.367188 134.355469 43.484375 134.484375 C 43.59375 134.363281 43.808594 134.230469 43.796875 134.125 C 43.777344 133.953125 43.609375 133.796875 43.425781 133.515625 C 43.28125 133.808594 43.128906 133.96875 43.152344 134.101562 Z M 45.453125 136.683594 C 45.300781 136.726562 45.179688 136.878906 45.046875 136.988281 C 45.140625 137.09375 45.242188 137.285156 45.328125 137.28125 C 45.476562 137.269531 45.613281 137.132812 45.847656 136.996094 C 45.660156 136.839844 45.527344 136.660156 45.453125 136.683594 Z M 343.214844 152.042969 C 342.894531 152.042969 342.691406 152.042969 342.488281 152.042969 C 342.695312 152.503906 342.90625 152.480469 343.214844 152.042969 Z M 344.964844 152.199219 C 345.195312 152.1875 345.421875 152.175781 345.648438 152.164062 C 345.648438 152.101562 345.644531 152.039062 345.640625 151.976562 C 345.414062 151.976562 345.183594 151.976562 344.957031 151.976562 C 344.960938 152.054688 344.960938 152.125 344.964844 152.199219 Z M 371.425781 178.773438 C 371.339844 178.84375 371.257812 178.9375 371.222656 179.035156 C 371.210938 179.070312 371.363281 179.214844 371.402344 179.203125 C 371.5 179.164062 371.574219 179.066406 371.691406 178.960938 C 371.5625 178.871094 371.445312 178.761719 371.425781 178.773438 Z M 367.777344 211.996094 C 367.792969 212.070312 367.878906 212.121094 367.9375 212.183594 C 367.992188 212.097656 368.070312 212.023438 368.09375 211.933594 C 368.101562 211.898438 367.980469 211.832031 367.890625 211.757812 C 367.835938 211.859375 367.765625 211.9375 367.777344 211.996094 Z M 171.035156 108.855469 C 170.964844 108.835938 170.886719 108.839844 170.8125 108.835938 C 170.8125 108.890625 170.796875 108.980469 170.820312 108.992188 C 170.882812 109.027344 170.960938 109.027344 171.039062 109.042969 C 171.039062 108.957031 171.050781 108.859375 171.035156 108.855469 Z M 264.816406 260.5 C 265.289062 260.464844 265.449219 260.175781 265.191406 259.792969 C 265.070312 259.609375 264.902344 259.421875 264.714844 259.332031 C 263.964844 258.980469 263.207031 258.640625 262.433594 258.355469 C 262.066406 258.21875 261.816406 258.480469 261.875 258.886719 C 261.90625 259.101562 262 259.320312 262.117188 259.503906 C 262.582031 260.257812 263.238281 260.632812 264.011719 260.460938 C 264.367188 260.480469 264.59375 260.511719 264.816406 260.5 Z M 43.179688 173.046875 C 42.535156 173.15625 42.320312 173.851562 42.742188 174.414062 C 43.019531 174.785156 43.300781 175.089844 43.175781 175.613281 C 43.140625 175.753906 43.355469 175.996094 43.511719 176.117188 C 43.59375 176.179688 43.90625 176.125 43.933594 176.054688 C 44 175.871094 44.023438 175.632812 43.960938 175.449219 C 43.726562 174.726562 43.855469 174.3125 44.507812 173.945312 C 44.703125 173.835938 44.929688 173.78125 45.128906 173.679688 C 45.410156 173.539062 45.617188 173.351562 45.410156 172.898438 C 44.695312 172.941406 43.925781 172.921875 43.179688 173.046875 Z M 317.320312 153.621094 C 317.046875 153.195312 316.675781 152.816406 316.296875 152.472656 C 316.175781 152.363281 315.835938 152.355469 315.699219 152.449219 C 315.578125 152.53125 315.519531 152.835938 315.558594 153.019531 C 315.648438 153.484375 315.773438 153.945312 315.949219 154.386719 C 316.035156 154.625 316.25 154.8125 316.347656 154.941406 C 317.105469 154.960938 317.648438 154.132812 317.320312 153.621094 Z M 294.746094 248.351562 C 294.78125 248.65625 294.898438 248.921875 295.261719 248.917969 C 295.558594 248.914062 295.925781 248.425781 295.917969 248.082031 C 295.910156 247.734375 295.574219 247.34375 295.289062 247.355469 C 294.996094 247.367188 294.699219 247.90625 294.746094 248.351562 Z M 357.722656 206.582031 C 358.058594 206.578125 358.421875 206.871094 358.878906 206.320312 C 358.382812 206.320312 358.042969 206.320312 357.707031 206.320312 C 357.710938 206.40625 357.71875 206.496094 357.722656 206.582031 Z M 208.289062 140.621094 C 208.351562 140.75 208.4375 140.871094 208.53125 140.980469 C 208.535156 140.988281 208.734375 140.871094 208.726562 140.847656 C 208.691406 140.714844 208.617188 140.589844 208.535156 140.421875 C 208.414062 140.519531 208.28125 140.605469 208.289062 140.621094 Z M 208.289062 140.621094" fill-rule="evenodd"/></g><g fill="#FFF"><g><g><path d="M 36.015625 -22.066406 L 44.097656 -68.222656 C 44.300781 -69.378906 44.265625 -70.496094 44.117188 -71.351562 C 43.464844 -75.089844 40.3125 -76.625 37.277344 -76.097656 C 34.394531 -75.59375 31.777344 -73.132812 31.066406 -68.921875 L 23.542969 -25.992188 C 22.355469 -19.449219 17.824219 -13.6875 13.621094 -12.957031 C 11.832031 -12.644531 10.605469 -13.714844 10.292969 -15.503906 C 10.171875 -16.203125 10.113281 -16.996094 10.273438 -17.90625 L 18.179688 -63.710938 C 18.378906 -64.867188 18.359375 -65.90625 18.210938 -66.761719 C 17.558594 -70.5 14.316406 -72.097656 11.277344 -71.570312 C 8.398438 -71.070312 5.78125 -68.609375 5.070312 -64.394531 L -2.878906 -17.460938 C -3.203125 -15.640625 -3.140625 -13.886719 -2.855469 -12.253906 C -1.582031 -4.9375 5.214844 -0.90625 12.921875 -2.25 C 18.058594 -3.144531 23.097656 -6.425781 26.328125 -10.917969 C 29.636719 -7.566406 35.027344 -6.097656 40.941406 -7.125 C 50.046875 -8.710938 60.492188 -15.984375 62.847656 -29.625 L 70.40625 -72.800781 C 70.605469 -73.957031 70.574219 -75.074219 70.425781 -75.933594 C 69.773438 -79.667969 66.621094 -81.203125 63.582031 -80.675781 C 60.703125 -80.175781 58.085938 -77.714844 57.375 -73.5 L 49.882812 -29.933594 C 48.574219 -22.25 44.136719 -17.789062 40.167969 -17.097656 C 37.910156 -16.703125 36.28125 -17.78125 35.941406 -19.726562 C 35.820312 -20.429688 35.851562 -21.15625 36.015625 -22.066406 Z M 36.015625 -22.066406" transform="translate(64.343 244.841)"/></g></g></g><g fill="#FFF"><g><g><path d="M 11.738281 -56.496094 C 15.242188 -57.105469 17.621094 -60.484375 16.996094 -64.066406 C 16.386719 -67.566406 13.019531 -69.867188 9.515625 -69.257812 C 6.011719 -68.648438 3.621094 -65.347656 4.230469 -61.84375 C 4.855469 -58.261719 8.234375 -55.882812 11.738281 -56.496094 Z M 8.140625 -14.96875 L 12.449219 -40.898438 C 12.582031 -41.964844 12.78125 -43.125 12.648438 -43.902344 C 12.050781 -47.328125 9.171875 -48.667969 6.523438 -48.207031 C 4.113281 -47.789062 1.839844 -45.628906 1.230469 -41.753906 C 0.015625 -34.003906 -1.640625 -24.171875 -2.871094 -16.5 C -3.066406 -14.863281 -3.324219 -12.652344 -3.09375 -11.328125 C -1.820312 -4.011719 4.980469 -0.867188 12.140625 -2.113281 C 19.769531 -3.441406 27.363281 -9.574219 30.007812 -26.632812 C 30.082031 -27.128906 30.078125 -27.609375 29.996094 -28.078125 C 29.578125 -30.488281 26.984375 -31.5625 24.648438 -31.15625 C 22.546875 -30.789062 20.636719 -29.332031 20.121094 -26.757812 C 18.226562 -16.003906 14.65625 -12.09375 11.542969 -11.550781 C 9.75 -11.242188 8.378906 -12.203125 8.125 -13.683594 C 8.054688 -14.074219 8.066406 -14.476562 8.140625 -14.96875 Z M 8.140625 -14.96875" transform="translate(138.667 231.904)"/></g></g></g><g fill="#FFF"><g><g><path d="M 8.453125 -14.542969 L 16.5625 -64.710938 C 16.710938 -65.699219 16.703125 -66.660156 16.570312 -67.441406 C 16.054688 -70.398438 12.914062 -71.855469 10.578125 -71.449219 C 7.621094 -70.933594 5.960938 -68.960938 5.324219 -65.242188 L -2.816406 -16.191406 C -3.128906 -14.292969 -3.15625 -12.601562 -2.871094 -10.96875 C -1.625 -3.808594 4.980469 -0.867188 11.832031 -2.058594 C 19.226562 -3.347656 27.6875 -9.550781 30.320312 -26.6875 C 30.378906 -27.261719 30.363281 -27.820312 30.28125 -28.285156 C 29.847656 -30.777344 27.355469 -32.1875 24.945312 -31.769531 C 22.996094 -31.429688 21.097656 -29.894531 20.511719 -26.828125 C 18.632812 -16.875 14.8125 -12.121094 11.152344 -11.484375 C 9.597656 -11.214844 8.578125 -12 8.375 -13.164062 C 8.320312 -13.476562 8.378906 -14.050781 8.453125 -14.542969 Z M 8.453125 -14.542969" transform="translate(160.146 228.165)"/></g></g></g><g fill="#FFF"><g><g><path d="M 8.453125 -14.542969 L 16.5625 -64.710938 C 16.710938 -65.699219 16.703125 -66.660156 16.570312 -67.441406 C 16.054688 -70.398438 12.914062 -71.855469 10.578125 -71.449219 C 7.621094 -70.933594 5.960938 -68.960938 5.324219 -65.242188 L -2.816406 -16.191406 C -3.128906 -14.292969 -3.15625 -12.601562 -2.871094 -10.96875 C -1.625 -3.808594 4.980469 -0.867188 11.832031 -2.058594 C 19.226562 -3.347656 27.6875 -9.550781 30.320312 -26.6875 C 30.378906 -27.261719 30.363281 -27.820312 30.28125 -28.285156 C 29.847656 -30.777344 27.355469 -32.1875 24.945312 -31.769531 C 22.996094 -31.429688 21.097656 -29.894531 20.511719 -26.828125 C 18.632812 -16.875 14.8125 -12.121094 11.152344 -11.484375 C 9.597656 -11.214844 8.578125 -12 8.375 -13.164062 C 8.320312 -13.476562 8.378906 -14.050781 8.453125 -14.542969 Z M 8.453125 -14.542969" transform="translate(181.86 224.386)"/></g></g></g><g fill="#FFF"><g><g><path d="M 11.738281 -56.496094 C 15.242188 -57.105469 17.621094 -60.484375 16.996094 -64.066406 C 16.386719 -67.566406 13.019531 -69.867188 9.515625 -69.257812 C 6.011719 -68.648438 3.621094 -65.347656 4.230469 -61.84375 C 4.855469 -58.261719 8.234375 -55.882812 11.738281 -56.496094 Z M 8.140625 -14.96875 L 12.449219 -40.898438 C 12.582031 -41.964844 12.78125 -43.125 12.648438 -43.902344 C 12.050781 -47.328125 9.171875 -48.667969 6.523438 -48.207031 C 4.113281 -47.789062 1.839844 -45.628906 1.230469 -41.753906 C 0.015625 -34.003906 -1.640625 -24.171875 -2.871094 -16.5 C -3.066406 -14.863281 -3.324219 -12.652344 -3.09375 -11.328125 C -1.820312 -4.011719 4.980469 -0.867188 12.140625 -2.113281 C 19.769531 -3.441406 27.363281 -9.574219 30.007812 -26.632812 C 30.082031 -27.128906 30.078125 -27.609375 29.996094 -28.078125 C 29.578125 -30.488281 26.984375 -31.5625 24.648438 -31.15625 C 22.546875 -30.789062 20.636719 -29.332031 20.121094 -26.757812 C 18.226562 -16.003906 14.65625 -12.09375 11.542969 -11.550781 C 9.75 -11.242188 8.378906 -12.203125 8.125 -13.683594 C 8.054688 -14.074219 8.066406 -14.476562 8.140625 -14.96875 Z M 8.140625 -14.96875" transform="translate(203.573 220.606)"/></g></g></g><g fill="#FFF"><g><g><path d="M 35.5625 -28.804688 C 33.710938 -19.179688 26.175781 -14.097656 19.558594 -12.949219 C 13.875 -11.957031 9.820312 -14.058594 9.199219 -17.640625 C 9.078125 -18.339844 9.03125 -19.054688 9.207031 -19.886719 L 9.574219 -21.472656 C 12.074219 -20.464844 15.039062 -20.019531 18.152344 -20.5625 C 25.234375 -21.792969 30.691406 -27.316406 31.574219 -34.6875 C 31.703125 -36.234375 31.679688 -37.753906 31.449219 -39.074219 C 30.164062 -46.46875 23.335938 -51.136719 14.542969 -49.605469 C 7.613281 -48.398438 1.546875 -43.171875 0.175781 -34.914062 L -2.097656 -20.804688 C -2.394531 -18.828125 -2.460938 -16.894531 -2.148438 -15.101562 C -0.535156 -5.839844 9.183594 -1.597656 20.546875 -3.578125 C 31.367188 -5.460938 42.742188 -12.894531 45.292969 -28.652344 C 45.417969 -29.316406 45.402344 -29.875 45.320312 -30.34375 C 44.898438 -32.753906 42.492188 -33.699219 40.15625 -33.292969 C 37.976562 -32.914062 35.84375 -31.339844 35.5625 -28.804688 Z M 15.90625 -40.378906 C 18.085938 -40.757812 19.796875 -39.210938 20.191406 -36.957031 C 20.300781 -36.332031 20.332031 -35.695312 20.207031 -35.03125 C 19.875 -32.328125 17.703125 -30.988281 15.367188 -30.582031 C 13.886719 -30.324219 12.355469 -30.378906 11.15625 -30.8125 L 11.976562 -35.765625 C 12.414062 -38.328125 14.117188 -40.066406 15.90625 -40.378906 Z M 15.90625 -40.378906" transform="translate(225.053 216.867)"/></g></g></g><g fill="#FFF"><g><g><path d="M 28.722656 -26.652344 L 38.214844 -72.089844 C 39.195312 -81.644531 27.640625 -81.234375 26.3125 -72.742188 L 18.542969 -28.007812 C 16.980469 -21.320312 27.28125 -19.261719 28.722656 -26.652344 Z M 19.882812 -16.613281 C 16.378906 -16.003906 13.988281 -12.699219 14.613281 -9.121094 C 15.222656 -5.617188 18.601562 -3.238281 22.105469 -3.847656 C 25.683594 -4.472656 28.0625 -7.851562 27.453125 -11.355469 C 26.832031 -14.933594 23.464844 -17.234375 19.882812 -16.613281 Z M 19.882812 -16.613281" transform="translate(261.943 210.446)"/></g></g></g></svg>