<svg xmlns="http://www.w3.org/2000/svg" width="224.88" viewBox="0 0 224.88 150" height="150" version="1.0"><defs><clipPath id="a"><path d="M 0 0.0390625 L 224.761719 0.0390625 L 224.761719 149.960938 L 0 149.960938 Z M 0 0.0390625"/></clipPath><clipPath id="b"><path d="M 4.636719 27.734375 L 222 27.734375 L 222 122.933594 L 4.636719 122.933594 Z M 4.636719 27.734375"/></clipPath></defs><g clip-path="url(#a)" fill="#FFF"><path d="M 0 0.0390625 L 224.878906 0.0390625 L 224.878906 157.457031 L 0 157.457031 Z M 0 0.0390625"/><path d="M 0 0.0390625 L 224.878906 0.0390625 L 224.878906 149.960938 L 0 149.960938 Z M 0 0.0390625"/><path d="M 0 0.0390625 L 224.878906 0.0390625 L 224.878906 149.960938 L 0 149.960938 Z M 0 0.0390625"/></g><g clip-path="url(#b)"><path fill="#ADCCDD" d="M 72.183594 120.246094 C 72.425781 120.277344 72.691406 120.421875 72.867188 120.59375 C 73.273438 120.988281 73.765625 121.035156 74.148438 120.742188 C 74.652344 120.355469 75.164062 120.335938 75.726562 120.398438 C 75.855469 120.414062 75.992188 120.417969 76.121094 120.398438 C 77.019531 120.253906 77.851562 120.535156 78.707031 120.742188 C 79.964844 121.046875 81.246094 121.289062 82.488281 120.625 C 82.71875 120.5 82.898438 120.554688 83.082031 120.757812 C 83.25 120.949219 83.453125 121.132812 83.675781 121.257812 C 84.71875 121.839844 85.824219 122.125 87.027344 121.933594 C 87.152344 121.914062 87.289062 121.910156 87.417969 121.917969 C 88.144531 121.972656 88.871094 122.046875 89.597656 122.085938 C 90.558594 122.136719 91.332031 121.449219 91.402344 120.492188 C 91.425781 120.199219 91.554688 120.011719 91.789062 119.847656 C 92.019531 119.691406 92.21875 119.492188 92.425781 119.304688 C 92.855469 118.917969 93.253906 118.492188 93.855469 118.339844 C 94.039062 118.296875 94.21875 118.152344 94.359375 118.011719 C 94.691406 117.679688 94.800781 117.28125 94.632812 116.824219 C 94.5625 116.621094 94.519531 116.433594 94.738281 116.273438 C 95.003906 116.074219 95.253906 115.851562 95.503906 115.632812 C 95.726562 115.4375 95.910156 115.476562 96.023438 115.757812 C 96.050781 115.824219 96.058594 115.902344 96.074219 115.976562 C 96.125 116.246094 96.203125 116.5 96.503906 116.578125 C 96.84375 116.664062 97.074219 116.46875 97.273438 116.226562 C 97.460938 115.992188 97.683594 115.78125 97.847656 115.53125 C 98.003906 115.289062 98.105469 115.007812 98.242188 114.71875 C 98.695312 115.007812 99.144531 115.296875 99.597656 115.585938 C 99.675781 115.636719 99.746094 115.699219 99.816406 115.761719 C 100.019531 115.933594 100.023438 116.109375 99.914062 116.359375 C 99.722656 116.796875 99.867188 117.015625 100.332031 117.128906 C 100.710938 117.222656 101.089844 117.332031 101.472656 117.425781 C 101.617188 117.464844 101.765625 117.496094 101.910156 117.511719 C 102.472656 117.582031 102.589844 117.496094 102.6875 116.921875 C 102.722656 116.734375 102.78125 116.585938 102.972656 116.550781 C 103.667969 116.425781 103.863281 115.925781 103.882812 115.316406 C 103.894531 114.992188 104 114.710938 104.222656 114.507812 C 104.65625 114.117188 104.910156 113.671875 104.828125 113.074219 C 104.824219 113.050781 104.871094 113.019531 104.894531 112.988281 C 105.175781 113.066406 105.453125 113.183594 105.738281 113.214844 C 106.136719 113.261719 106.417969 113.371094 106.453125 113.839844 C 106.460938 113.953125 106.609375 114.128906 106.710938 114.140625 C 106.808594 114.152344 106.984375 114.011719 107.023438 113.898438 C 107.152344 113.542969 107.398438 113.519531 107.703125 113.589844 C 107.792969 113.609375 107.882812 113.628906 107.976562 113.644531 C 108.347656 113.710938 108.664062 113.648438 108.957031 113.363281 C 109.25 113.078125 109.59375 112.839844 109.921875 112.59375 C 110.277344 112.324219 110.675781 112.414062 110.738281 112.851562 C 110.835938 113.484375 111.28125 113.816406 111.679688 114.199219 C 112.042969 114.546875 112.296875 114.488281 112.597656 114.078125 C 112.75 113.875 112.921875 113.648438 113.140625 113.539062 C 113.691406 113.265625 114.285156 113.078125 114.75 112.640625 C 114.835938 112.558594 114.984375 112.511719 115.109375 112.503906 C 115.675781 112.457031 115.992188 112.175781 116.078125 111.597656 C 116.125 111.285156 116.265625 111.257812 116.566406 111.335938 C 116.941406 111.429688 117.324219 111.511719 117.710938 111.558594 C 117.980469 111.59375 118.230469 111.632812 118.417969 111.851562 C 118.742188 112.238281 119.085938 112.597656 119.292969 113.082031 C 119.527344 113.625 119.953125 114.027344 120.589844 113.992188 C 121.046875 113.964844 121.351562 114.125 121.578125 114.488281 C 121.75 114.757812 121.996094 114.847656 122.300781 114.824219 C 122.449219 114.816406 122.601562 114.78125 122.746094 114.792969 C 123.128906 114.828125 123.308594 115.160156 123.144531 115.585938 C 122.480469 115.074219 121.867188 115.410156 121.269531 115.726562 C 120.957031 115.894531 120.847656 116.222656 120.945312 116.546875 C 121.039062 116.84375 121.199219 116.925781 121.617188 116.90625 C 122.140625 116.882812 122.546875 116.644531 122.855469 116.230469 C 122.984375 116.058594 123.128906 115.882812 123.363281 116.035156 C 123.660156 116.21875 123.960938 116.210938 124.285156 116.164062 C 124.445312 116.140625 124.636719 116.171875 124.773438 116.246094 C 125.253906 116.503906 125.691406 116.398438 126.097656 116.113281 C 126.507812 115.824219 126.953125 115.660156 127.453125 115.613281 C 127.878906 115.570312 128.109375 115.316406 128.199219 114.894531 C 128.347656 114.179688 128.597656 114.027344 129.3125 114.203125 C 129.683594 114.296875 130.007812 114.261719 130.3125 114.003906 C 130.429688 113.902344 130.617188 113.824219 130.769531 113.828125 C 131.21875 113.84375 131.574219 113.683594 131.875 113.367188 C 132.015625 113.21875 132.164062 113.167969 132.371094 113.289062 C 133.167969 113.75 133.9375 113.484375 134.652344 113.097656 C 134.917969 112.949219 135.097656 112.910156 135.367188 113.050781 C 135.933594 113.335938 136.582031 113.144531 136.953125 112.621094 C 137.386719 112.019531 137.871094 112.019531 138.324219 112.617188 C 138.648438 113.039062 139.148438 113.011719 139.425781 112.546875 C 139.515625 112.402344 139.574219 112.242188 139.667969 112.101562 C 139.976562 111.644531 140.414062 111.507812 140.929688 111.664062 C 141.144531 111.730469 141.367188 111.769531 141.585938 111.800781 C 141.796875 111.828125 142.109375 111.699219 142.167969 111.980469 C 142.207031 112.160156 142.050781 112.390625 141.953125 112.585938 C 141.90625 112.679688 141.808594 112.769531 141.714844 112.816406 C 141.039062 113.167969 140.695312 113.730469 140.605469 114.472656 C 140.589844 114.597656 140.511719 114.714844 140.464844 114.839844 C 140.273438 115.320312 140.324219 115.550781 140.742188 115.855469 C 140.925781 115.988281 141.03125 116.140625 141.035156 116.363281 C 141.039062 116.769531 141.234375 117.089844 141.515625 117.347656 C 141.933594 117.726562 142.179688 118.1875 142.371094 118.710938 C 142.515625 119.109375 142.734375 119.519531 143.207031 119.636719 C 143.695312 119.761719 144.191406 119.871094 144.691406 119.941406 C 144.976562 119.980469 145.203125 120.082031 145.332031 120.332031 C 145.578125 120.820312 145.996094 120.960938 146.5 120.941406 C 146.6875 120.933594 146.875 120.929688 147.0625 120.914062 C 147.457031 120.878906 147.785156 120.992188 148.105469 121.234375 C 148.464844 121.503906 148.847656 121.777344 149.265625 121.910156 C 149.714844 122.054688 150.140625 122.226562 150.554688 122.453125 C 150.996094 122.691406 151.441406 122.71875 151.902344 122.488281 C 152.121094 122.382812 152.355469 122.300781 152.589844 122.25 C 153.023438 122.148438 153.363281 121.929688 153.695312 121.625 C 154.460938 120.929688 155.328125 120.433594 156.441406 120.652344 C 156.652344 120.691406 156.933594 120.699219 157.089844 120.589844 C 157.507812 120.308594 157.964844 120.179688 158.433594 120.035156 C 158.988281 119.859375 159.160156 119.507812 159.027344 118.941406 C 158.984375 118.757812 158.929688 118.578125 158.875 118.402344 C 158.804688 118.167969 158.863281 117.988281 159.097656 117.898438 C 159.433594 117.769531 159.648438 117.542969 159.789062 117.203125 C 159.941406 116.828125 160.003906 116.832031 160.375 117.023438 C 160.480469 117.078125 160.679688 117.136719 160.714844 117.097656 C 160.792969 116.992188 160.820312 116.835938 160.832031 116.699219 C 160.859375 116.40625 160.832031 116.105469 160.882812 115.816406 C 160.914062 115.640625 161.0625 115.488281 161.132812 115.316406 C 161.253906 115.023438 161.117188 114.71875 160.832031 114.722656 C 160.375 114.730469 159.886719 114.671875 159.558594 115.144531 C 159.4375 115.316406 159.238281 115.46875 159.039062 115.554688 C 158.585938 115.75 158.273438 115.507812 158.273438 115.015625 C 158.273438 114.675781 158.390625 114.398438 158.617188 114.148438 C 158.828125 113.921875 158.890625 113.664062 158.730469 113.375 C 158.585938 113.105469 158.375 113 158.078125 113.070312 C 158.011719 113.085938 157.9375 113.050781 157.828125 113.03125 C 157.804688 112.597656 157.8125 112.1875 158.007812 111.71875 C 158.207031 111.839844 158.335938 111.949219 158.484375 112.003906 C 159.085938 112.242188 159.683594 112.597656 160.316406 112.042969 C 160.546875 111.835938 160.71875 111.859375 160.917969 112.175781 C 161.289062 112.769531 161.8125 112.914062 162.460938 112.867188 C 162.988281 112.824219 163.074219 112.726562 162.917969 112.207031 C 162.816406 111.871094 162.851562 111.773438 163.183594 111.757812 C 163.554688 111.738281 163.761719 111.558594 163.929688 111.253906 C 164 111.121094 164.132812 111.023438 164.226562 110.921875 C 164.488281 111.222656 164.660156 111.53125 164.921875 111.699219 C 165.273438 111.917969 165.582031 111.578125 165.964844 111.421875 C 166.011719 111.628906 166.050781 111.804688 166.09375 111.980469 C 166.238281 112.605469 166.847656 112.867188 167.398438 112.539062 C 167.476562 112.492188 167.558594 112.4375 167.621094 112.367188 C 167.859375 112.089844 168.15625 111.914062 168.5 111.785156 C 168.644531 111.730469 168.753906 111.578125 168.882812 111.472656 C 169.011719 111.371094 169.144531 111.179688 169.273438 111.183594 C 169.714844 111.1875 170.195312 111.175781 170.59375 111.328125 C 171.128906 111.535156 171.613281 111.878906 172.109375 112.179688 C 172.519531 112.429688 172.757812 112.417969 173.113281 112.082031 C 173.226562 111.96875 173.335938 111.84375 173.507812 111.65625 C 173.910156 112.199219 174.398438 112.054688 174.90625 111.921875 C 175.128906 111.863281 175.382812 111.933594 175.621094 111.945312 C 175.875 111.957031 176.128906 111.976562 176.386719 111.988281 C 176.566406 111.996094 176.800781 111.921875 176.921875 112.007812 C 177.5 112.417969 178.085938 112.210938 178.660156 112.070312 C 179.03125 111.976562 179.414062 111.828125 179.648438 111.472656 C 179.796875 111.246094 180.015625 111.15625 180.277344 111.160156 C 180.605469 111.164062 180.902344 111.089844 181.144531 110.839844 C 181.296875 110.683594 181.460938 110.699219 181.652344 110.816406 C 181.859375 110.9375 182.089844 111.078125 182.3125 111.09375 C 183.171875 111.136719 184.039062 111.152344 184.898438 111.132812 C 185.144531 111.128906 185.386719 110.972656 185.625 110.878906 C 185.917969 110.761719 186.199219 110.578125 186.5 110.535156 C 187 110.460938 187.511719 110.449219 188.015625 110.460938 C 188.414062 110.472656 188.757812 110.429688 189.035156 110.109375 C 189.089844 110.046875 189.183594 110.015625 189.28125 109.960938 C 189.359375 110.050781 189.421875 110.113281 189.476562 110.183594 C 189.785156 110.582031 190.195312 110.726562 190.664062 110.570312 C 190.855469 110.507812 191.050781 110.414062 191.207031 110.285156 C 191.566406 110 191.925781 110.027344 192.3125 110.203125 C 192.566406 110.320312 192.828125 110.433594 193.097656 110.507812 C 193.5 110.613281 193.613281 110.554688 193.847656 110.207031 C 194.105469 109.828125 194.300781 109.75 194.746094 109.863281 C 195.203125 109.972656 195.546875 110.230469 195.8125 110.628906 C 196.058594 111 196.199219 110.984375 196.515625 110.664062 C 196.628906 110.546875 196.761719 110.421875 196.910156 110.371094 C 197.542969 110.152344 198.195312 109.972656 198.828125 109.746094 C 199.027344 109.675781 199.210938 109.523438 199.367188 109.371094 C 199.664062 109.078125 199.742188 109.039062 200.078125 109.28125 C 201.15625 110.046875 202.410156 109.34375 202.878906 108.285156 C 202.914062 108.203125 202.945312 108.097656 202.925781 108.015625 C 202.832031 107.617188 203.035156 107.46875 203.367188 107.304688 C 203.824219 107.074219 204.378906 106.953125 204.640625 106.433594 C 204.777344 106.171875 204.96875 106.132812 205.246094 106.144531 C 205.5 106.152344 205.773438 106.105469 206.003906 106 C 206.277344 105.878906 206.519531 105.847656 206.8125 105.917969 C 207.511719 106.082031 208.4375 105.699219 208.8125 105.105469 C 208.945312 104.894531 209.105469 104.757812 209.34375 104.742188 C 210 104.703125 210.425781 104.332031 210.839844 103.851562 C 211.132812 103.507812 211.417969 103.105469 211.910156 102.976562 C 212.433594 102.84375 212.957031 102.691406 213.488281 102.578125 C 213.933594 102.484375 214.179688 102.261719 214.226562 101.789062 C 214.25 101.554688 214.347656 101.320312 214.441406 101.097656 C 214.628906 100.648438 214.839844 100.207031 215.027344 99.757812 C 215.226562 99.257812 215.144531 98.953125 214.71875 98.621094 C 214.371094 98.351562 213.972656 98.195312 213.535156 98.132812 C 213.363281 98.109375 213.191406 98.0625 212.972656 98.011719 C 213.285156 97.480469 213.675781 97.1875 214.152344 96.976562 C 214.808594 96.6875 215.089844 96.171875 214.917969 95.476562 C 214.832031 95.125 214.636719 94.785156 214.429688 94.480469 C 214.113281 94.015625 214.082031 93.859375 214.472656 93.460938 C 214.683594 93.246094 214.769531 93.03125 214.671875 92.753906 C 214.546875 92.382812 214.574219 92.027344 214.675781 91.648438 C 214.851562 91.003906 214.574219 90.492188 213.96875 90.242188 C 213.847656 90.191406 213.722656 90.148438 213.59375 90.113281 C 213.363281 90.046875 213.207031 89.90625 213.121094 89.675781 C 212.902344 89.089844 212.46875 88.730469 211.898438 88.507812 C 211.453125 88.332031 211.355469 88.070312 211.535156 87.617188 C 211.621094 87.394531 211.777344 87.3125 211.96875 87.457031 C 212.238281 87.660156 212.492188 87.886719 212.734375 88.121094 C 213.203125 88.582031 213.453125 88.519531 213.640625 87.871094 C 213.679688 87.746094 213.699219 87.613281 213.695312 87.484375 C 213.679688 86.960938 213.71875 86.425781 213.175781 86.03125 C 213.449219 85.699219 213.675781 85.378906 213.953125 85.109375 C 214.1875 84.875 214.261719 84.632812 214.132812 84.351562 C 213.953125 83.976562 213.964844 83.589844 213.976562 83.195312 C 213.996094 82.523438 214.136719 82.308594 214.75 82.042969 C 214.96875 81.949219 215.1875 81.832031 215.378906 81.691406 C 216 81.246094 216.410156 80.550781 217.121094 80.199219 C 217.183594 80.171875 217.222656 80.089844 217.261719 80.027344 C 217.449219 79.6875 217.746094 79.519531 218.117188 79.457031 C 218.25 79.4375 218.375 79.402344 218.5 79.351562 C 218.917969 79.179688 219.03125 78.8125 218.789062 78.441406 C 218.75 78.378906 218.695312 78.328125 218.644531 78.273438 C 218.441406 78.058594 218.433594 77.84375 218.652344 77.632812 C 218.949219 77.34375 219.050781 76.964844 219.117188 76.570312 C 219.167969 76.273438 219.210938 75.976562 219.289062 75.6875 C 219.328125 75.535156 219.414062 75.347656 219.535156 75.28125 C 219.84375 75.105469 219.925781 74.847656 219.953125 74.53125 C 219.972656 74.34375 220.03125 74.167969 220.070312 73.980469 C 220.148438 73.589844 220.320312 73.375 220.789062 73.378906 C 221.367188 73.382812 221.566406 73.140625 221.667969 72.5625 C 221.703125 72.378906 221.746094 72.195312 221.761719 72.007812 C 221.796875 71.535156 221.578125 71.300781 221.109375 71.292969 C 220.714844 71.289062 220.375 71.417969 220.097656 71.707031 C 219.957031 71.851562 219.820312 72.003906 219.6875 72.140625 C 218.960938 71.882812 218.746094 71.355469 219.09375 70.746094 C 219.128906 70.683594 219.199219 70.613281 219.195312 70.550781 C 219.179688 70.4375 219.152344 70.296875 219.074219 70.222656 C 219.035156 70.183594 218.855469 70.230469 218.785156 70.289062 C 218.691406 70.375 218.652344 70.511719 218.578125 70.621094 C 218.34375 70.957031 218.136719 70.953125 217.886719 70.617188 C 217.433594 70 217.347656 69.976562 216.648438 70.332031 C 216.222656 70.546875 215.933594 70.46875 215.648438 70.0625 C 215.597656 69.992188 215.527344 69.929688 215.457031 69.851562 C 215.371094 69.890625 215.289062 69.90625 215.242188 69.953125 C 214.984375 70.246094 214.707031 70.164062 214.4375 69.992188 C 214.171875 69.824219 214.042969 69.589844 214.144531 69.269531 C 214.277344 68.835938 214.160156 68.492188 213.761719 68.261719 C 213.378906 68.035156 213.515625 67.699219 213.84375 67.523438 C 213.949219 67.464844 214.09375 67.46875 214.222656 67.460938 C 214.515625 67.433594 214.8125 67.394531 215.105469 67.394531 C 215.28125 67.394531 215.519531 67.394531 215.617188 67.5 C 215.859375 67.753906 216.003906 68.078125 215.894531 68.539062 C 215.695312 68.371094 215.546875 68.242188 215.390625 68.117188 C 215.191406 67.960938 214.980469 67.9375 214.773438 68.09375 C 214.570312 68.242188 214.515625 68.503906 214.625 68.753906 C 214.78125 69.109375 215.128906 69.277344 215.5625 69.195312 C 215.835938 69.140625 216.109375 69.050781 216.386719 69.027344 C 216.726562 69.003906 217.015625 68.914062 217.207031 68.625 C 217.378906 68.367188 217.621094 68.324219 217.902344 68.367188 C 218.070312 68.390625 218.238281 68.441406 218.402344 68.425781 C 218.582031 68.410156 218.832031 68.382812 218.910156 68.269531 C 219.191406 67.847656 219.519531 67.53125 220.03125 67.4375 C 220.09375 67.425781 220.144531 67.339844 220.203125 67.300781 C 220.390625 67.175781 220.574219 67.046875 220.769531 66.945312 C 220.992188 66.828125 221.21875 66.722656 221.210938 66.425781 C 221.207031 66.21875 220.972656 66.089844 220.589844 66.058594 C 220.570312 66.058594 220.550781 66.050781 220.53125 66.054688 C 219.949219 66.199219 219.382812 66.109375 218.824219 65.9375 C 218.789062 65.925781 218.746094 65.9375 218.710938 65.933594 C 218.382812 65.878906 218.054688 65.804688 217.726562 65.773438 C 217.515625 65.753906 217.199219 65.714844 217.097656 65.832031 C 216.765625 66.222656 216.375 66.238281 215.933594 66.171875 C 215.828125 66.152344 215.710938 66.191406 215.601562 66.203125 C 215.265625 66.25 214.910156 66.230469 214.609375 66.351562 C 214.007812 66.601562 213.433594 66.464844 212.828125 66.425781 C 211.992188 66.371094 211.144531 66.46875 210.300781 66.492188 C 209.96875 66.5 209.726562 66.636719 209.546875 66.902344 C 209.464844 67.027344 209.40625 67.175781 209.304688 67.28125 C 209.167969 67.425781 209.015625 67.628906 208.847656 67.648438 C 208.488281 67.691406 208.105469 67.65625 207.742188 67.597656 C 207.664062 67.585938 207.597656 67.359375 207.558594 67.222656 C 207.492188 66.988281 207.5 66.71875 207.382812 66.515625 C 207.125 66.058594 207.050781 65.570312 207.035156 65.058594 C 207.027344 64.851562 207.015625 64.628906 206.933594 64.449219 C 206.824219 64.199219 206.671875 63.949219 206.476562 63.765625 C 206.257812 63.554688 205.949219 63.585938 205.785156 63.828125 C 205.585938 64.121094 205.328125 64.230469 204.996094 64.289062 C 204.648438 64.351562 204.472656 64.640625 204.386719 64.960938 C 204.316406 65.246094 204.535156 65.414062 204.722656 65.566406 C 204.894531 65.707031 205.101562 65.808594 205.277344 65.953125 C 205.363281 66.023438 205.410156 66.144531 205.496094 66.273438 C 205.363281 66.339844 205.289062 66.402344 205.203125 66.417969 C 204.46875 66.566406 203.738281 66.726562 202.980469 66.722656 C 202.46875 66.71875 202.226562 66.964844 202.175781 67.464844 C 202.160156 67.617188 202.203125 67.777344 202.152344 67.914062 C 202.101562 68.054688 201.996094 68.195312 201.875 68.289062 C 201.824219 68.324219 201.65625 68.257812 201.578125 68.195312 C 201.425781 68.070312 201.429688 67.902344 201.527344 67.738281 C 201.796875 67.300781 201.683594 66.882812 201.488281 66.453125 C 201.371094 66.199219 201.300781 65.917969 201.261719 65.644531 C 201.21875 65.367188 201.5 65.195312 201.746094 65.339844 C 201.839844 65.390625 201.925781 65.484375 201.972656 65.582031 C 202.191406 66.046875 202.550781 66.1875 203.035156 66.074219 C 203.144531 66.050781 203.261719 66.054688 203.375 66.0625 C 203.84375 66.105469 203.96875 65.75 204.039062 65.195312 C 204.082031 64.839844 203.820312 64.652344 203.378906 64.601562 C 203.050781 64.5625 202.722656 64.484375 202.398438 64.398438 C 201.914062 64.265625 201.453125 64.042969 200.921875 64.199219 C 200.628906 64.289062 200.480469 64.140625 200.523438 63.847656 C 200.613281 63.230469 200.761719 62.621094 201.105469 62.101562 C 201.25 61.882812 201.519531 61.734375 201.757812 61.601562 C 202.152344 61.390625 202.574219 61.238281 202.96875 61.027344 C 203.304688 60.847656 203.410156 60.613281 203.332031 60.347656 C 203.25 60.050781 203.027344 59.945312 202.738281 59.917969 C 202.59375 59.90625 202.433594 59.890625 202.304688 59.824219 C 202.226562 59.785156 202.148438 59.644531 202.160156 59.558594 C 202.167969 59.480469 202.289062 59.382812 202.378906 59.359375 C 202.523438 59.316406 202.679688 59.339844 202.828125 59.316406 C 203.0625 59.285156 203.277344 59.210938 203.296875 58.925781 C 203.316406 58.699219 203.125 58.554688 202.78125 58.527344 C 202.726562 58.519531 202.671875 58.53125 202.613281 58.523438 C 202.304688 58.480469 201.996094 58.414062 201.683594 58.386719 C 201.183594 58.339844 200.679688 58.300781 200.179688 58.285156 C 200.0625 58.28125 199.921875 58.363281 199.832031 58.449219 C 199.554688 58.703125 199.285156 58.667969 199.019531 58.457031 C 198.691406 58.199219 198.308594 58.140625 197.90625 58.144531 C 197.382812 58.152344 196.859375 58.160156 196.445312 58.472656 C 196.203125 58.351562 195.996094 58.257812 195.804688 58.148438 C 195.550781 58.003906 195.542969 57.777344 195.789062 57.625 C 195.964844 57.515625 196.167969 57.460938 196.339844 57.347656 C 196.605469 57.175781 196.667969 56.90625 196.527344 56.667969 C 196.324219 56.324219 195.441406 55.984375 195.039062 56.074219 C 194.785156 56.128906 194.523438 56.152344 194.269531 56.160156 C 193.855469 56.167969 193.441406 56.140625 193.03125 56.144531 C 192.730469 56.152344 192.515625 56.03125 192.398438 55.769531 C 192.277344 55.492188 192.5 55.351562 192.664062 55.210938 C 192.84375 55.050781 192.957031 54.90625 192.921875 54.636719 C 192.859375 54.136719 193.269531 53.8125 193.722656 54.007812 C 194.082031 54.164062 194.414062 54.386719 194.597656 54.765625 C 194.828125 55.238281 194.917969 55.28125 195.421875 55.230469 C 195.703125 55.203125 195.980469 55.144531 196.261719 55.152344 C 196.96875 55.164062 197.679688 55.238281 198.390625 55.234375 C 199.050781 55.230469 199.636719 54.816406 200.3125 54.804688 C 200.421875 54.800781 200.617188 54.578125 200.605469 54.472656 C 200.59375 54.347656 200.410156 54.15625 200.289062 54.148438 C 199.980469 54.121094 199.648438 54.128906 199.359375 54.230469 C 199.039062 54.339844 198.757812 54.371094 198.4375 54.265625 C 198.027344 54.132812 197.609375 54.023438 197.191406 53.921875 C 196.714844 53.808594 196.632812 53.722656 196.65625 53.234375 C 196.664062 53.066406 196.730469 52.90625 196.753906 52.738281 C 196.773438 52.578125 196.828125 52.390625 196.773438 52.25 C 196.566406 51.738281 196.269531 51.28125 195.726562 51.058594 C 195.257812 50.871094 194.789062 50.679688 194.3125 50.527344 C 194.171875 50.480469 193.972656 50.519531 193.839844 50.59375 C 193.609375 50.71875 193.414062 50.6875 193.203125 50.566406 C 193.023438 50.464844 192.847656 50.359375 192.664062 50.261719 C 192.386719 50.117188 192.101562 50.097656 191.792969 50.164062 C 191.371094 50.253906 190.945312 50.300781 190.519531 50.371094 C 190.300781 50.40625 190.140625 50.335938 190.09375 50.113281 C 190.015625 49.753906 189.949219 49.394531 189.863281 48.945312 C 190.429688 49 190.933594 48.800781 191.359375 49.097656 C 191.6875 49.328125 191.980469 49.324219 192.304688 49.171875 C 192.523438 49.070312 192.730469 48.941406 192.941406 48.824219 C 193.339844 49.144531 193.339844 49.136719 193.886719 49.144531 C 194.050781 49.144531 194.21875 49.199219 194.375 49.253906 C 195.25 49.554688 195.59375 49.445312 196.140625 48.707031 C 196.214844 48.601562 196.382812 48.472656 196.488281 48.488281 C 196.832031 48.542969 197.1875 48.621094 197.507812 48.757812 C 197.9375 48.9375 197.921875 48.964844 198.257812 48.605469 C 198.488281 48.359375 198.65625 48.320312 198.945312 48.476562 C 199.074219 48.546875 199.183594 48.65625 199.304688 48.746094 C 199.539062 48.917969 199.753906 48.886719 199.964844 48.691406 C 200.230469 48.441406 200.316406 48.191406 200.207031 47.949219 C 199.949219 47.363281 199.277344 47.085938 198.667969 47.277344 C 198.472656 47.339844 198.222656 47.351562 198.027344 47.292969 C 197.503906 47.144531 197 46.949219 196.496094 46.753906 C 196.363281 46.703125 196.238281 46.601562 196.140625 46.496094 C 195.902344 46.257812 195.636719 46.230469 195.375 46.414062 C 195.035156 46.652344 194.683594 46.664062 194.300781 46.574219 C 194.15625 46.539062 193.992188 46.496094 193.859375 46.53125 C 193.359375 46.652344 193.082031 46.402344 192.859375 46.007812 C 192.628906 45.605469 192.347656 45.269531 191.832031 45.230469 C 191.671875 45.21875 191.527344 45.089844 191.367188 45.03125 C 191.191406 44.972656 190.984375 44.847656 190.835938 44.894531 C 190.359375 45.058594 189.960938 44.878906 189.558594 44.6875 C 189.375 44.601562 189.203125 44.492188 189.023438 44.398438 C 188.828125 44.296875 188.636719 44.144531 188.429688 44.117188 C 188.132812 44.078125 187.910156 43.96875 187.695312 43.761719 C 187.3125 43.394531 187.039062 43.402344 186.613281 43.730469 C 186.324219 43.949219 186.21875 43.933594 186.042969 43.628906 C 186.011719 43.582031 185.988281 43.53125 185.96875 43.476562 C 185.804688 42.96875 185.417969 42.753906 184.925781 42.800781 C 184.335938 42.855469 183.765625 42.78125 183.203125 42.636719 C 182.570312 42.472656 181.941406 42.296875 181.324219 42.078125 C 181.089844 41.996094 180.890625 41.792969 180.675781 41.644531 C 180.445312 41.488281 180.222656 41.316406 179.980469 41.179688 C 179.292969 40.792969 178.515625 40.730469 177.761719 40.601562 C 177.25 40.511719 176.773438 40.410156 176.355469 40.09375 C 176.050781 39.867188 175.691406 39.777344 175.34375 39.902344 C 174.886719 40.066406 174.421875 40.039062 173.960938 40.101562 C 173.417969 40.175781 173.066406 39.980469 172.785156 39.53125 C 172.664062 39.332031 172.46875 39.164062 172.269531 39.035156 C 171.992188 38.855469 171.675781 38.738281 171.386719 38.570312 C 170.839844 38.257812 170.542969 38.269531 170.0625 38.652344 C 169.992188 38.707031 169.914062 38.785156 169.828125 38.800781 C 169.453125 38.863281 169.214844 39.09375 168.960938 39.363281 C 168.714844 39.617188 168.410156 39.929688 167.984375 39.78125 C 167.609375 39.65625 167.269531 39.476562 167.03125 39.121094 C 166.71875 38.65625 166.359375 38.21875 166.003906 37.785156 C 165.886719 37.640625 165.734375 37.492188 165.570312 37.4375 C 165.109375 37.289062 164.640625 37.117188 164.167969 37.09375 C 163.75 37.070312 163.457031 36.945312 163.1875 36.652344 C 162.878906 36.316406 162.488281 36.160156 162.023438 36.203125 C 161.488281 36.25 160.988281 36.140625 160.480469 35.964844 C 160.0625 35.820312 159.601562 35.738281 159.160156 35.742188 C 158.414062 35.75 157.664062 35.839844 156.917969 35.910156 C 156.699219 35.929688 156.535156 35.894531 156.367188 35.730469 C 155.8125 35.191406 155.234375 35.179688 154.6875 35.703125 C 154.425781 35.953125 154.179688 36.039062 153.828125 35.925781 C 152.902344 35.628906 152.746094 35.699219 152.242188 36.550781 C 152.234375 36.566406 152.226562 36.585938 152.21875 36.601562 C 152.027344 36.910156 151.957031 36.925781 151.632812 36.746094 C 151.386719 36.609375 151.140625 36.476562 150.890625 36.347656 C 150.257812 36.023438 149.945312 36.15625 149.703125 36.84375 C 149.632812 37.035156 149.601562 37.253906 149.296875 37.285156 C 149.265625 37.160156 149.246094 37.035156 149.199219 36.921875 C 149.113281 36.722656 149.03125 36.515625 148.921875 36.328125 C 148.773438 36.09375 148.582031 35.886719 148.445312 35.644531 C 148.207031 35.222656 147.902344 35.007812 147.386719 35.101562 C 147.140625 35.144531 146.820312 35.160156 146.628906 35.035156 C 146.230469 34.785156 145.890625 34.855469 145.511719 35.015625 C 145.035156 35.21875 144.960938 35.347656 145.03125 35.882812 C 145.054688 36.066406 145.109375 36.273438 145.050781 36.433594 C 144.8125 37.113281 144.351562 37.640625 143.71875 37.949219 C 143.347656 38.125 142.96875 38.273438 142.640625 38.535156 C 142.4375 38.695312 142.199219 38.816406 141.964844 38.933594 C 141.691406 39.0625 141.441406 38.960938 141.230469 38.792969 C 141.054688 38.648438 141.121094 38.460938 141.179688 38.273438 C 141.394531 37.609375 141.09375 37.152344 140.390625 37.152344 C 139.949219 37.152344 139.769531 36.984375 139.652344 36.570312 C 139.472656 35.9375 138.921875 35.742188 138.3125 35.992188 C 138.078125 36.089844 137.8125 36.128906 137.558594 36.160156 C 136.785156 36.25 136.195312 35.828125 135.613281 35.410156 C 135.183594 35.105469 135.136719 35.085938 134.894531 35.519531 C 134.742188 35.792969 134.546875 35.878906 134.25 35.84375 C 133.355469 35.734375 132.773438 35.1875 132.300781 34.476562 C 132.191406 34.316406 132.066406 34.089844 131.90625 34.050781 C 131.429688 33.925781 131.167969 33.542969 130.832031 33.253906 C 130.730469 33.167969 130.65625 32.941406 130.691406 32.820312 C 130.730469 32.691406 130.910156 32.578125 131.054688 32.527344 C 131.183594 32.480469 131.347656 32.515625 131.5 32.523438 C 131.796875 32.542969 132.097656 32.578125 132.398438 32.589844 C 132.617188 32.601562 132.804688 32.515625 132.910156 32.3125 C 133.023438 32.089844 132.992188 31.886719 132.855469 31.675781 C 132.710938 31.460938 132.585938 31.230469 132.476562 31 C 132.199219 30.40625 131.71875 30.308594 131.210938 30.726562 C 131.074219 30.835938 130.898438 30.917969 130.726562 30.964844 C 130.3125 31.078125 130.246094 31.132812 130.167969 31.554688 C 130.136719 31.71875 130.136719 31.910156 130.050781 32.039062 C 129.796875 32.414062 129.867188 32.726562 130.117188 33.070312 C 130.324219 33.347656 130.269531 33.53125 130.011719 33.753906 C 129.453125 34.242188 128.820312 34.253906 128.164062 34.015625 C 127.777344 33.875 127.417969 33.65625 127.027344 33.535156 C 126.753906 33.445312 126.4375 33.40625 126.152344 33.445312 C 125.679688 33.503906 125.476562 33.925781 125.738281 34.320312 C 126.179688 34.984375 126.820312 35.40625 127.589844 35.59375 C 128.113281 35.722656 128.660156 35.769531 129.1875 35.878906 C 129.6875 35.980469 129.683594 35.996094 129.902344 35.527344 C 130.035156 35.238281 130.179688 35.175781 130.410156 35.398438 C 130.6875 35.667969 130.9375 35.980469 131.144531 36.308594 C 131.335938 36.605469 131.28125 36.800781 130.960938 36.949219 C 130.679688 37.078125 130.355469 37.167969 130.050781 37.175781 C 129.738281 37.183594 129.414062 37.097656 129.121094 36.988281 C 128.664062 36.824219 128.28125 36.890625 127.910156 37.1875 C 127.617188 37.417969 127.300781 37.621094 126.996094 37.835938 C 126.789062 37.984375 126.574219 37.957031 126.355469 37.859375 C 125.84375 37.628906 125.335938 37.398438 124.820312 37.1875 C 124.398438 37.011719 124.132812 37.058594 123.878906 37.414062 C 123.691406 37.671875 123.464844 37.820312 123.179688 37.941406 C 122.582031 38.195312 122.203125 38.964844 122.332031 39.601562 C 122.363281 39.746094 122.433594 39.886719 122.519531 40.003906 C 122.5625 40.066406 122.691406 40.113281 122.757812 40.09375 C 122.824219 40.074219 122.902344 39.964844 122.910156 39.890625 C 122.925781 39.722656 122.902344 39.554688 122.890625 39.386719 C 122.875 39.183594 122.785156 38.929688 123.035156 38.839844 C 123.308594 38.746094 123.425781 39.003906 123.539062 39.191406 C 123.628906 39.335938 123.730469 39.488281 123.757812 39.644531 C 123.835938 40.164062 123.890625 40.683594 123.925781 41.203125 C 123.933594 41.316406 123.84375 41.453125 123.761719 41.550781 C 123.542969 41.8125 123.457031 42.101562 123.480469 42.4375 C 123.492188 42.558594 123.441406 42.683594 123.421875 42.792969 C 123.164062 42.851562 122.949219 42.921875 122.730469 42.949219 C 122.363281 42.996094 121.976562 43.09375 121.625 43.035156 C 121.148438 42.953125 120.699219 42.925781 120.238281 43.066406 C 120.042969 43.128906 119.835938 43.121094 119.742188 42.921875 C 119.484375 42.382812 119.238281 41.835938 119.027344 41.277344 C 118.949219 41.074219 119.148438 40.902344 119.355469 40.972656 C 119.488281 41.019531 119.613281 41.125 119.703125 41.234375 C 119.855469 41.421875 119.96875 41.640625 120.117188 41.835938 C 120.339844 42.113281 120.582031 42.183594 120.796875 42.054688 C 121.003906 41.925781 121.082031 41.652344 120.933594 41.347656 C 120.625 40.730469 120.445312 40.101562 120.566406 39.398438 C 120.621094 39.066406 120.398438 38.808594 120.09375 38.722656 C 119.78125 38.636719 119.609375 38.722656 119.40625 39.050781 C 119.183594 39.40625 119.171875 39.433594 118.800781 39.253906 C 118.226562 38.96875 117.695312 38.929688 117.175781 39.351562 C 117.089844 39.421875 116.976562 39.460938 116.875 39.507812 C 116.363281 39.753906 115.882812 39.863281 115.34375 39.5 C 114.863281 39.175781 114.367188 39.335938 114.007812 39.800781 C 113.90625 39.933594 113.824219 40.085938 113.714844 40.214844 C 113.328125 40.65625 113.125 40.632812 112.855469 40.125 C 112.617188 39.679688 112.402344 39.613281 111.945312 39.847656 C 111.84375 39.898438 111.75 39.957031 111.65625 40.019531 C 111.414062 40.179688 111.167969 40.148438 110.988281 39.953125 C 110.847656 39.796875 110.738281 39.585938 110.683594 39.382812 C 110.554688 38.855469 110.199219 38.546875 109.714844 38.484375 C 109.203125 38.417969 108.671875 38.476562 108.148438 38.492188 C 107.832031 38.5 107.519531 38.566406 107.207031 38.554688 C 106.382812 38.515625 105.914062 39.0625 106.105469 39.867188 C 106.171875 40.136719 106.238281 40.40625 106.019531 40.738281 C 105.894531 40.59375 105.777344 40.503906 105.722656 40.386719 C 105.644531 40.21875 105.605469 40.027344 105.550781 39.851562 C 105.394531 39.339844 105.15625 39.214844 104.671875 39.4375 C 104.414062 39.554688 104.179688 39.589844 103.910156 39.507812 C 103.714844 39.449219 103.507812 39.40625 103.300781 39.40625 C 103.164062 39.40625 102.976562 39.445312 102.898438 39.539062 C 102.503906 39.992188 102.136719 40.472656 101.71875 40.996094 C 101.511719 40.835938 101.257812 40.640625 101.011719 40.449219 C 101.015625 40.355469 101.011719 40.300781 101.027344 40.246094 C 101.226562 39.4375 101.058594 39.207031 100.253906 39.167969 C 100.09375 39.160156 99.933594 39.125 99.75 39.105469 C 99.761719 38.867188 99.789062 38.679688 99.769531 38.5 C 99.757812 38.410156 99.664062 38.300781 99.582031 38.261719 C 99.527344 38.234375 99.398438 38.292969 99.339844 38.347656 C 99.226562 38.460938 99.140625 38.601562 99.039062 38.734375 C 98.746094 38.605469 98.734375 38.394531 98.859375 38.21875 C 98.996094 38.027344 99.195312 37.882812 99.375 37.71875 C 99.492188 37.609375 99.648438 37.527344 99.730469 37.398438 C 99.847656 37.210938 99.949219 37 99.996094 36.785156 C 100.050781 36.554688 100.058594 36.304688 100.035156 36.066406 C 100.015625 35.847656 99.851562 35.738281 99.628906 35.789062 C 99.429688 35.835938 99.238281 35.917969 99.039062 35.96875 C 98.839844 36.019531 98.640625 36.078125 98.4375 36.085938 C 97.832031 36.105469 97.808594 36.117188 97.777344 36.714844 C 97.753906 37.148438 97.507812 37.394531 97.058594 37.378906 C 96.839844 37.371094 96.617188 37.292969 96.410156 37.214844 C 96.027344 37.066406 95.675781 37.082031 95.347656 37.339844 C 94.984375 37.628906 94.613281 37.632812 94.191406 37.445312 C 93.707031 37.222656 93.519531 37.308594 93.167969 37.707031 C 92.769531 38.15625 92.566406 38.703125 92.375 39.25 C 92.210938 39.734375 92.449219 40.074219 92.964844 40.082031 C 93.445312 40.085938 93.78125 40.324219 94.089844 40.636719 C 94.164062 40.710938 94.171875 40.851562 94.234375 41.015625 C 93.753906 41.046875 93.332031 41.152344 92.941406 41.082031 C 91.675781 40.859375 90.433594 40.992188 89.1875 41.171875 C 88.785156 41.230469 88.417969 41.363281 88.15625 41.6875 C 87.9375 41.960938 87.648438 42.117188 87.34375 42.269531 C 86.917969 42.484375 86.402344 42.5625 86.109375 43.019531 C 86.058594 43.101562 85.882812 43.125 85.757812 43.132812 C 84.917969 43.195312 84.546875 43.820312 84.898438 44.582031 C 84.976562 44.75 85.058594 44.933594 85.066406 45.109375 C 85.085938 45.410156 85.078125 45.730469 84.746094 45.886719 C 84.46875 46.023438 84.074219 45.933594 83.820312 45.675781 C 83.648438 45.503906 83.511719 45.292969 83.324219 45.140625 C 83.140625 44.992188 82.929688 44.84375 82.707031 44.785156 C 82.183594 44.652344 81.648438 44.566406 81.113281 44.472656 C 80.648438 44.390625 80.152344 44.3125 79.777344 44.6875 C 79.40625 45.058594 79.015625 45.105469 78.546875 44.957031 C 78.1875 44.84375 77.855469 44.902344 77.53125 45.128906 C 77.339844 45.265625 77.101562 45.34375 76.871094 45.421875 C 76.378906 45.589844 76.375 45.585938 76.09375 45.113281 C 75.992188 44.945312 75.871094 44.769531 75.664062 44.828125 C 75.523438 44.867188 75.371094 44.996094 75.304688 45.128906 C 75.210938 45.328125 75.277344 45.539062 75.457031 45.683594 C 75.539062 45.753906 75.648438 45.800781 75.75 45.84375 C 75.960938 45.9375 76.039062 46.121094 75.957031 46.300781 C 75.902344 46.429688 75.738281 46.515625 75.605469 46.597656 C 75.550781 46.632812 75.460938 46.609375 75.382812 46.613281 C 74.714844 46.644531 74.714844 46.644531 74.617188 47.296875 C 74.566406 47.632812 74.246094 47.902344 73.945312 47.796875 C 73.75 47.730469 73.546875 47.570312 73.433594 47.398438 C 73.261719 47.132812 73.050781 46.945312 72.78125 46.796875 C 72.621094 46.707031 72.488281 46.570312 72.335938 46.460938 C 72.128906 46.308594 71.921875 46.144531 71.699219 46.015625 C 71.367188 45.820312 71.316406 45.585938 71.664062 45.390625 C 72.15625 45.109375 72.261719 44.761719 72.046875 44.265625 C 72.019531 44.199219 72.007812 44.121094 72.003906 44.046875 C 71.960938 43.339844 71.632812 42.929688 70.898438 42.777344 C 70.011719 42.589844 70.035156 42.550781 69.554688 43.304688 C 69.304688 43.699219 69.058594 44.15625 68.554688 44.242188 C 67.96875 44.339844 67.84375 44.753906 67.679688 45.195312 C 68.148438 45.359375 68.585938 45.507812 69.015625 45.671875 C 69.15625 45.722656 69.300781 45.789062 69.410156 45.882812 C 69.621094 46.054688 69.566406 46.28125 69.304688 46.332031 C 69.066406 46.375 68.816406 46.347656 68.574219 46.378906 C 67.871094 46.464844 67.167969 46.558594 66.535156 46.914062 C 66.15625 47.125 66.03125 47.085938 65.832031 46.691406 C 65.78125 46.589844 65.734375 46.488281 65.691406 46.382812 C 65.511719 45.957031 65.515625 45.945312 65.894531 45.648438 C 66.230469 45.378906 66.292969 45.019531 65.976562 44.738281 C 65.65625 44.457031 65.304688 44.160156 64.914062 44.019531 C 64.480469 43.863281 64.089844 43.707031 63.761719 43.375 C 63.515625 43.125 63.210938 43.09375 62.992188 43.273438 C 62.636719 43.570312 62.222656 43.820312 62.089844 44.320312 C 62.003906 44.644531 61.785156 44.871094 61.492188 45.035156 C 61.378906 45.101562 61.261719 45.171875 61.167969 45.261719 C 60.890625 45.53125 60.917969 45.996094 61.226562 46.320312 C 61.511719 46.621094 61.828125 46.605469 62.148438 46.269531 C 62.214844 46.203125 62.265625 46.121094 62.328125 46.054688 C 62.679688 45.699219 63.21875 45.738281 63.480469 46.164062 C 63.589844 46.34375 63.628906 46.566406 63.703125 46.78125 C 63.066406 47.011719 62.492188 47.21875 61.925781 47.4375 C 61.785156 47.488281 61.621094 47.550781 61.542969 47.664062 C 61.09375 48.289062 60.550781 48.296875 59.894531 48.023438 C 59.476562 47.847656 59.378906 47.820312 59.402344 47.34375 C 59.425781 46.863281 59.203125 46.5625 58.796875 46.367188 C 58.457031 46.199219 58.097656 46.164062 57.722656 46.109375 C 57.054688 46.011719 56.378906 45.8125 55.769531 45.515625 C 55.484375 45.375 55.261719 45.277344 54.953125 45.332031 C 54.675781 45.378906 54.394531 45.390625 54.117188 45.433594 C 53.769531 45.488281 53.457031 45.429688 53.132812 45.28125 C 52.882812 45.167969 52.601562 45.117188 52.328125 45.074219 C 51.609375 44.960938 50.875 44.988281 50.171875 44.710938 C 49.6875 44.515625 49.164062 44.429688 48.671875 44.8125 C 48.566406 44.898438 48.316406 44.84375 48.152344 44.792969 C 48.019531 44.75 47.898438 44.628906 47.800781 44.519531 C 47.582031 44.269531 47.335938 44.183594 47 44.265625 C 46.832031 44.304688 46.628906 44.265625 46.464844 44.199219 C 45.640625 43.867188 44.800781 43.683594 43.90625 43.667969 C 43.15625 43.65625 42.492188 44 41.765625 44.078125 C 41.519531 44.105469 41.300781 44.171875 41.0625 44.050781 C 40.785156 43.910156 40.542969 43.953125 40.421875 44.273438 C 40.328125 44.507812 40.160156 44.578125 39.925781 44.523438 C 39.628906 44.453125 39.378906 44.558594 39.136719 44.722656 C 38.855469 44.910156 38.542969 45.054688 38.269531 45.25 C 37.832031 45.558594 37.34375 45.839844 36.996094 46.238281 C 36.644531 46.640625 36.28125 46.921875 35.765625 47.054688 C 35.527344 47.117188 35.25 47.257812 35.121094 47.449219 C 34.710938 48.050781 34.367188 48.691406 33.996094 49.316406 C 33.980469 49.347656 33.972656 49.386719 33.96875 49.425781 C 33.933594 49.640625 33.808594 49.75 33.589844 49.773438 C 33.261719 49.808594 33.050781 50.015625 32.886719 50.28125 C 32.769531 50.472656 32.667969 50.675781 32.542969 50.863281 C 32.316406 51.207031 32.253906 51.566406 32.445312 51.929688 C 32.628906 52.285156 32.464844 52.542969 32.273438 52.804688 C 32.15625 52.96875 31.980469 53.027344 31.835938 52.902344 C 31.726562 52.8125 31.679688 52.636719 31.632812 52.492188 C 31.617188 52.433594 31.675781 52.351562 31.699219 52.28125 C 31.882812 51.644531 31.824219 51.09375 31.203125 50.703125 C 30.910156 50.519531 30.703125 50.253906 30.628906 49.898438 C 30.613281 49.820312 30.535156 49.753906 30.488281 49.683594 C 29.945312 49.894531 29.6875 50.273438 29.710938 50.800781 C 29.726562 51.25 29.742188 51.699219 29.765625 52.152344 C 29.773438 52.320312 29.777344 52.496094 29.828125 52.652344 C 30.003906 53.152344 30.140625 53.644531 30.082031 54.191406 C 30.046875 54.523438 30.355469 54.695312 30.660156 54.546875 C 30.789062 54.480469 30.886719 54.355469 31 54.261719 C 31.105469 54.179688 31.21875 54.109375 31.414062 53.96875 C 31.386719 54.433594 31.132812 54.605469 30.921875 54.800781 C 30.746094 54.96875 30.558594 55.125 30.386719 55.296875 C 30.160156 55.519531 30.109375 55.753906 30.289062 56.050781 C 30.421875 56.273438 30.5 56.535156 30.558594 56.789062 C 30.640625 57.152344 30.515625 57.359375 30.164062 57.484375 C 29.746094 57.636719 29.351562 57.679688 28.941406 57.375 C 28.472656 57.023438 28.074219 57.074219 27.605469 57.417969 C 27.488281 57.503906 27.355469 57.574219 27.222656 57.636719 C 26.722656 57.867188 26.613281 58.039062 26.757812 58.558594 C 26.867188 58.949219 26.8125 59.289062 26.644531 59.644531 C 26.429688 60.101562 26.21875 60.5625 26.246094 61.097656 C 26.253906 61.261719 26.132812 61.445312 26.035156 61.597656 C 25.808594 61.9375 25.6875 62.300781 25.742188 62.714844 C 25.804688 63.179688 25.851562 63.644531 25.9375 64.105469 C 25.972656 64.28125 26.066406 64.464844 26.1875 64.597656 C 26.414062 64.847656 26.472656 65.128906 26.386719 65.429688 C 26.257812 65.882812 26.125 66.332031 25.949219 66.765625 C 25.632812 67.554688 25.738281 67.929688 26.472656 68.351562 C 26.585938 68.417969 26.707031 68.46875 26.832031 68.511719 C 27.164062 68.632812 27.507812 68.734375 27.835938 68.867188 C 27.941406 68.910156 28.078125 69.035156 28.078125 69.125 C 28.082031 69.214844 27.9375 69.3125 27.847656 69.394531 C 27.8125 69.429688 27.746094 69.429688 27.691406 69.453125 C 27.113281 69.703125 26.960938 70.074219 27.152344 70.675781 C 27.246094 70.976562 27.324219 71.289062 27.375 71.601562 C 27.464844 72.167969 27.300781 72.640625 26.804688 72.96875 C 26.257812 73.328125 26.023438 73.816406 26.203125 74.464844 C 26.261719 74.671875 26.203125 74.824219 26.042969 74.964844 C 25.785156 75.183594 25.53125 75.410156 25.289062 75.640625 C 25.136719 75.789062 24.972656 75.839844 24.78125 75.75 C 24.492188 75.621094 24.207031 75.609375 23.902344 75.707031 C 23.804688 75.738281 23.664062 75.746094 23.578125 75.699219 C 23.152344 75.460938 22.753906 75.570312 22.335938 75.734375 C 21.714844 75.980469 21.082031 76.101562 20.429688 75.8125 C 20.039062 75.636719 19.628906 75.492188 19.238281 75.316406 C 18.785156 75.109375 18.394531 75.121094 18.207031 75.375 C 18.015625 75.636719 18.089844 75.949219 18.429688 76.328125 C 18.617188 76.535156 18.808594 76.746094 18.992188 76.957031 C 19.269531 77.277344 19.59375 77.507812 19.996094 77.65625 C 20.289062 77.765625 20.5625 77.949219 20.824219 78.128906 C 20.910156 78.191406 21.011719 78.378906 20.976562 78.445312 C 20.773438 78.882812 20.648438 79.382812 20.214844 79.671875 C 19.75 79.980469 19.289062 80.296875 18.792969 80.558594 C 18.429688 80.753906 18.230469 80.984375 18.34375 81.40625 C 18.414062 81.679688 18.261719 81.820312 18.054688 81.949219 C 17.832031 82.085938 17.613281 82.199219 17.382812 82.007812 C 17.152344 81.820312 16.9375 81.613281 16.730469 81.398438 C 16.433594 81.085938 16.207031 81.003906 15.832031 81.1875 C 15.460938 81.367188 15.101562 81.570312 14.773438 81.8125 C 14.5625 81.964844 14.417969 81.984375 14.230469 81.820312 C 14.132812 81.730469 14.027344 81.648438 13.914062 81.589844 C 13.429688 81.339844 12.949219 81.441406 12.71875 81.929688 C 12.476562 82.4375 12.113281 82.59375 11.585938 82.695312 C 10.59375 82.886719 9.820312 83.457031 9.496094 84.449219 C 9.347656 84.898438 9.1875 85.285156 8.800781 85.566406 C 8.59375 85.714844 8.453125 85.9375 8.507812 86.199219 C 8.585938 86.578125 8.5625 86.941406 8.445312 87.304688 C 8.414062 87.417969 8.425781 87.574219 8.472656 87.691406 C 8.773438 88.449219 8.410156 89.078125 8.121094 89.730469 C 7.976562 90.050781 7.847656 90.382812 7.757812 90.71875 C 7.703125 90.9375 7.617188 91.082031 7.425781 91.203125 C 6.628906 91.722656 5.839844 92.257812 5.054688 92.792969 C 4.835938 92.941406 4.730469 93.160156 4.785156 93.425781 C 4.84375 93.710938 5.046875 93.835938 5.316406 93.835938 C 5.597656 93.835938 5.800781 93.980469 6.027344 94.121094 C 6.425781 94.371094 6.71875 94.679688 6.902344 95.113281 C 6.988281 95.3125 7.15625 95.484375 7.316406 95.640625 C 7.546875 95.867188 7.609375 96.070312 7.421875 96.378906 C 7.167969 96.792969 7.234375 97.046875 7.578125 97.378906 C 7.671875 97.46875 7.785156 97.542969 7.878906 97.632812 C 8.457031 98.167969 8.902344 98.765625 8.96875 99.601562 C 8.988281 99.859375 9.171875 100.109375 9.304688 100.351562 C 9.394531 100.511719 9.539062 100.640625 9.648438 100.792969 C 10.222656 101.574219 10.539062 102.484375 10.863281 103.382812 C 10.921875 103.539062 10.871094 103.746094 10.839844 103.925781 C 10.792969 104.164062 10.6875 104.390625 10.664062 104.628906 C 10.640625 104.914062 10.617188 105.175781 10.457031 105.433594 C 10.289062 105.703125 10.375 105.933594 10.652344 106.09375 C 10.796875 106.171875 10.976562 106.195312 11.125 106.273438 C 11.265625 106.351562 11.457031 106.441406 11.5 106.570312 C 11.648438 106.984375 11.953125 107.253906 12.25 107.539062 C 12.5625 107.835938 12.773438 108.164062 12.691406 108.632812 C 12.636719 108.957031 12.714844 109.257812 12.960938 109.511719 C 13.050781 109.605469 13.097656 109.777344 13.097656 109.910156 C 13.097656 110.429688 13.316406 110.660156 13.828125 110.632812 C 13.988281 110.625 14.148438 110.601562 14.347656 110.578125 C 14.390625 110.890625 14.375 111.164062 14.46875 111.398438 C 14.632812 111.816406 14.519531 112.121094 14.207031 112.402344 C 13.898438 112.683594 13.882812 113.039062 14.054688 113.382812 C 14.171875 113.609375 14.355469 113.808594 14.53125 114 C 14.660156 114.148438 14.796875 114.28125 14.671875 114.488281 C 14.410156 114.917969 14.5 115.402344 14.457031 115.863281 C 14.425781 116.148438 14.535156 116.390625 14.835938 116.480469 C 15.105469 116.5625 15.175781 116.761719 15.273438 117.003906 C 15.539062 117.675781 15.882812 118.335938 16.625 118.566406 C 17.277344 118.769531 17.769531 119.191406 18.300781 119.570312 C 18.390625 119.632812 18.476562 119.710938 18.570312 119.773438 C 19.066406 120.09375 19.367188 120.019531 19.664062 119.503906 C 19.867188 119.15625 19.964844 119.105469 20.347656 119.199219 C 20.511719 119.238281 20.671875 119.296875 20.828125 119.355469 C 21.09375 119.453125 21.339844 119.445312 21.574219 119.269531 C 21.660156 119.207031 21.761719 119.160156 21.851562 119.109375 C 22.0625 119.351562 22.0625 119.351562 22.050781 119.761719 C 22.035156 120.0625 22.136719 120.175781 22.382812 120.144531 C 22.636719 120.109375 22.890625 120.082031 23.148438 120.066406 C 23.359375 120.054688 23.53125 119.964844 23.5625 119.757812 C 23.617188 119.421875 23.835938 119.261719 24.09375 119.082031 C 24.6875 118.664062 24.777344 118.34375 24.589844 117.636719 C 24.554688 117.507812 24.519531 117.382812 24.5 117.253906 C 24.445312 116.890625 24.285156 116.621094 23.917969 116.492188 C 23.585938 116.378906 23.460938 116.117188 23.480469 115.785156 C 23.503906 115.316406 23.539062 114.851562 23.566406 114.382812 C 23.59375 113.980469 23.828125 113.695312 24.160156 113.550781 C 24.59375 113.363281 24.933594 113.144531 25.113281 112.671875 C 25.230469 112.359375 25.5 112.34375 25.738281 112.609375 C 25.925781 112.8125 26.050781 113.074219 26.214844 113.300781 C 26.367188 113.511719 26.507812 113.742188 26.699219 113.914062 C 27.085938 114.261719 27.480469 114.261719 27.933594 113.984375 C 28.105469 113.882812 28.300781 113.820312 28.492188 113.742188 C 28.664062 113.671875 28.867188 113.644531 29.007812 113.539062 C 29.257812 113.34375 29.488281 113.324219 29.789062 113.40625 C 30.234375 113.523438 30.617188 113.296875 30.738281 112.921875 C 30.886719 112.453125 31.058594 112.328125 31.492188 112.53125 C 31.941406 112.738281 32.359375 112.859375 32.839844 112.667969 C 33.027344 112.59375 33.152344 112.703125 33.191406 112.914062 C 33.261719 113.324219 33.164062 113.515625 32.742188 113.734375 C 32.710938 113.75 32.664062 113.757812 32.644531 113.789062 C 32.601562 113.859375 32.523438 113.953125 32.542969 114.019531 C 32.558594 114.078125 32.691406 114.164062 32.75 114.148438 C 32.921875 114.101562 33.089844 114.019531 33.246094 113.925781 C 33.546875 113.746094 33.785156 113.796875 33.925781 114.113281 C 33.992188 114.265625 34.011719 114.4375 34.066406 114.597656 C 34.261719 115.175781 34.648438 115.414062 35.238281 115.289062 C 35.53125 115.226562 35.824219 115.144531 36.101562 115.03125 C 36.261719 114.960938 36.402344 114.820312 36.523438 114.6875 C 36.625 114.582031 36.664062 114.414062 36.769531 114.3125 C 37.132812 113.976562 37.242188 113.609375 36.988281 113.15625 C 36.890625 112.980469 36.933594 112.792969 37.121094 112.734375 C 37.539062 112.601562 37.679688 112.292969 37.6875 111.902344 C 38.175781 111.929688 38.238281 111.960938 38.175781 112.320312 C 38.078125 112.863281 38.316406 113.238281 38.722656 113.523438 C 38.960938 113.695312 39.242188 113.816406 39.515625 113.933594 C 39.875 114.078125 40.210938 114.003906 40.519531 113.765625 C 40.636719 113.675781 40.765625 113.554688 40.898438 113.539062 C 41.464844 113.472656 41.914062 113.195312 42.34375 112.839844 C 42.679688 112.554688 42.882812 112.589844 43.234375 112.890625 C 43.433594 113.0625 43.621094 113.257812 43.84375 113.386719 C 44.136719 113.546875 44.261719 113.792969 44.359375 114.089844 C 44.453125 114.390625 44.53125 114.71875 44.714844 114.96875 C 44.9375 115.273438 44.996094 115.546875 44.898438 115.90625 C 44.761719 116.421875 44.6875 116.933594 45.09375 117.402344 C 45.238281 117.574219 45.070312 117.8125 44.847656 117.734375 C 44.3125 117.542969 43.683594 117.640625 43.230469 117.171875 C 42.96875 116.898438 42.738281 116.910156 42.421875 117.113281 C 42.296875 117.195312 42.171875 117.292969 42.089844 117.414062 C 41.78125 117.867188 41.289062 117.90625 40.847656 118.050781 C 40.785156 117.976562 40.742188 117.9375 40.722656 117.886719 C 40.40625 117.136719 40.226562 117.0625 39.496094 117.347656 C 39.347656 117.40625 39.152344 117.457031 39.015625 117.410156 C 38.507812 117.238281 37.945312 117.222656 37.519531 116.808594 C 37.265625 116.554688 36.921875 116.511719 36.582031 116.707031 C 36.144531 116.960938 35.878906 117.582031 36.003906 118.070312 C 36.066406 118.296875 36.171875 118.554688 36.414062 118.550781 C 36.914062 118.550781 37.238281 118.878906 37.621094 119.097656 C 38.320312 119.496094 38.320312 119.503906 38.863281 118.886719 C 39.019531 118.707031 39.175781 118.652344 39.40625 118.746094 C 39.714844 118.875 40.03125 118.980469 40.351562 119.070312 C 40.746094 119.1875 40.96875 119.453125 40.964844 119.839844 C 40.964844 120.136719 40.839844 120.265625 40.550781 120.226562 C 40.347656 120.199219 40.15625 120.105469 39.953125 120.0625 C 39.636719 119.992188 39.371094 120.105469 39.285156 120.332031 C 39.199219 120.558594 39.304688 120.882812 39.574219 121 C 40.039062 121.199219 40.527344 121.375 41.027344 121.082031 C 41.265625 120.9375 41.507812 120.921875 41.78125 120.933594 C 42.300781 120.953125 42.832031 120.964844 43.347656 120.90625 C 43.617188 120.875 43.792969 120.914062 43.996094 121.09375 C 44.359375 121.414062 44.796875 121.566406 45.296875 121.476562 C 45.808594 121.390625 45.867188 121.425781 46.070312 121.886719 C 46.296875 122.40625 46.453125 122.476562 46.984375 122.246094 C 47.566406 121.996094 48.175781 121.882812 48.796875 121.894531 C 49.277344 121.902344 49.640625 121.769531 49.878906 121.34375 C 50.089844 120.972656 50.449219 120.804688 50.824219 120.675781 C 51.34375 120.492188 51.683594 120.65625 51.917969 121.15625 C 52.007812 121.339844 52.082031 121.554688 52.226562 121.683594 C 52.605469 122.015625 53 122.339844 53.425781 122.613281 C 53.878906 122.90625 54.34375 122.761719 54.628906 122.296875 C 54.691406 122.199219 54.726562 122.089844 54.773438 121.992188 C 54.972656 121.554688 55.03125 121.09375 55.054688 120.621094 C 55.074219 120.207031 55.257812 120.085938 55.59375 120.277344 C 56.011719 120.519531 56.304688 120.417969 56.648438 120.117188 C 57.082031 119.730469 57.621094 119.78125 58.074219 120.160156 C 58.332031 120.378906 58.597656 120.589844 58.886719 120.765625 C 59.332031 121.039062 59.640625 120.96875 59.960938 120.558594 C 60.039062 120.453125 60.085938 120.308594 60.1875 120.242188 C 60.332031 120.140625 60.523438 120.019531 60.675781 120.042969 C 61.230469 120.113281 61.8125 120.15625 62.320312 120.363281 C 63.191406 120.71875 64.050781 120.625 64.917969 120.46875 C 65.242188 120.410156 65.542969 120.382812 65.855469 120.492188 C 66.203125 120.613281 66.546875 120.609375 66.898438 120.472656 C 67.621094 120.195312 67.796875 120.242188 68.292969 120.867188 C 68.535156 121.167969 68.8125 121.34375 69.210938 121.300781 C 69.339844 121.285156 69.472656 121.308594 69.605469 121.308594 C 70.074219 121.308594 70.285156 121.144531 70.398438 120.679688 C 70.445312 120.503906 70.480469 120.328125 70.519531 120.164062 C 71.113281 120.191406 71.652344 120.179688 72.183594 120.246094 Z M 17.664062 110.222656 C 17.621094 110.347656 17.5625 110.46875 17.542969 110.597656 C 17.476562 111.09375 17.804688 111.417969 18.285156 111.265625 C 18.726562 111.128906 19.085938 111.226562 19.460938 111.441406 C 19.914062 111.707031 19.980469 111.988281 19.675781 112.402344 C 19.5625 112.550781 19.433594 112.691406 19.339844 112.851562 C 19.136719 113.207031 19.230469 113.425781 19.609375 113.527344 C 20.144531 113.671875 20.148438 113.671875 20.175781 114.222656 C 20.1875 114.488281 20.191406 114.75 20.179688 115.011719 C 20.160156 115.332031 20.082031 115.394531 19.757812 115.398438 C 19.589844 115.398438 19.417969 115.367188 19.253906 115.375 C 18.894531 115.394531 18.761719 115.503906 18.789062 115.859375 C 18.816406 116.226562 18.710938 116.453125 18.386719 116.640625 C 18.1875 116.757812 18.0625 116.996094 17.894531 117.171875 C 17.5625 117.507812 16.6875 117.371094 16.472656 116.953125 C 16.367188 116.753906 16.464844 116.453125 16.695312 116.324219 C 16.789062 116.273438 16.90625 116.257812 17.015625 116.230469 C 17.496094 116.113281 17.554688 115.914062 17.203125 115.546875 C 17.035156 115.371094 16.847656 115.214844 16.6875 115.027344 C 16.460938 114.769531 16.191406 114.65625 15.84375 114.671875 C 15.644531 114.683594 15.425781 114.664062 15.246094 114.582031 C 15.003906 114.476562 15.015625 114.214844 15.261719 114.125 C 15.445312 114.058594 15.660156 114.0625 15.863281 114.0625 C 16.371094 114.070312 16.550781 113.902344 16.511719 113.394531 C 16.496094 113.1875 16.433594 112.988281 16.425781 112.78125 C 16.417969 112.558594 16.402344 112.320312 16.472656 112.117188 C 16.625 111.679688 16.65625 111.238281 16.59375 110.785156 C 16.550781 110.445312 16.597656 110.179688 16.898438 109.949219 C 17.09375 109.800781 17.199219 109.539062 17.347656 109.328125 C 17.773438 109.671875 17.8125 109.78125 17.664062 110.222656 Z M 123.085938 47.585938 C 122.4375 47.5 122.449219 47.476562 122.359375 48.101562 C 122.332031 48.289062 122.238281 48.46875 122.171875 48.671875 C 121.839844 48.554688 121.816406 48.320312 121.789062 48.105469 C 121.703125 47.472656 121.636719 46.839844 121.257812 46.289062 C 121.113281 46.082031 121.257812 45.945312 121.46875 45.867188 C 122.152344 45.617188 122.15625 45.613281 122.15625 44.886719 C 122.160156 44.597656 122.15625 44.304688 122.460938 44.152344 C 122.742188 44.011719 123.011719 44.109375 123.257812 44.265625 C 123.496094 44.414062 123.746094 44.550781 123.953125 44.738281 C 124.496094 45.230469 125.160156 45.335938 125.835938 45.332031 C 126.4375 45.328125 126.949219 45.523438 127.347656 45.921875 C 127.828125 46.402344 128.367188 46.4375 128.953125 46.277344 C 129.222656 46.203125 129.480469 46.074219 129.738281 45.957031 C 129.933594 45.867188 130.101562 45.886719 130.242188 46.054688 C 130.472656 46.339844 130.796875 46.589844 130.742188 47.019531 C 130.722656 47.171875 130.636719 47.3125 130.566406 47.511719 C 130.371094 47.386719 130.25 47.308594 130.128906 47.234375 C 129.683594 46.957031 129.292969 47.082031 129.085938 47.570312 C 129.019531 47.738281 129.011719 48.011719 128.773438 47.964844 C 128.582031 47.925781 128.308594 47.773438 128.253906 47.609375 C 127.964844 46.730469 127.25 46.679688 126.523438 46.691406 C 126.160156 46.695312 125.859375 46.628906 125.613281 46.359375 C 125.578125 46.316406 125.53125 46.28125 125.484375 46.25 C 125.253906 46.070312 125.03125 45.808594 124.695312 45.992188 C 124.460938 46.121094 124.347656 46.722656 124.488281 47.035156 C 124.570312 47.21875 124.6875 47.386719 124.878906 47.703125 C 124.191406 47.660156 123.632812 47.660156 123.085938 47.585938 Z M 185.578125 56.71875 C 185.714844 56.628906 185.847656 56.539062 185.976562 56.449219 C 186.402344 56.148438 186.402344 55.855469 185.988281 55.574219 C 185.539062 55.265625 185.546875 55.269531 185.746094 54.71875 C 185.863281 54.386719 185.960938 54.058594 186.265625 53.8125 C 186.648438 53.5 187.078125 53.589844 187.5 53.585938 C 187.578125 53.585938 187.695312 53.710938 187.71875 53.796875 C 187.742188 53.886719 187.6875 54.015625 187.625 54.09375 C 187.574219 54.160156 187.46875 54.191406 187.378906 54.21875 C 187.09375 54.324219 187.03125 54.511719 187.097656 54.800781 C 187.132812 54.949219 187.152344 55.152344 187.078125 55.269531 C 186.683594 55.878906 186.820312 56.445312 187.15625 57.011719 C 187.21875 57.121094 187.289062 57.230469 187.378906 57.375 C 186.816406 57.574219 185.996094 57.261719 185.578125 56.71875 Z M 110.648438 42.265625 C 111.238281 42.238281 111.722656 42.542969 112.199219 42.832031 C 112.300781 42.894531 112.375 43.082031 112.386719 43.214844 C 112.410156 43.523438 112.488281 43.789062 112.675781 44.042969 C 112.839844 44.265625 112.71875 44.449219 112.441406 44.433594 C 112.070312 44.417969 111.699219 44.394531 111.332031 44.339844 C 110.976562 44.289062 110.679688 44.09375 110.558594 43.757812 C 110.332031 43.128906 109.984375 42.636719 109.332031 42.398438 C 109.769531 42.355469 110.207031 42.289062 110.648438 42.265625 Z M 190.757812 56.300781 C 190.589844 55.882812 190.339844 55.566406 189.894531 55.398438 C 189.480469 55.246094 189.472656 55.140625 189.699219 54.777344 C 189.78125 54.652344 189.847656 54.515625 189.933594 54.398438 C 190.105469 54.167969 190.300781 54.167969 190.492188 54.382812 C 190.542969 54.441406 190.582031 54.507812 190.609375 54.574219 C 190.746094 54.886719 190.980469 55.070312 191.292969 55.199219 C 191.691406 55.363281 191.742188 55.523438 191.566406 55.902344 C 191.433594 56.183594 191.339844 56.503906 190.957031 56.6875 C 190.871094 56.527344 190.804688 56.417969 190.757812 56.300781 Z M 183.136719 54.863281 C 183.1875 54.878906 183.246094 54.910156 183.273438 54.953125 C 183.648438 55.527344 184.015625 56.105469 184.386719 56.679688 C 184.050781 56.917969 183.90625 56.941406 183.648438 56.683594 C 183.316406 56.355469 183.007812 55.996094 182.730469 55.621094 C 182.558594 55.382812 182.382812 55.195312 182.085938 55.128906 C 181.675781 55.035156 181.519531 54.691406 181.277344 54.308594 C 181.972656 54.519531 182.554688 54.6875 183.136719 54.863281 Z M 131.339844 41.757812 C 131.164062 41.914062 130.945312 42.058594 130.804688 42.257812 C 130.675781 42.4375 130.625 42.675781 130.535156 42.910156 C 130.238281 42.777344 130.269531 42.535156 130.183594 42.363281 C 130.121094 42.230469 130.054688 42.09375 130 41.957031 C 129.65625 41.132812 129.65625 41.132812 130.378906 40.523438 C 130.703125 40.941406 131.003906 41.328125 131.339844 41.757812 Z M 156.457031 117.265625 C 156.390625 117.15625 156.335938 117.027344 156.316406 116.902344 C 156.285156 116.667969 156.429688 116.515625 156.640625 116.59375 C 157.09375 116.761719 157.535156 116.960938 157.96875 117.164062 C 158.078125 117.214844 158.175781 117.324219 158.246094 117.429688 C 158.398438 117.652344 158.304688 117.824219 158.027344 117.84375 C 157.898438 117.851562 157.765625 117.832031 157.558594 117.820312 C 157.109375 117.921875 156.726562 117.703125 156.457031 117.265625 Z M 30.164062 67.292969 C 30.046875 67.351562 29.914062 67.382812 29.800781 67.445312 C 29.421875 67.660156 29.347656 67.902344 29.484375 68.324219 C 29.519531 68.429688 29.503906 68.570312 29.464844 68.675781 C 29.453125 68.714844 29.269531 68.75 29.21875 68.710938 C 29.128906 68.640625 29.003906 68.5 29.023438 68.417969 C 29.097656 68.113281 28.933594 67.933594 28.773438 67.71875 C 28.527344 67.390625 28.652344 66.988281 29.027344 66.925781 C 29.460938 66.851562 29.910156 66.863281 30.328125 66.835938 C 30.445312 67.101562 30.324219 67.210938 30.164062 67.292969 Z M 199.976562 60.761719 C 199.941406 60.828125 199.902344 60.894531 199.855469 60.949219 C 199.6875 61.128906 199.496094 61.339844 199.230469 61.199219 C 198.960938 61.058594 199.105469 60.796875 199.171875 60.597656 C 199.265625 60.332031 199.394531 60.082031 199.519531 59.832031 C 199.730469 59.410156 199.835938 59.378906 200.257812 59.570312 C 200.324219 59.601562 200.386719 59.648438 200.441406 59.695312 C 200.464844 59.71875 200.472656 59.761719 200.457031 59.726562 C 200.28125 60.105469 200.128906 60.433594 199.976562 60.761719 Z M 191.558594 57.707031 C 191.820312 57.800781 192.089844 57.902344 192.320312 58.058594 C 192.6875 58.308594 193.0625 58.472656 193.519531 58.433594 C 193.683594 58.421875 193.859375 58.492188 193.800781 58.808594 C 193.660156 58.777344 193.507812 58.78125 193.402344 58.710938 C 193.171875 58.554688 192.964844 58.550781 192.726562 58.695312 C 192.355469 58.921875 192.011719 58.859375 191.710938 58.550781 C 191.472656 58.304688 191.167969 58.109375 191.019531 57.789062 C 191.042969 57.738281 191.066406 57.6875 191.089844 57.636719 C 191.25 57.660156 191.414062 57.652344 191.558594 57.707031 Z M 187.789062 56.058594 C 187.6875 55.800781 187.617188 55.53125 187.5625 55.261719 C 187.542969 55.15625 187.574219 54.976562 187.644531 54.929688 C 187.726562 54.875 187.921875 54.878906 187.992188 54.945312 C 188.214844 55.144531 188.429688 55.363281 188.589844 55.613281 C 188.78125 55.910156 188.464844 56.390625 188.023438 56.382812 C 187.964844 56.308594 187.84375 56.195312 187.789062 56.058594 Z M 120.570312 55.398438 C 120.84375 55.394531 121.070312 55.585938 121.074219 55.820312 C 121.074219 56.066406 120.660156 56.46875 120.398438 56.480469 C 120.148438 56.492188 119.96875 56.261719 119.972656 55.929688 C 119.976562 55.625 120.222656 55.40625 120.570312 55.398438 Z M 184.671875 54.183594 C 184.375 54.761719 184.320312 54.792969 183.804688 54.582031 C 183.910156 54.390625 184.027344 54.207031 184.109375 54.011719 C 184.195312 53.8125 184.246094 53.597656 184.332031 53.335938 C 184.832031 53.65625 184.875 53.792969 184.671875 54.183594 Z M 187.550781 49.917969 C 187.976562 49.554688 188.46875 49.632812 188.898438 49.53125 C 188.992188 49.511719 189.125 49.65625 189.238281 49.726562 C 189.21875 49.785156 189.199219 49.847656 189.179688 49.90625 C 188.667969 50.03125 188.160156 50.28125 187.550781 49.917969 Z M 203.539062 68.132812 C 203.425781 67.734375 203.476562 67.53125 203.6875 67.417969 C 203.929688 67.292969 204.191406 67.429688 204.484375 67.914062 C 204.125 67.996094 203.832031 68.066406 203.539062 68.132812 Z M 115.457031 47.492188 C 115.25 47.558594 115.082031 47.527344 115.050781 47.277344 C 115.023438 47.074219 115.195312 46.863281 115.40625 46.863281 C 115.671875 46.863281 115.914062 46.9375 116.089844 47.292969 C 115.835938 47.375 115.648438 47.433594 115.457031 47.492188 Z M 105.84375 41.648438 C 105.9375 41.726562 106.011719 41.902344 105.996094 42.019531 C 105.964844 42.21875 105.777344 42.296875 105.601562 42.214844 C 105.394531 42.117188 105.210938 41.96875 104.996094 41.828125 C 105.339844 41.542969 105.632812 41.476562 105.84375 41.648438 Z M 176.132812 110.613281 C 176.136719 110.8125 175.921875 111.097656 175.75 111.097656 C 175.539062 111.101562 175.472656 110.945312 175.449219 110.769531 C 175.421875 110.507812 175.597656 110.195312 175.765625 110.1875 C 175.929688 110.179688 176.128906 110.40625 176.132812 110.613281 Z M 100.527344 40.457031 C 100.433594 40.546875 100.363281 40.671875 100.289062 40.671875 C 99.988281 40.675781 99.683594 40.640625 99.382812 40.617188 C 99.382812 40.558594 99.386719 40.503906 99.390625 40.445312 C 99.746094 40.257812 100.105469 40.144531 100.527344 40.457031 Z M 186.304688 50.289062 C 186.296875 50.128906 186.25 49.996094 186.292969 49.945312 C 186.527344 49.707031 186.8125 49.75 187.101562 49.925781 C 186.855469 50.039062 186.609375 50.152344 186.304688 50.289062 Z M 212.777344 86.296875 C 212.511719 86.617188 212.300781 86.445312 212.105469 86.449219 C 212.101562 86.398438 212.097656 86.347656 212.09375 86.296875 C 212.292969 86.296875 212.488281 86.296875 212.777344 86.296875 Z M 193.835938 65.054688 C 193.828125 65.054688 193.84375 64.960938 193.851562 64.960938 C 193.957031 64.953125 194.0625 64.957031 194.164062 64.957031 C 194.152344 65.023438 194.144531 65.09375 194.128906 65.160156 C 194.03125 65.125 193.929688 65.09375 193.835938 65.054688 Z M 116 43.945312 C 116 43.914062 116.074219 43.882812 116.117188 43.847656 C 116.164062 43.914062 116.238281 43.976562 116.257812 44.050781 C 116.269531 44.082031 116.183594 44.144531 116.089844 44.246094 C 116.046875 44.105469 116.007812 44.027344 116 43.945312 Z M 125.382812 48.171875 C 125.386719 48.1875 125.269531 48.253906 125.265625 48.25 C 125.214844 48.1875 125.164062 48.117188 125.128906 48.042969 C 125.125 48.03125 125.199219 47.984375 125.269531 47.925781 C 125.316406 48.023438 125.363281 48.09375 125.382812 48.171875 Z M 91.746094 31.332031 C 91.859375 31.332031 91.96875 31.328125 92.082031 31.332031 C 92.730469 31.363281 92.871094 31.546875 92.8125 32.207031 C 92.792969 32.382812 92.816406 32.605469 92.914062 32.734375 C 93.207031 33.113281 93.589844 33.402344 94.085938 33.445312 C 94.777344 33.503906 95.441406 33.617188 96.085938 33.925781 C 96.453125 34.101562 96.71875 34.296875 96.875 34.660156 C 96.925781 34.78125 96.980469 34.90625 97.054688 35.011719 C 97.320312 35.382812 98.035156 35.417969 98.289062 35.046875 C 98.480469 34.773438 98.648438 34.46875 98.742188 34.15625 C 98.828125 33.867188 98.96875 33.738281 99.253906 33.757812 C 99.664062 33.78125 100.074219 33.820312 100.484375 33.832031 C 101.046875 33.851562 101.226562 33.648438 101.078125 33.117188 C 101 32.832031 101.066406 32.628906 101.183594 32.378906 C 101.300781 32.140625 101.339844 31.835938 101.320312 31.570312 C 101.292969 31.136719 101.019531 31.039062 100.667969 31.292969 C 100.265625 31.578125 100.277344 31.566406 99.84375 31.292969 C 99.644531 31.167969 99.402344 31.035156 99.183594 31.039062 C 98.65625 31.046875 98.1875 30.859375 97.71875 30.679688 C 97.011719 30.40625 96.554688 30.644531 96.320312 31.378906 C 96.199219 31.761719 95.996094 32.132812 95.753906 32.457031 C 95.445312 32.867188 95.132812 32.804688 94.90625 32.347656 C 94.839844 32.210938 94.761719 32.078125 94.726562 31.933594 C 94.625 31.511719 94.367188 31.210938 94.078125 30.898438 C 93.484375 30.25 92.9375 29.554688 92.71875 28.664062 C 92.675781 28.488281 92.59375 28.304688 92.484375 28.160156 C 92.160156 27.71875 91.65625 27.730469 91.375 28.191406 C 91.109375 28.632812 90.929688 29.113281 90.957031 29.632812 C 90.976562 29.96875 90.933594 30.246094 90.742188 30.53125 C 90.511719 30.875 90.625 31.144531 91.023438 31.269531 C 91.25 31.339844 91.5 31.34375 91.738281 31.378906 C 91.742188 31.363281 91.742188 31.347656 91.746094 31.332031 Z M 26.714844 120.507812 C 27.023438 120.660156 27.261719 120.496094 27.441406 120.253906 C 27.648438 119.972656 27.914062 119.988281 28.199219 120.078125 C 28.664062 120.222656 29.109375 120.289062 29.539062 119.96875 C 29.757812 119.804688 29.90625 119.960938 30.0625 120.125 C 30.484375 120.5625 30.714844 120.554688 31.136719 120.121094 C 31.1875 120.066406 31.234375 120.007812 31.289062 119.953125 C 31.578125 119.6875 31.734375 119.675781 31.902344 120.011719 C 32.195312 120.597656 32.730469 120.921875 33.203125 121.308594 C 33.429688 121.496094 33.691406 121.523438 33.933594 121.351562 C 34.238281 121.136719 34.535156 120.90625 34.816406 120.660156 C 35.179688 120.347656 35.207031 119.941406 35.042969 119.527344 C 34.960938 119.324219 34.808594 119.148438 34.699219 118.949219 C 34.535156 118.660156 34.347656 118.378906 34.238281 118.066406 C 34.128906 117.746094 33.953125 117.554688 33.625 117.484375 C 33.40625 117.433594 33.191406 117.378906 32.976562 117.304688 C 32.328125 117.089844 32.089844 117.160156 31.667969 117.699219 C 31.578125 117.8125 31.457031 117.972656 31.339844 117.976562 C 30.824219 118.003906 30.296875 118.101562 29.863281 117.65625 C 29.503906 117.292969 29.367188 117.320312 28.921875 117.5625 C 28.273438 117.917969 27.730469 118.398438 27.203125 118.90625 C 27.109375 118.996094 26.953125 119.039062 26.816406 119.066406 C 26.421875 119.144531 26.277344 119.304688 26.273438 119.714844 C 26.277344 120.058594 26.398438 120.347656 26.714844 120.507812 Z M 44.660156 39.644531 C 45.011719 39.878906 45.117188 39.859375 45.339844 39.527344 C 45.453125 39.359375 45.550781 39.164062 45.703125 39.035156 C 46.03125 38.75 45.898438 38.257812 45.457031 38.101562 C 45.316406 38.050781 45.167969 38.039062 45.019531 38.003906 C 44.605469 37.90625 44.335938 37.664062 44.230469 37.234375 C 44.382812 37.117188 44.527344 37.027344 44.636719 36.90625 C 44.765625 36.761719 44.773438 36.566406 44.605469 36.464844 C 44.503906 36.40625 44.332031 36.453125 44.199219 36.484375 C 44.140625 36.496094 44.089844 36.582031 44.054688 36.644531 C 43.917969 36.886719 43.714844 36.921875 43.476562 36.839844 C 42.875 36.632812 42.433594 36.757812 42.136719 37.378906 C 41.957031 37.753906 41.839844 37.742188 41.476562 37.507812 C 41.128906 37.277344 40.9375 37.300781 40.644531 37.597656 C 40.1875 38.070312 40.171875 38.714844 40.660156 39.140625 C 40.992188 39.425781 41.203125 39.742188 41.28125 40.171875 C 41.363281 40.605469 41.644531 40.855469 42.097656 40.898438 C 42.246094 40.910156 42.394531 40.9375 42.542969 40.9375 C 43.285156 40.929688 43.847656 40.519531 44.101562 39.832031 C 44.148438 39.703125 44.242188 39.589844 44.328125 39.449219 C 44.472656 39.535156 44.566406 39.585938 44.660156 39.644531 Z M 117.058594 38.34375 C 117.566406 38.238281 118.082031 38.148438 118.585938 38.023438 C 118.867188 37.953125 118.921875 37.664062 118.707031 37.453125 C 118.621094 37.363281 118.5 37.292969 118.378906 37.246094 C 117.945312 37.074219 117.507812 36.914062 117.070312 36.746094 C 116.796875 36.640625 116.527344 36.632812 116.253906 36.753906 C 115.929688 36.902344 115.601562 36.894531 115.265625 36.796875 C 114.996094 36.714844 114.734375 36.609375 114.460938 36.5625 C 114.09375 36.496094 113.71875 36.414062 113.355469 36.445312 C 112.667969 36.503906 112.578125 36.695312 112.84375 37.339844 C 112.851562 37.355469 112.859375 37.371094 112.867188 37.390625 C 113.171875 38.355469 113.574219 38.421875 114.488281 38.386719 C 115.339844 38.359375 116.195312 38.285156 117.046875 38.230469 C 117.050781 38.265625 117.054688 38.304688 117.058594 38.34375 Z M 77.710938 37.0625 C 77.230469 37.371094 76.875 37.804688 76.625 38.316406 C 76.527344 38.523438 76.605469 38.734375 76.804688 38.851562 C 76.980469 38.953125 77.183594 39.082031 77.367188 39.070312 C 77.820312 39.046875 78.203125 39.191406 78.589844 39.398438 C 78.890625 39.554688 79.132812 39.472656 79.308594 39.183594 C 79.375 39.078125 79.421875 38.949219 79.449219 38.824219 C 79.523438 38.503906 79.695312 38.304688 80.015625 38.191406 C 80.257812 38.105469 80.472656 37.945312 80.683594 37.792969 C 81.035156 37.539062 81.015625 37.285156 80.636719 37.074219 C 80.28125 36.875 79.941406 36.964844 79.644531 37.199219 C 79.40625 37.390625 79.207031 37.40625 78.9375 37.253906 C 78.683594 37.109375 78.382812 37.046875 78.121094 36.957031 C 77.957031 36.996094 77.8125 36.996094 77.710938 37.0625 Z M 203.0625 49.195312 C 203.25 49.183594 203.4375 49.195312 203.617188 49.15625 C 204.152344 49.027344 204.46875 48.414062 204.328125 47.8125 C 204.222656 47.378906 203.894531 47.203125 203.296875 47.363281 C 202.523438 47.570312 201.765625 47.839844 201.007812 48.085938 C 200.800781 48.15625 200.796875 48.316406 200.863281 48.5 C 201.09375 49.128906 201.625 49.40625 202.292969 49.257812 C 202.542969 49.203125 202.800781 49.171875 203.054688 49.128906 C 203.054688 49.152344 203.058594 49.171875 203.0625 49.195312 Z M 101.464844 34.21875 C 101.472656 34.648438 101.492188 35.070312 101.347656 35.492188 C 101.242188 35.800781 101.410156 36.109375 101.644531 36.210938 C 101.914062 36.324219 102.242188 36.21875 102.417969 35.917969 C 102.535156 35.710938 102.613281 35.472656 102.691406 35.242188 C 102.777344 34.992188 102.835938 34.722656 103.152344 34.664062 C 103.472656 34.605469 103.621094 34.835938 103.761719 35.066406 C 103.78125 35.097656 103.796875 35.128906 103.820312 35.160156 C 103.941406 35.328125 104.054688 35.527344 104.3125 35.417969 C 104.472656 35.34375 104.53125 35.023438 104.414062 34.804688 C 104.355469 34.695312 104.253906 34.597656 104.160156 34.511719 C 104.011719 34.371094 103.832031 34.261719 103.691406 34.113281 C 103.296875 33.679688 102.800781 33.503906 102.476562 33.5 C 101.699219 33.472656 101.453125 33.6875 101.464844 34.21875 Z M 162.03125 118.890625 C 162.246094 118.988281 162.4375 118.914062 162.605469 118.773438 C 162.691406 118.699219 162.773438 118.621094 162.847656 118.539062 C 163.152344 118.195312 163.476562 117.90625 163.960938 117.832031 C 164.222656 117.789062 164.378906 117.589844 164.414062 117.320312 C 164.460938 116.972656 164.296875 116.6875 163.941406 116.5 C 163.480469 116.253906 163.210938 116.261719 162.921875 116.546875 C 162.707031 116.753906 162.492188 116.96875 162.289062 117.1875 C 161.988281 117.511719 161.816406 117.902344 161.726562 118.277344 C 161.722656 118.578125 161.800781 118.78125 162.03125 118.890625 Z M 115.679688 32.785156 C 115.890625 33.324219 116.097656 33.859375 116.296875 34.402344 C 116.4375 34.785156 116.734375 35.011719 117.085938 35.152344 C 117.53125 35.328125 117.84375 35.050781 117.75 34.585938 C 117.714844 34.421875 117.640625 34.265625 117.574219 34.113281 C 117.390625 33.699219 117.214844 33.296875 117.347656 32.816406 C 117.425781 32.535156 117.234375 32.351562 116.972656 32.28125 C 116.722656 32.214844 116.457031 32.1875 116.277344 32.15625 C 115.683594 32.132812 115.507812 32.347656 115.679688 32.785156 Z M 98.46875 28.890625 C 98.167969 29.007812 98.113281 29.261719 98.28125 29.535156 C 98.453125 29.824219 98.726562 29.90625 99.039062 29.953125 C 99.40625 30.011719 99.777344 30.082031 100.132812 30.191406 C 100.589844 30.339844 100.78125 30.285156 100.988281 29.855469 C 101.183594 29.449219 101.152344 29.058594 100.878906 28.691406 C 100.628906 28.355469 100.394531 28.285156 100.070312 28.53125 C 99.808594 28.730469 99.550781 28.824219 99.148438 28.738281 C 98.972656 28.773438 98.703125 28.796875 98.46875 28.890625 Z M 103.433594 38.035156 C 103.589844 38.613281 103.988281 38.746094 104.457031 38.382812 C 104.53125 38.324219 104.601562 38.265625 104.683594 38.21875 C 105.476562 37.777344 105.476562 37.777344 105.277344 36.871094 C 105.25 36.742188 105.234375 36.609375 105.179688 36.492188 C 105.070312 36.242188 104.816406 36.136719 104.578125 36.257812 C 104.4375 36.332031 104.320312 36.464844 104.210938 36.585938 C 104.003906 36.824219 103.804688 37.066406 103.617188 37.320312 C 103.511719 37.464844 103.445312 37.636719 103.382812 37.753906 C 103.40625 37.890625 103.414062 37.964844 103.433594 38.035156 Z M 199.738281 57.6875 C 199.972656 57.632812 200.21875 57.605469 200.4375 57.511719 C 200.671875 57.414062 200.882812 57.371094 201.140625 57.4375 C 201.519531 57.53125 201.742188 57.402344 201.800781 57.117188 C 201.859375 56.820312 201.667969 56.589844 201.289062 56.511719 C 200.90625 56.429688 200.539062 56.484375 200.191406 56.644531 C 199.882812 56.785156 199.582031 56.804688 199.261719 56.695312 C 199.15625 56.65625 199.046875 56.625 198.933594 56.609375 C 198.605469 56.570312 198.332031 56.734375 198.28125 57.003906 C 198.230469 57.273438 198.425781 57.515625 198.777344 57.5625 C 199.09375 57.609375 199.410156 57.621094 199.726562 57.644531 C 199.734375 57.660156 199.734375 57.675781 199.738281 57.6875 Z M 206.617188 59.226562 C 206.792969 59.253906 207 59.226562 207.167969 59.15625 C 207.761719 58.914062 208.363281 58.738281 209.019531 58.773438 C 209.339844 58.789062 209.527344 58.625 209.519531 58.4375 C 209.507812 58.226562 209.300781 58.164062 208.914062 58.242188 C 208.714844 58.28125 208.484375 58.371094 208.3125 58.3125 C 207.6875 58.097656 207.042969 58.222656 206.414062 58.152344 C 205.875 58.09375 205.476562 58.320312 205.246094 58.925781 C 205.742188 59.035156 206.175781 59.152344 206.617188 59.226562 Z M 116.9375 30.230469 C 117.394531 30.242188 117.789062 29.824219 117.808594 29.308594 C 117.824219 28.710938 117.527344 28.355469 116.972656 28.316406 C 116.441406 28.28125 116.15625 28.53125 116.128906 29.058594 C 116.097656 29.691406 116.457031 30.214844 116.9375 30.230469 Z M 205.988281 61.992188 C 206.328125 61.75 206.257812 61.359375 205.875 61.199219 C 205.730469 61.136719 205.542969 61.121094 205.390625 61.15625 C 205.097656 61.214844 204.8125 61.3125 204.535156 61.421875 C 204.375 61.488281 204.234375 61.613281 204.089844 61.710938 C 204.210938 61.890625 204.300781 62.101562 204.457031 62.238281 C 204.589844 62.351562 204.792969 62.382812 205.042969 62.476562 C 205.34375 62.328125 205.699219 62.203125 205.988281 61.992188 Z M 206.753906 48.917969 C 206.816406 48.84375 206.832031 48.609375 206.769531 48.5625 C 206.460938 48.296875 206.144531 48.027344 205.789062 47.84375 C 205.546875 47.71875 205.226562 47.953125 205.125 48.226562 C 205.023438 48.496094 205.117188 48.714844 205.433594 48.855469 C 205.707031 48.976562 205.996094 49.0625 206.335938 49.1875 C 206.464844 49.109375 206.640625 49.042969 206.753906 48.917969 Z M 199.71875 52.34375 C 199.640625 52.359375 199.558594 52.480469 199.53125 52.570312 C 199.519531 52.613281 199.644531 52.753906 199.695312 52.746094 C 200.140625 52.683594 200.367188 52.984375 200.628906 53.25 C 200.800781 53.425781 201.011719 53.480469 201.234375 53.320312 C 201.457031 53.160156 201.589844 52.816406 201.519531 52.578125 C 201.441406 52.3125 201.199219 52.152344 200.871094 52.179688 C 200.484375 52.230469 200.101562 52.273438 199.71875 52.34375 Z M 144.433594 33.554688 C 143.945312 33.648438 143.816406 33.988281 144.140625 34.367188 C 144.28125 34.539062 144.449219 34.699219 144.632812 34.824219 C 144.917969 35.007812 145.183594 34.929688 145.347656 34.632812 C 145.480469 34.394531 145.546875 34.136719 145.382812 33.886719 C 145.214844 33.628906 144.957031 33.53125 144.613281 33.535156 C 144.582031 33.539062 144.503906 33.542969 144.433594 33.554688 Z M 205.632812 52.957031 C 205.261719 52.875 204.890625 52.773438 204.515625 52.722656 C 204.363281 52.703125 204.183594 52.765625 204.039062 52.84375 C 203.667969 53.035156 203.625 53.433594 203.933594 53.714844 C 204.148438 53.910156 204.414062 53.953125 204.65625 53.800781 C 204.996094 53.589844 205.308594 53.339844 205.632812 53.105469 C 205.632812 53.054688 205.632812 53.007812 205.632812 52.957031 Z M 121.492188 39.386719 C 121.757812 39.441406 121.90625 39.242188 122.042969 39.074219 C 122.132812 38.964844 122.175781 38.8125 122.226562 38.671875 C 122.296875 38.476562 122.277344 38.296875 122.097656 38.171875 C 121.902344 38.035156 121.6875 37.976562 121.46875 38.105469 C 121.226562 38.253906 121.09375 38.46875 121.097656 38.695312 C 121.105469 39.023438 121.296875 39.347656 121.492188 39.386719 Z M 117.644531 117.027344 C 117.480469 117.042969 117.300781 117.027344 117.152344 117.085938 C 117.054688 117.125 116.945312 117.277344 116.953125 117.375 C 116.957031 117.457031 117.121094 117.613281 117.199219 117.601562 C 117.714844 117.535156 118.230469 117.445312 118.738281 117.324219 C 118.835938 117.300781 118.890625 117.105469 118.964844 116.992188 C 118.835938 116.953125 118.703125 116.871094 118.582031 116.890625 C 118.269531 116.933594 117.96875 117.023438 117.660156 117.09375 C 117.652344 117.070312 117.652344 117.046875 117.644531 117.027344 Z M 112.625 31.507812 C 112.660156 31.265625 112.488281 31.136719 112.308594 31.023438 C 112.230469 30.972656 112.144531 30.929688 112.054688 30.902344 C 111.742188 30.804688 111.460938 30.902344 111.386719 31.128906 C 111.308594 31.378906 111.496094 31.671875 111.804688 31.769531 C 111.890625 31.796875 111.988281 31.800781 112.035156 31.808594 C 112.378906 31.808594 112.601562 31.691406 112.625 31.507812 Z M 12.867188 113.230469 C 12.597656 113.214844 12.402344 113.390625 12.382812 113.664062 C 12.367188 113.996094 12.640625 114.316406 12.945312 114.3125 C 13.191406 114.308594 13.394531 114.097656 13.40625 113.835938 C 13.417969 113.53125 13.164062 113.25 12.867188 113.230469 Z M 29.878906 40.386719 C 29.878906 40.109375 29.652344 39.878906 29.390625 39.894531 C 29.136719 39.90625 28.9375 40.132812 28.921875 40.421875 C 28.910156 40.722656 29.097656 40.941406 29.371094 40.945312 C 29.636719 40.945312 29.878906 40.675781 29.878906 40.386719 Z M 36.460938 39.226562 C 36.265625 39.21875 36.140625 39.363281 36.1875 39.554688 C 36.210938 39.648438 36.367188 39.789062 36.441406 39.777344 C 36.570312 39.753906 36.683594 39.628906 36.910156 39.476562 C 36.683594 39.347656 36.574219 39.234375 36.460938 39.226562 Z M 114.3125 32.195312 C 114.289062 32.246094 114.328125 32.371094 114.367188 32.386719 C 114.613281 32.484375 114.738281 32.324219 114.824219 32.125 C 114.832031 32.109375 114.824219 32.085938 114.820312 32.003906 C 114.578125 31.917969 114.40625 31.972656 114.3125 32.195312 Z M 72.175781 38.632812 C 72.089844 38.65625 71.976562 38.808594 71.984375 38.898438 C 71.988281 38.976562 72.140625 39.105469 72.226562 39.101562 C 72.3125 39.097656 72.390625 38.957031 72.53125 38.824219 C 72.371094 38.730469 72.253906 38.613281 72.175781 38.632812 Z M 10.515625 106.945312 C 10.4375 106.9375 10.351562 107.046875 10.265625 107.105469 C 10.335938 107.179688 10.398438 107.300781 10.476562 107.3125 C 10.582031 107.328125 10.695312 107.253906 10.929688 107.179688 C 10.71875 107.050781 10.621094 106.953125 10.515625 106.945312 Z M 115.703125 117.433594 C 115.535156 117.417969 115.414062 117.53125 115.453125 117.703125 C 115.46875 117.773438 115.609375 117.878906 115.675781 117.867188 C 115.777344 117.847656 115.859375 117.742188 116 117.632812 C 115.863281 117.535156 115.785156 117.441406 115.703125 117.433594 Z M 29.011719 44.246094 C 29.027344 44.332031 29.136719 44.394531 29.203125 44.46875 C 29.269531 44.398438 29.390625 44.320312 29.386719 44.257812 C 29.375 44.160156 29.277344 44.070312 29.171875 43.90625 C 29.085938 44.074219 29 44.171875 29.011719 44.246094 Z M 30.347656 45.75 C 30.261719 45.777344 30.191406 45.863281 30.113281 45.929688 C 30.167969 45.988281 30.226562 46.101562 30.277344 46.097656 C 30.363281 46.089844 30.445312 46.011719 30.578125 45.933594 C 30.46875 45.84375 30.390625 45.738281 30.347656 45.75 Z M 203.664062 54.695312 C 203.472656 54.695312 203.355469 54.695312 203.238281 54.695312 C 203.359375 54.960938 203.480469 54.949219 203.664062 54.695312 Z M 204.679688 54.785156 C 204.8125 54.777344 204.945312 54.769531 205.078125 54.765625 C 205.078125 54.726562 205.074219 54.691406 205.074219 54.65625 C 204.941406 54.65625 204.808594 54.65625 204.675781 54.65625 C 204.675781 54.699219 204.679688 54.742188 204.679688 54.785156 Z M 220.082031 70.257812 C 220.03125 70.296875 219.984375 70.351562 219.964844 70.410156 C 219.957031 70.429688 220.046875 70.515625 220.066406 70.507812 C 220.125 70.484375 220.167969 70.425781 220.234375 70.367188 C 220.160156 70.3125 220.09375 70.25 220.082031 70.257812 Z M 217.957031 89.601562 C 217.964844 89.644531 218.019531 89.671875 218.050781 89.710938 C 218.082031 89.660156 218.128906 89.617188 218.140625 89.566406 C 218.148438 89.542969 218.078125 89.507812 218.023438 89.460938 C 217.992188 89.519531 217.949219 89.566406 217.957031 89.601562 Z M 103.445312 29.546875 C 103.402344 29.535156 103.359375 29.539062 103.3125 29.535156 C 103.316406 29.566406 103.304688 29.617188 103.320312 29.625 C 103.355469 29.648438 103.402344 29.648438 103.445312 29.65625 C 103.445312 29.605469 103.453125 29.550781 103.445312 29.546875 Z M 158.027344 117.84375 C 158.304688 117.824219 158.398438 117.652344 158.25 117.429688 C 158.179688 117.324219 158.082031 117.214844 157.96875 117.164062 C 157.535156 116.960938 157.09375 116.761719 156.644531 116.59375 C 156.429688 116.515625 156.285156 116.667969 156.320312 116.902344 C 156.335938 117.027344 156.390625 117.15625 156.457031 117.265625 C 156.730469 117.703125 157.109375 117.921875 157.5625 117.820312 C 157.769531 117.832031 157.898438 117.851562 158.027344 117.84375 Z M 29.027344 66.921875 C 28.652344 66.984375 28.527344 67.390625 28.773438 67.71875 C 28.933594 67.933594 29.097656 68.113281 29.023438 68.417969 C 29.003906 68.5 29.128906 68.640625 29.21875 68.710938 C 29.269531 68.746094 29.449219 68.714844 29.464844 68.671875 C 29.503906 68.566406 29.515625 68.429688 29.480469 68.320312 C 29.34375 67.898438 29.417969 67.660156 29.800781 67.445312 C 29.914062 67.382812 30.046875 67.351562 30.164062 67.292969 C 30.324219 67.210938 30.445312 67.101562 30.328125 66.835938 C 29.910156 66.859375 29.460938 66.851562 29.027344 66.921875 Z M 188.589844 55.613281 C 188.429688 55.363281 188.214844 55.144531 187.992188 54.945312 C 187.925781 54.878906 187.726562 54.875 187.644531 54.929688 C 187.574219 54.976562 187.542969 55.15625 187.5625 55.261719 C 187.617188 55.53125 187.6875 55.800781 187.789062 56.058594 C 187.84375 56.195312 187.964844 56.308594 188.023438 56.382812 C 188.464844 56.390625 188.78125 55.910156 188.589844 55.613281 Z M 175.449219 110.769531 C 175.472656 110.949219 175.539062 111.101562 175.75 111.097656 C 175.921875 111.097656 176.136719 110.8125 176.132812 110.613281 C 176.128906 110.410156 175.933594 110.183594 175.765625 110.1875 C 175.597656 110.195312 175.421875 110.507812 175.449219 110.769531 Z M 212.105469 86.449219 C 212.300781 86.445312 212.511719 86.617188 212.777344 86.296875 C 212.488281 86.296875 212.292969 86.296875 212.09375 86.296875 C 212.097656 86.347656 212.101562 86.398438 212.105469 86.449219 Z M 125.128906 48.042969 C 125.164062 48.117188 125.214844 48.1875 125.269531 48.25 C 125.273438 48.257812 125.386719 48.1875 125.382812 48.175781 C 125.363281 48.097656 125.316406 48.023438 125.269531 47.925781 C 125.199219 47.984375 125.125 48.03125 125.128906 48.042969 Z M 125.128906 48.042969" fill-rule="evenodd"/></g><g fill="#FFF"><g><g><path d="M 21.605469 -13.238281 L 26.457031 -40.929688 C 26.578125 -41.625 26.554688 -42.292969 26.46875 -42.808594 C 26.078125 -45.050781 24.183594 -45.96875 22.363281 -45.652344 C 20.636719 -45.351562 19.0625 -43.875 18.636719 -41.347656 L 14.125 -15.59375 C 13.414062 -11.667969 10.695312 -8.210938 8.171875 -7.773438 C 7.097656 -7.585938 6.363281 -8.226562 6.175781 -9.300781 C 6.101562 -9.722656 6.066406 -10.199219 6.164062 -10.742188 L 10.90625 -38.222656 C 11.027344 -38.917969 11.015625 -39.539062 10.925781 -40.054688 C 10.535156 -42.296875 8.589844 -43.253906 6.765625 -42.9375 C 5.039062 -42.636719 3.46875 -41.160156 3.042969 -38.632812 L -1.726562 -10.476562 C -1.921875 -9.382812 -1.882812 -8.332031 -1.710938 -7.351562 C -0.949219 -2.960938 3.128906 -0.542969 7.75 -1.347656 C 10.832031 -1.886719 13.859375 -3.855469 15.796875 -6.550781 C 17.78125 -4.539062 21.011719 -3.65625 24.5625 -4.277344 C 30.027344 -5.226562 36.289062 -9.589844 37.703125 -17.773438 L 42.242188 -43.675781 C 42.359375 -44.371094 42.339844 -45.042969 42.25 -45.554688 C 41.859375 -47.796875 39.96875 -48.71875 38.148438 -48.402344 C 36.417969 -48.101562 34.847656 -46.625 34.421875 -44.097656 L 29.925781 -17.957031 C 29.140625 -13.347656 26.480469 -10.671875 24.097656 -10.257812 C 22.746094 -10.019531 21.765625 -10.667969 21.5625 -11.835938 C 21.488281 -12.257812 21.507812 -12.691406 21.605469 -13.238281 Z M 21.605469 -13.238281" transform="translate(50.55 116.233)"/></g></g></g><g fill="#FFF"><g><g><path d="M 7.042969 -33.894531 C 9.144531 -34.257812 10.570312 -36.289062 10.195312 -38.4375 C 9.832031 -40.539062 7.8125 -41.917969 5.710938 -41.550781 C 3.609375 -41.1875 2.171875 -39.203125 2.539062 -37.101562 C 2.914062 -34.953125 4.941406 -33.527344 7.042969 -33.894531 Z M 4.882812 -8.980469 L 7.46875 -24.539062 C 7.550781 -25.175781 7.667969 -25.871094 7.585938 -26.339844 C 7.230469 -28.394531 5.5 -29.199219 3.914062 -28.921875 C 2.464844 -28.671875 1.105469 -27.375 0.738281 -25.050781 C 0.0078125 -20.402344 -0.984375 -14.503906 -1.722656 -9.898438 C -1.839844 -8.917969 -1.996094 -7.589844 -1.855469 -6.796875 C -1.09375 -2.40625 2.988281 -0.519531 7.285156 -1.269531 C 11.859375 -2.066406 16.417969 -5.746094 18.003906 -15.980469 C 18.046875 -16.277344 18.046875 -16.5625 17.996094 -16.84375 C 17.746094 -18.292969 16.1875 -18.933594 14.789062 -18.691406 C 13.527344 -18.472656 12.378906 -17.597656 12.070312 -16.054688 C 10.933594 -9.601562 8.792969 -7.253906 6.925781 -6.929688 C 5.851562 -6.742188 5.027344 -7.320312 4.875 -8.210938 C 4.832031 -8.441406 4.839844 -8.683594 4.882812 -8.980469 Z M 4.882812 -8.980469" transform="translate(95.14 108.471)"/></g></g></g><g fill="#FFF"><g><g><path d="M 5.074219 -8.726562 L 9.9375 -38.824219 C 10.027344 -39.417969 10.023438 -39.992188 9.941406 -40.460938 C 9.632812 -42.234375 7.746094 -43.109375 6.347656 -42.867188 C 4.570312 -42.554688 3.574219 -41.371094 3.195312 -39.140625 L -1.691406 -9.714844 C -1.878906 -8.574219 -1.894531 -7.5625 -1.722656 -6.578125 C -0.976562 -2.285156 2.988281 -0.519531 7.097656 -1.234375 C 11.535156 -2.007812 16.613281 -5.730469 18.191406 -16.011719 C 18.226562 -16.355469 18.214844 -16.691406 18.167969 -16.96875 C 17.90625 -18.464844 16.414062 -19.3125 14.964844 -19.058594 C 13.796875 -18.855469 12.660156 -17.9375 12.304688 -16.09375 C 11.179688 -10.125 8.886719 -7.273438 6.691406 -6.890625 C 5.757812 -6.726562 5.144531 -7.199219 5.023438 -7.898438 C 4.992188 -8.085938 5.027344 -8.429688 5.074219 -8.726562 Z M 5.074219 -8.726562" transform="translate(108.027 106.228)"/></g></g></g><g fill="#FFF"><g><g><path d="M 5.074219 -8.726562 L 9.9375 -38.824219 C 10.027344 -39.417969 10.023438 -39.992188 9.941406 -40.460938 C 9.632812 -42.234375 7.746094 -43.109375 6.347656 -42.867188 C 4.570312 -42.554688 3.574219 -41.371094 3.195312 -39.140625 L -1.691406 -9.714844 C -1.878906 -8.574219 -1.894531 -7.5625 -1.722656 -6.578125 C -0.976562 -2.285156 2.988281 -0.519531 7.097656 -1.234375 C 11.535156 -2.007812 16.613281 -5.730469 18.191406 -16.011719 C 18.226562 -16.355469 18.214844 -16.691406 18.167969 -16.96875 C 17.90625 -18.464844 16.414062 -19.3125 14.964844 -19.058594 C 13.796875 -18.855469 12.660156 -17.9375 12.304688 -16.09375 C 11.179688 -10.125 8.886719 -7.273438 6.691406 -6.890625 C 5.757812 -6.726562 5.144531 -7.199219 5.023438 -7.898438 C 4.992188 -8.085938 5.027344 -8.429688 5.074219 -8.726562 Z M 5.074219 -8.726562" transform="translate(121.054 103.96)"/></g></g></g><g fill="#FFF"><g><g><path d="M 7.042969 -33.894531 C 9.144531 -34.257812 10.570312 -36.289062 10.195312 -38.4375 C 9.832031 -40.539062 7.8125 -41.917969 5.710938 -41.550781 C 3.609375 -41.1875 2.171875 -39.203125 2.539062 -37.101562 C 2.914062 -34.953125 4.941406 -33.527344 7.042969 -33.894531 Z M 4.882812 -8.980469 L 7.46875 -24.539062 C 7.550781 -25.175781 7.667969 -25.871094 7.585938 -26.339844 C 7.230469 -28.394531 5.5 -29.199219 3.914062 -28.921875 C 2.464844 -28.671875 1.105469 -27.375 0.738281 -25.050781 C 0.0078125 -20.402344 -0.984375 -14.503906 -1.722656 -9.898438 C -1.839844 -8.917969 -1.996094 -7.589844 -1.855469 -6.796875 C -1.09375 -2.40625 2.988281 -0.519531 7.285156 -1.269531 C 11.859375 -2.066406 16.417969 -5.746094 18.003906 -15.980469 C 18.046875 -16.277344 18.046875 -16.5625 17.996094 -16.84375 C 17.746094 -18.292969 16.1875 -18.933594 14.789062 -18.691406 C 13.527344 -18.472656 12.378906 -17.597656 12.070312 -16.054688 C 10.933594 -9.601562 8.792969 -7.253906 6.925781 -6.929688 C 5.851562 -6.742188 5.027344 -7.320312 4.875 -8.210938 C 4.832031 -8.441406 4.839844 -8.683594 4.882812 -8.980469 Z M 4.882812 -8.980469" transform="translate(134.08 101.693)"/></g></g></g><g fill="#FFF"><g><g><path d="M 21.335938 -17.28125 C 20.222656 -11.507812 15.703125 -8.457031 11.734375 -7.769531 C 8.324219 -7.175781 5.894531 -8.433594 5.519531 -10.582031 C 5.445312 -11.003906 5.417969 -11.429688 5.523438 -11.929688 L 5.742188 -12.882812 C 7.246094 -12.277344 9.023438 -12.011719 10.890625 -12.335938 C 15.140625 -13.074219 18.414062 -16.386719 18.941406 -20.808594 C 19.019531 -21.738281 19.007812 -22.648438 18.867188 -23.441406 C 18.097656 -27.878906 14 -30.679688 8.722656 -29.761719 C 4.566406 -29.035156 0.929688 -25.902344 0.105469 -20.945312 L -1.257812 -12.480469 C -1.4375 -11.296875 -1.476562 -10.136719 -1.289062 -9.0625 C -0.320312 -3.503906 5.511719 -0.960938 12.328125 -2.144531 C 18.820312 -3.277344 25.644531 -7.734375 27.171875 -17.191406 C 27.25 -17.589844 27.238281 -17.925781 27.191406 -18.203125 C 26.9375 -19.652344 25.492188 -20.21875 24.089844 -19.972656 C 22.785156 -19.746094 21.503906 -18.800781 21.335938 -17.28125 Z M 9.542969 -24.226562 C 10.851562 -24.453125 11.878906 -23.523438 12.113281 -22.171875 C 12.179688 -21.796875 12.195312 -21.414062 12.121094 -21.019531 C 11.921875 -19.394531 10.621094 -18.589844 9.21875 -18.347656 C 8.332031 -18.191406 7.410156 -18.226562 6.691406 -18.484375 L 7.1875 -21.457031 C 7.449219 -22.996094 8.46875 -24.039062 9.542969 -24.226562 Z M 9.542969 -24.226562" transform="translate(146.967 99.45)"/></g></g></g><g fill="#FFF"><g><g><path d="M 17.230469 -15.988281 L 22.925781 -43.25 C 23.515625 -48.980469 16.582031 -48.738281 15.785156 -43.640625 L 11.125 -16.800781 C 10.1875 -12.789062 16.367188 -11.558594 17.230469 -15.988281 Z M 11.929688 -9.964844 C 9.828125 -9.601562 8.390625 -7.617188 8.765625 -5.472656 C 9.132812 -3.371094 11.160156 -1.941406 13.261719 -2.308594 C 15.410156 -2.683594 16.835938 -4.710938 16.472656 -6.8125 C 16.097656 -8.960938 14.078125 -10.339844 11.929688 -9.964844 Z M 11.929688 -9.964844" transform="translate(169.099 95.597)"/></g></g></g></svg>